<svg width="89" height="23" viewBox="0 0 89 23" fill="none" xmlns="http://www.w3.org/2000/svg">
<path d="M0.000488281 0.285156V11.5005V22.7159L11.2716 11.5005L0.000488281 0.285156Z" fill="url(#paint0_linear)"/>
<path d="M14.2995 8.48748L9.74807 5.85241L0 0.202148V0.285298L11.2711 11.5007L14.2995 8.48748Z" fill="url(#paint1_linear)"/>
<path d="M0.000488281 22.7164V22.7975L9.74856 17.1493L14.2981 14.5122L11.2716 11.501L0.000488281 22.7164Z" fill="url(#paint2_linear)"/>
<path d="M14.2984 8.48804L11.27 11.5012L14.2964 14.5125L19.497 11.5012L14.2984 8.48804Z" fill="url(#paint3_linear)"/>
<path d="M70.9615 15.8837C70.5373 15.8837 70.1526 15.8045 69.8014 15.6481C69.4522 15.4917 69.1583 15.2502 68.9195 14.9255H68.8505C68.8978 15.3056 68.9215 15.6679 68.9215 16.0084V18.693H67.937V9.24159H68.738L68.8742 10.1345H68.9215C69.174 9.7781 69.47 9.51876 69.8054 9.36038C70.1408 9.202 70.5275 9.1228 70.9615 9.1228C71.8237 9.1228 72.4885 9.41779 72.9581 10.0097C73.4277 10.6017 73.6605 11.4312 73.6605 12.4983C73.6605 13.5693 73.4217 14.4028 72.9463 14.9948C72.4688 15.5887 71.8079 15.8837 70.9615 15.8837ZM70.8195 9.96222C70.1546 9.96222 69.6752 10.1463 69.3792 10.5166C69.0833 10.8848 68.9294 11.4728 68.9215 12.2785V12.4983C68.9215 13.4149 69.0734 14.0702 69.3792 14.4662C69.683 14.8602 70.1723 15.0581 70.8431 15.0581C71.4054 15.0581 71.8454 14.8305 72.163 14.3731C72.4807 13.9178 72.6405 13.2882 72.6405 12.4864C72.6405 11.6727 72.4807 11.0491 72.163 10.6136C71.8454 10.18 71.3955 9.96222 70.8195 9.96222Z" fill="#0B2540"/>
<path d="M75.9386 15.7649H74.9541V6.50342H75.9386V15.7649Z" fill="#0B2540"/>
<path d="M81.6011 15.7645L81.4058 14.836H81.3584C81.0349 15.2458 80.7113 15.521 80.3878 15.6655C80.0662 15.81 79.6637 15.8833 79.1803 15.8833C78.5352 15.8833 78.0301 15.717 77.6652 15.3824C77.3002 15.0498 77.1167 14.5747 77.1167 13.9609C77.1167 12.6444 78.1663 11.9534 80.2654 11.8901L81.3683 11.8545V11.4506C81.3683 10.9378 81.2578 10.5597 81.0388 10.3162C80.8198 10.0727 80.4686 9.94992 79.9853 9.94992C79.4427 9.94992 78.8311 10.1162 78.1466 10.4508L77.8447 9.69453C78.1663 9.52031 78.5155 9.3837 78.8982 9.28471C79.279 9.18572 79.6617 9.13623 80.0464 9.13623C80.8218 9.13623 81.3959 9.30847 81.7688 9.65493C82.1417 9.99941 82.3291 10.5537 82.3291 11.316V15.7685H81.6011V15.7645ZM79.3757 15.0696C79.9892 15.0696 80.4686 14.9013 80.8198 14.5648C81.169 14.2282 81.3446 13.755 81.3446 13.1472V12.5573L80.3601 12.5988C79.5769 12.6266 79.0127 12.7493 78.6674 12.9651C78.3221 13.1809 78.1485 13.5175 78.1485 13.9748C78.1485 14.3311 78.2551 14.6044 78.4721 14.7905C78.6871 14.9765 78.989 15.0696 79.3757 15.0696Z" fill="#0B2540"/>
<path d="M82.9019 9.24097H83.9574L85.3818 12.961C85.6935 13.8103 85.8888 14.4241 85.9638 14.8002H86.0112C86.0625 14.5983 86.171 14.2518 86.3347 13.7608C86.4985 13.2699 87.0351 11.7652 87.9446 9.24097H89.0001L86.2065 16.6692C85.9303 17.4037 85.6067 17.9244 85.2358 18.2312C84.8669 18.5381 84.4131 18.6925 83.8745 18.6925C83.5746 18.6925 83.2767 18.6589 82.9847 18.5916V17.7996C83.2017 17.8471 83.4464 17.8709 83.7147 17.8709C84.3914 17.8709 84.8728 17.4908 85.1628 16.7286L85.5239 15.8L82.9019 9.24097Z" fill="#0B2540"/>
<path d="M52.7256 9.84792C53.0373 10.1073 53.6904 10.6537 53.6904 11.6911C53.6904 12.7008 53.1202 13.1779 52.5481 13.6293C52.3705 13.8055 52.1673 13.9975 52.1673 14.2984C52.1673 14.5974 52.3705 14.7617 52.5204 14.8844L53.0097 15.2665C53.6075 15.7714 54.152 16.2366 54.152 17.177C54.152 18.4599 52.915 19.7547 50.5771 19.7547C48.6043 19.7547 47.6533 18.8143 47.6533 17.8026C47.6533 17.3116 47.898 16.6167 48.7009 16.1376C49.5434 15.6189 50.6857 15.5516 51.2973 15.5101C51.1059 15.2646 50.8889 15.0052 50.8889 14.5835C50.8889 14.3519 50.9579 14.2153 51.025 14.051C50.8751 14.0648 50.7251 14.0787 50.589 14.0787C49.1488 14.0787 48.332 12.9997 48.332 11.9366C48.332 11.309 48.6181 10.6121 49.202 10.1073C49.9774 9.46582 50.9027 9.35693 51.6366 9.35693H54.4361L53.5661 9.84792H52.7256ZM51.7609 15.908C51.6524 15.8941 51.5833 15.8941 51.4492 15.8941C51.3268 15.8941 50.591 15.9218 50.0208 16.1139C49.7209 16.2228 48.8509 16.5494 48.8509 17.5195C48.8509 18.4876 49.79 19.1845 51.244 19.1845C52.5481 19.1845 53.2425 18.5549 53.2425 17.7096C53.2425 17.0107 52.7927 16.6445 51.7609 15.908ZM52.1555 13.3145C52.4672 12.9997 52.4948 12.5642 52.4948 12.3187C52.4948 11.3367 51.9108 9.80832 50.7823 9.80832C50.4292 9.80832 50.0484 9.98452 49.8294 10.2597C49.5986 10.5468 49.5295 10.915 49.5295 11.2694C49.5295 12.184 50.0603 13.6986 51.2302 13.6986C51.5695 13.6966 51.9365 13.5323 52.1555 13.3145Z" fill="#0B2540"/>
<path d="M44.1626 15.6882C42.0042 15.6882 40.8501 13.9995 40.8501 12.4732C40.8501 10.6895 42.3022 9.16309 44.3658 9.16309C46.3604 9.16309 47.6092 10.729 47.6092 12.3782C47.6112 13.9857 46.3762 15.6882 44.1626 15.6882ZM45.8593 14.5855C46.1848 14.15 46.2677 13.6036 46.2677 13.073C46.2677 11.8733 45.6975 9.58476 44.0146 9.58476C43.5668 9.58476 43.1189 9.76294 42.7934 10.048C42.2647 10.5251 42.168 11.123 42.168 11.711C42.168 13.0592 42.8329 15.2784 44.4763 15.2784C45.005 15.2804 45.5476 15.0211 45.8593 14.5855Z" fill="#0B2540"/>
<path d="M36.8057 15.6882C34.6473 15.6882 33.4932 13.9995 33.4932 12.4732C33.4932 10.6895 34.9452 9.16309 37.0089 9.16309C39.0035 9.16309 40.2523 10.729 40.2523 12.3782C40.2523 13.9857 39.0173 15.6882 36.8057 15.6882ZM38.5024 14.5855C38.8279 14.15 38.9107 13.6036 38.9107 13.073C38.9107 11.8733 38.3406 9.58476 36.6577 9.58476C36.2098 9.58476 35.762 9.76294 35.4365 10.048C34.9077 10.5251 34.8111 11.123 34.8111 11.711C34.8111 13.0592 35.4759 15.2784 37.1193 15.2784C37.6461 15.2804 38.1906 15.0211 38.5024 14.5855Z" fill="#0B2540"/>
<path d="M32.4565 15.4761L30.5053 15.9274C29.7142 16.0502 29.004 16.1591 28.2543 16.1591C24.486 16.1591 23.0537 13.3795 23.0537 11.2017C23.0537 8.54489 25.0878 6.08008 28.568 6.08008C29.3058 6.08008 30.0141 6.18896 30.6553 6.36714C31.6792 6.65421 32.1566 7.01057 32.4565 7.21647L31.3241 8.29742L30.8466 8.40631L31.188 7.85791C30.7243 7.40652 29.878 6.57106 28.2681 6.57106C26.1117 6.57106 24.488 8.21427 24.488 10.6118C24.488 13.1855 26.3445 15.6107 29.3196 15.6107C30.1936 15.6107 30.6434 15.4325 31.0538 15.2682V13.0627L28.9941 13.1716L30.0851 12.5816H32.9793L32.6242 12.9241C32.5276 13.0073 32.5157 13.035 32.4881 13.1439C32.4743 13.2666 32.4605 13.6646 32.4605 13.8012V15.4761H32.4565Z" fill="#0B2540"/>
<path d="M57.0403 15.0803C56.5905 15.0387 56.4958 14.9576 56.4958 14.423V14.2726V6.67223C56.4977 6.64253 56.4997 6.61283 56.5036 6.58314C56.5589 6.10403 56.695 6.02088 57.1192 5.77539H55.166L54.1421 6.26835H55.1858V6.27429V6.26835V14.2706V14.7239C55.1858 14.9972 55.1325 15.0387 54.8168 15.4485H57.2336L57.7387 15.1476C57.5039 15.1219 57.2711 15.108 57.0403 15.0803Z" fill="#0B2540"/>
<path d="M62.5911 15.2065C62.4431 15.2877 62.2932 15.3847 62.1452 15.452C61.6973 15.6559 61.2357 15.7113 60.8293 15.7113C60.3972 15.7113 59.7185 15.6836 59.026 15.1808C58.0652 14.4997 57.645 13.3297 57.645 12.3101C57.645 10.2017 59.3535 9.16821 60.7484 9.16821C61.2357 9.16821 61.7388 9.29096 62.1452 9.54833C62.8219 9.99576 62.9995 10.5818 63.0922 10.8946L59.9079 12.1874L58.8643 12.2685C59.2016 13.9949 60.3676 15.0006 61.6559 15.0006C62.3464 15.0006 62.8495 14.7571 63.3092 14.5255L62.5911 15.2065ZM61.3185 11.1519C61.575 11.0569 61.7112 10.9757 61.7112 10.7857C61.7112 10.2412 61.1015 9.61564 60.3696 9.61564C59.827 9.61564 58.811 10.0373 58.811 11.5063C58.811 11.738 58.8386 11.9815 58.8524 12.227L61.3185 11.1519Z" fill="#0B2540"/>
<path d="M63.901 9.26103V10.158H63.7925V9.26103H63.4966V9.16797H64.197V9.26103H63.901Z" fill="#0B2540"/>
<path d="M65.1193 10.1576V9.25087H65.1134L64.8372 10.1576H64.7523L64.4742 9.25087H64.4702V10.1576H64.3716V9.16772H64.5412L64.7918 9.96755H64.7958L65.0424 9.16772H65.214V10.1576H65.1193Z" fill="#0B2540"/>
<path d="M25.7657 3.41312H25.087C25.087 3.32006 25.0219 3.05477 24.8937 2.61722H23.9151C23.7829 3.04685 23.7159 3.31214 23.7159 3.41312H23.0786C23.0786 3.35768 23.2443 2.9043 23.5738 2.05098C23.9033 1.19965 24.069 0.730424 24.069 0.643311H24.87C24.87 0.724484 25.02 1.18579 25.3179 2.03118C25.6158 2.87658 25.7657 3.3359 25.7657 3.41312ZM24.7852 2.21135C24.5445 1.47881 24.4222 1.08482 24.4222 1.02542H24.3886C24.3886 1.08086 24.2643 1.47683 24.0138 2.21135H24.7852Z" fill="#0B2540"/>
<path d="M28.4993 3.41312H27.9765C27.9765 3.3557 27.7831 3.04883 27.3945 2.49249C26.9881 1.90645 26.7553 1.50652 26.7 1.29072H26.6665C26.702 1.60156 26.7198 1.88269 26.7198 2.13215C26.7198 2.48259 26.7296 2.90826 26.7494 3.41312H26.2285C26.2502 2.97359 26.2601 2.49051 26.2601 1.96387C26.2601 1.44713 26.2502 1.00562 26.2285 0.643311H26.8579C26.8579 0.718545 27.0315 1.0175 27.3807 1.54216C27.7516 2.0985 27.9646 2.47665 28.0199 2.67661H28.0515C28.0179 2.35984 28.0002 2.07672 28.0002 1.82528C28.0002 1.44119 27.9903 1.0472 27.9706 0.643311H28.5013C28.4815 0.995724 28.4717 1.43525 28.4717 1.96387C28.4697 2.49843 28.4796 2.97953 28.4993 3.41312Z" fill="#0B2540"/>
<path d="M31.5702 1.93225C31.5702 2.33413 31.442 2.68652 31.1836 2.98743C30.9271 3.28835 30.566 3.43881 30.1024 3.43881C29.8933 3.43881 29.6052 3.43089 29.2383 3.41307C29.256 2.98545 29.2659 2.50241 29.2659 1.96393C29.2659 1.44723 29.256 1.00774 29.2383 0.643473H29.6092C29.6703 0.643473 29.7611 0.641493 29.8814 0.637534C30.0018 0.633574 30.0807 0.631592 30.1162 0.631592C30.6252 0.631592 30.9961 0.758294 31.225 1.01368C31.4538 1.26906 31.5702 1.57591 31.5702 1.93225ZM30.9902 2.02332C30.9902 1.75012 30.9113 1.52246 30.7535 1.33439C30.5956 1.14829 30.353 1.05525 30.0294 1.05525C29.9683 1.05525 29.8854 1.06119 29.7789 1.07505C29.7927 1.35814 29.8006 1.6551 29.8006 1.96393C29.8006 2.30246 29.8084 2.63901 29.8223 2.9716C29.915 2.98941 30.0057 2.99931 30.0985 2.99931C30.4023 2.99931 30.6272 2.90429 30.7732 2.71622C30.9172 2.52617 30.9902 2.29652 30.9902 2.02332Z" fill="#0B2540"/>
<path d="M34.4008 3.41265H33.7734C33.6097 2.90979 33.4834 2.60094 33.3966 2.48414C33.3098 2.36733 33.1677 2.30794 32.9724 2.30794C32.8896 2.30794 32.8126 2.30794 32.7376 2.30992C32.7376 2.6742 32.7436 3.04244 32.7574 3.41463H32.1675C32.1852 2.987 32.1951 2.50394 32.1951 1.96544C32.1951 1.44872 32.1852 1.00921 32.1675 0.644935H32.5344C32.5759 0.644935 32.6647 0.642955 32.8008 0.638996C32.9349 0.635036 33.0612 0.633057 33.1756 0.633057C33.8247 0.633057 34.1483 0.85479 34.1483 1.30024C34.1483 1.65264 33.9628 1.90011 33.5939 2.03869V2.07037C33.7359 2.10996 33.8622 2.22083 33.9687 2.40495C34.0733 2.58709 34.2193 2.92365 34.4008 3.41265ZM33.6057 1.45664C33.6057 1.17551 33.4242 1.03297 33.0632 1.03297C32.931 1.03297 32.8126 1.04287 32.712 1.06267C32.7278 1.28242 32.7357 1.56949 32.7357 1.92189C32.8126 1.92386 32.8797 1.92585 32.933 1.92585C33.3828 1.92585 33.6057 1.76944 33.6057 1.45664Z" fill="#0B2540"/>
<path d="M37.4387 1.97752C37.4387 2.41307 37.3065 2.77339 37.0401 3.06046C36.7738 3.34753 36.4463 3.49007 36.0537 3.49007C35.6808 3.49007 35.3691 3.35941 35.1166 3.0961C34.866 2.83279 34.7397 2.4982 34.7397 2.09433C34.7397 1.65878 34.8719 1.29847 35.1383 1.0114C35.4046 0.724333 35.7321 0.581787 36.1247 0.581787C36.4976 0.581787 36.8093 0.712453 37.0618 0.975762C37.3124 1.23511 37.4387 1.56969 37.4387 1.97752ZM36.8547 2.0389C36.8547 1.74193 36.7797 1.50238 36.6278 1.31826C36.4759 1.13414 36.2904 1.04109 36.0675 1.04109C35.8604 1.04109 35.6867 1.13414 35.5427 1.32024C35.3987 1.50634 35.3257 1.73995 35.3257 2.02504C35.3257 2.32003 35.4007 2.55958 35.5526 2.74568C35.7045 2.92979 35.8899 3.02284 36.1109 3.02284C36.3181 3.02284 36.4917 2.9298 36.6357 2.7437C36.7817 2.55562 36.8547 2.32002 36.8547 2.0389Z" fill="#0B2540"/>
<path d="M38.6398 3.41312H38.04C38.0578 2.97359 38.0677 2.49051 38.0677 1.96387C38.0677 1.44713 38.0578 1.00562 38.04 0.643311H38.6398C38.6221 0.999683 38.6122 1.44119 38.6122 1.96387C38.6122 2.49843 38.6201 2.98151 38.6398 3.41312Z" fill="#0B2540"/>
<path d="M41.7123 1.93225C41.7123 2.33413 41.5841 2.68652 41.3256 2.98743C41.0692 3.28835 40.7081 3.43881 40.2445 3.43881C40.0354 3.43881 39.7473 3.43089 39.3804 3.41307C39.3981 2.98545 39.408 2.50241 39.408 1.96393C39.408 1.44723 39.3981 1.00774 39.3804 0.643473H39.7513C39.8124 0.643473 39.9032 0.641493 40.0235 0.637534C40.1439 0.633574 40.2228 0.631592 40.2583 0.631592C40.7673 0.631592 41.1382 0.758294 41.3671 1.01368C41.5959 1.26906 41.7123 1.57591 41.7123 1.93225ZM41.1323 2.02332C41.1323 1.75012 41.0534 1.52246 40.8956 1.33439C40.7377 1.14829 40.4951 1.05525 40.1715 1.05525C40.1103 1.05525 40.0275 1.06119 39.9209 1.07505C39.9348 1.35814 39.9426 1.6551 39.9426 1.96393C39.9426 2.30246 39.9505 2.63901 39.9643 2.9716C40.0571 2.98941 40.1478 2.99931 40.2406 2.99931C40.5444 2.99931 40.7693 2.90429 40.9153 2.71622C41.0593 2.52617 41.1323 2.29652 41.1323 2.02332Z" fill="#0B2540"/>
<path d="M45.7843 3.41312H45.1056C45.1056 3.32006 45.0405 3.05477 44.9122 2.61722H43.9337C43.8015 3.04685 43.7344 3.31214 43.7344 3.41312H43.0972C43.0972 3.35768 43.2629 2.9043 43.5924 2.05098C43.9218 1.19965 44.0876 0.730424 44.0876 0.643311H44.8886C44.8886 0.724484 45.0385 1.18579 45.3364 2.03118C45.6343 2.87658 45.7843 3.3359 45.7843 3.41312ZM44.8057 2.21135C44.565 1.47881 44.4427 1.08482 44.4427 1.02542H44.4091C44.4091 1.08086 44.2849 1.47683 44.0343 2.21135H44.8057Z" fill="#0B2540"/>
<path d="M48.2575 1.37002C48.2575 1.70854 48.1312 1.95996 47.8807 2.12032C47.6301 2.28265 47.3223 2.36184 46.9574 2.36184C46.8903 2.36184 46.8429 2.35986 46.8153 2.35788C46.8153 2.62514 46.8232 2.97554 46.839 3.41305H46.2432C46.2609 3.00326 46.2708 2.52022 46.2708 1.96392C46.2708 1.45316 46.2609 1.01367 46.2432 0.643472H46.6121C46.6634 0.643472 46.764 0.641493 46.914 0.637534C47.0619 0.633574 47.1902 0.631592 47.3006 0.631592C47.569 0.631592 47.7958 0.692965 47.9813 0.813726C48.1648 0.936466 48.2575 1.12058 48.2575 1.37002ZM47.711 1.48682C47.711 1.18393 47.5098 1.03149 47.1093 1.03149C47.0086 1.03149 46.9021 1.04139 46.7916 1.06317C46.8074 1.33042 46.8153 1.6353 46.8153 1.97382C46.8508 1.9758 46.8922 1.97778 46.9376 1.97778C47.4526 1.97778 47.711 1.81347 47.711 1.48682Z" fill="#0B2540"/>
<path d="M50.7985 1.37002C50.7985 1.70854 50.6722 1.95996 50.4217 2.12032C50.1711 2.28265 49.8634 2.36184 49.4984 2.36184C49.4313 2.36184 49.3839 2.35986 49.3563 2.35788C49.3563 2.62514 49.3642 2.97554 49.38 3.41305H48.7842C48.8019 3.00326 48.8118 2.52022 48.8118 1.96392C48.8118 1.45316 48.8019 1.01367 48.7842 0.643472H49.1531C49.2044 0.643472 49.305 0.641493 49.455 0.637534C49.6029 0.633574 49.7312 0.631592 49.8417 0.631592C50.11 0.631592 50.3369 0.692965 50.5223 0.813726C50.7078 0.934487 50.7985 1.12058 50.7985 1.37002ZM50.25 1.48682C50.25 1.18393 50.0488 1.03149 49.6483 1.03149C49.5477 1.03149 49.4412 1.04139 49.3307 1.06317C49.3465 1.33042 49.3544 1.6353 49.3544 1.97382C49.3899 1.9758 49.4313 1.97778 49.4767 1.97778C49.9936 1.97778 50.25 1.81347 50.25 1.48682Z" fill="#0B2540"/>
<path d="M54.9548 1.97752C54.9548 2.41307 54.8226 2.77339 54.5563 3.06046C54.2899 3.34753 53.9624 3.49007 53.5698 3.49007C53.1969 3.49007 52.8852 3.35941 52.6327 3.0961C52.3821 2.83279 52.2559 2.4982 52.2559 2.09433C52.2559 1.65878 52.388 1.29847 52.6544 1.0114C52.9207 0.724333 53.2482 0.581787 53.6408 0.581787C54.0137 0.581787 54.3254 0.712453 54.578 0.975762C54.8285 1.23511 54.9548 1.56969 54.9548 1.97752ZM54.3688 2.0389C54.3688 1.74193 54.2939 1.50238 54.1419 1.31826C53.99 1.13414 53.8046 1.04109 53.5816 1.04109C53.3745 1.04109 53.2009 1.13414 53.0569 1.32024C52.9128 1.50634 52.8398 1.73995 52.8398 2.02504C52.8398 2.32003 52.9148 2.55958 53.0687 2.74568C53.2206 2.92979 53.4061 3.02284 53.627 3.02284C53.8342 3.02284 54.0078 2.9298 54.1518 2.7437C54.2978 2.55562 54.3688 2.32002 54.3688 2.0389Z" fill="#0B2540"/>
<path d="M57.827 3.41312H57.3042C57.3042 3.3557 57.1108 3.04883 56.7221 2.49249C56.3157 1.90645 56.0829 1.50652 56.0277 1.29072H55.9941C56.0297 1.60156 56.0474 1.88269 56.0474 2.13215C56.0474 2.48259 56.0573 2.90826 56.077 3.41312H55.5562C55.5779 2.97359 55.5877 2.49051 55.5877 1.96387C55.5877 1.44713 55.5779 1.00562 55.5562 0.643311H56.1855C56.1855 0.718545 56.3591 1.0175 56.7083 1.54216C57.0792 2.0985 57.2923 2.47665 57.3476 2.67661H57.3791C57.3456 2.35984 57.3278 2.07672 57.3278 1.82528C57.3278 1.44119 57.318 1.0472 57.2982 0.643311H57.829C57.8092 0.995724 57.7994 1.43525 57.7994 1.96387C57.7974 2.49843 57.8072 2.97953 57.827 3.41312Z" fill="#0B2540"/>
<defs>
<linearGradient id="paint0_linear" x1="5.63563" y1="0.284206" x2="5.63563" y2="22.7155" gradientUnits="userSpaceOnUse">
<stop stop-color="#257CB0"/>
<stop offset="0.2863" stop-color="#4A93B5"/>
<stop offset="0.767" stop-color="#78BCBB"/>
<stop offset="1" stop-color="#89CFBD"/>
</linearGradient>
<linearGradient id="paint1_linear" x1="-0.000808887" y1="5.85148" x2="14.2986" y2="5.85148" gradientUnits="userSpaceOnUse">
<stop stop-color="#52C1AD"/>
<stop offset="1" stop-color="#DEE89A"/>
</linearGradient>
<linearGradient id="paint2_linear" x1="7.14929" y1="11.5005" x2="7.14929" y2="22.7975" gradientUnits="userSpaceOnUse">
<stop stop-color="#EC413D"/>
<stop offset="0.1668" stop-color="#DA4452"/>
<stop offset="0.5748" stop-color="#B0487A"/>
<stop offset="0.8619" stop-color="#954A92"/>
<stop offset="1" stop-color="#8A4A9D"/>
</linearGradient>
<linearGradient id="paint3_linear" x1="15.3836" y1="8.48818" x2="15.3836" y2="14.5129" gradientUnits="userSpaceOnUse">
<stop stop-color="#F58879"/>
<stop offset="0.1194" stop-color="#F69079"/>
<stop offset="0.7128" stop-color="#FCB877"/>
<stop offset="1" stop-color="#FEC874"/>
</linearGradient>
</defs>
</svg>
