<svg width="108" height="93" viewBox="0 0 108 93" fill="none" xmlns="http://www.w3.org/2000/svg">
<circle cx="45" cy="45" r="45" fill="#FFFBE4"/>
<g clip-path="url(#clip0)">
<path d="M35.8125 83.6238C34.9495 83.6238 34.25 84.3232 34.25 85.1863V85.1875C34.25 86.0499 34.9495 86.7494 35.8125 86.7494C36.6755 86.7494 37.375 86.0493 37.375 85.1863C37.375 84.3232 36.6755 83.6238 35.8125 83.6238Z" fill="#F2994A"/>
<path d="M106.438 13H93.9379C93.0749 13 92.3754 13.6995 92.3754 14.5625V16.1934L90.2904 16.1805C90.2874 16.1805 90.2837 16.1805 90.2807 16.1805C89.4225 16.1805 88.7237 16.8733 88.7182 17.7327C88.7127 18.5957 89.4079 19.3 90.2709 19.3055L92.3754 19.3184V35.5293C88.2842 38.1062 84.5916 36.6224 80.6939 35.0526C78.1255 34.0181 75.4687 32.9487 72.8179 33.2814C71.9817 33.3864 69.7246 33.7141 67.3357 34.0608C65.0719 34.3892 62.7306 34.7291 61.9256 34.8304C61.516 34.8817 61.1077 34.7676 60.7757 34.5094C60.4369 34.2451 60.2209 33.8661 60.1684 33.4413C60.1342 33.1648 60.0432 32.4293 62.0013 31.5205C66.1462 29.5985 70.5633 27.953 74.1204 27.0063C74.9541 26.7842 75.4504 25.9285 75.2282 25.0941C75.0066 24.2604 74.1509 23.7648 73.3166 23.9863C69.5922 24.9775 64.9883 26.6908 60.6866 28.686C59.19 29.38 58.2702 30.1875 57.7282 31.0017L42.0629 35.2736C40.415 35.688 39.5696 35.0319 39.3273 34.2793C39.0893 33.5383 39.3767 32.5831 40.5553 32.118C41.7815 31.6511 44.7082 30.3627 48.4118 28.733C53.3202 26.573 59.428 23.8844 64.2986 21.9087C70.0866 19.5607 71.8505 19.2067 77.7764 19.228H77.7813C78.6419 19.228 79.3407 18.5316 79.3438 17.6704C79.3462 16.8074 78.6486 16.1055 77.7856 16.103C71.4648 16.0817 69.2718 16.5193 63.1243 19.0132C58.211 21.006 52.08 23.7043 47.1532 25.8723C43.6272 27.4244 40.5816 28.7648 39.4353 29.2006C39.4305 29.2024 39.4256 29.2042 39.4207 29.2061C36.5014 30.3511 35.6676 33.1062 36.3525 35.2357C37.0269 37.3341 39.3462 39.1877 42.8442 38.2997C42.8533 38.2972 42.8619 38.2954 42.871 38.2924L57.1722 34.3928C57.4261 35.4146 58.0108 36.3173 58.8561 36.9752C59.8479 37.7473 61.0766 38.0867 62.315 37.931C63.1499 37.826 65.4009 37.4989 67.7843 37.1534C70.0542 36.8239 72.4004 36.4833 73.2073 36.382C75.0536 36.15 77.2265 37.0247 79.5263 37.9512C81.9634 38.9326 84.7399 40.0514 87.7447 40.0508C89.2364 40.0508 90.7848 39.7725 92.3754 39.0669V39.5625C92.3754 40.4255 93.0749 41.125 93.9379 41.125H106.438C107.301 41.125 108 40.4255 108 39.5625V14.5625C108 13.6995 107.301 13 106.438 13ZM104.875 38H95.5004V17.7772V17.776C95.5004 17.776 95.5004 17.7748 95.5004 17.7742V16.125H104.875V38Z" fill="#F2994A"/>
<path d="M100.188 22.3762C101.051 22.3762 101.75 21.6768 101.75 20.8137V20.8125C101.75 19.9501 101.051 19.2506 100.188 19.2506C99.3245 19.2506 98.625 19.9507 98.625 20.8137C98.625 21.6768 99.3245 22.3762 100.188 22.3762Z" fill="#F2994A"/>
<path d="M57.0625 63.9375C60.7704 63.9375 64.0516 62.0808 66.0304 59.25H71.8031C72.2175 59.25 72.6149 59.0852 72.9078 58.7922L75.5751 56.125H77.4061L80.0734 58.7922C80.3663 59.0852 80.7637 59.25 81.1781 59.25H83.625C84.0394 59.25 84.4368 59.0852 84.7297 58.7922L89.4172 54.1047C89.7102 53.8118 89.875 53.4144 89.875 53V48.3125C89.875 47.4501 89.1755 46.75 88.3125 46.75H66.031C64.0516 43.9192 60.771 42.0625 57.0625 42.0625C51.0316 42.0625 46.125 46.9691 46.125 53C46.125 59.0309 51.0316 63.9375 57.0625 63.9375ZM86.75 49.875V52.353L82.978 56.125H81.8257L79.1578 53.4578C78.8649 53.1648 78.4675 53 78.0531 53H74.9281C74.5137 53 74.1163 53.1648 73.8234 53.4578L71.1561 56.125H67.5428C67.8389 55.1344 68 54.0858 68 53C68 51.9142 67.8389 50.8656 67.5428 49.875H86.75ZM57.0625 45.1875C61.3704 45.1875 64.875 48.6921 64.875 53C64.875 57.3079 61.3704 60.8125 57.0625 60.8125C52.7546 60.8125 49.25 57.3079 49.25 53C49.25 48.6921 52.7546 45.1875 57.0625 45.1875Z" fill="#F2994A"/>
<path d="M53.9375 54.5625C54.8005 54.5625 55.5 53.8624 55.5 52.9994C55.5 52.1364 54.8005 51.4369 53.9375 51.4369C53.0745 51.4369 52.375 52.1364 52.375 52.9994V53.0006C52.375 53.8636 53.0745 54.5625 53.9375 54.5625Z" fill="#F2994A"/>
<path d="M84.0303 19.2665H84.0309C84.8939 19.2665 85.5928 18.5664 85.5928 17.704C85.5928 16.8409 84.8927 16.1415 84.0303 16.1415C83.1672 16.1415 82.4678 16.8409 82.4678 17.704C82.4678 18.5664 83.1672 19.2665 84.0303 19.2665Z" fill="#F2994A"/>
<path d="M93.1562 67.7003C93.1471 67.7028 93.1385 67.7046 93.1294 67.7076L78.8282 71.6072C78.5743 70.5854 77.9896 69.6827 77.1443 69.0248C76.1525 68.2527 74.9238 67.9133 73.6854 68.069C72.8505 68.1739 70.5995 68.5011 68.2161 68.8466C65.9462 69.1761 63.6 69.5167 62.7931 69.618C60.9474 69.8494 58.7739 68.9753 56.4741 68.0488C52.8267 66.5803 48.4181 64.8054 43.625 66.9313V66.4381C43.625 65.5751 42.9255 64.8756 42.0625 64.8756H29.5625C28.6995 64.8756 28 65.5751 28 66.4381V91.4375C28 92.3005 28.6995 93 29.5625 93H42.0625C42.9255 93 43.625 92.3005 43.625 91.4375V89.8066L45.71 89.8194H45.7197C46.5779 89.8194 47.2767 89.1267 47.2822 88.2667C47.2877 87.4043 46.5925 86.6999 45.7295 86.6944L43.625 86.6816V70.4707C47.7162 67.8938 51.4088 69.3776 55.3065 70.9468C57.8755 71.9819 60.533 73.0513 63.1825 72.718C64.0193 72.613 66.2758 72.2859 68.6647 71.9392C70.9285 71.6102 73.2698 71.2709 74.0748 71.1696C74.4844 71.1183 74.8927 71.2318 75.2247 71.4906C75.5641 71.7549 75.7795 72.1339 75.832 72.5587C75.8662 72.8352 75.9578 73.5707 73.9991 74.4789C69.8542 76.4015 65.4377 78.047 61.8806 78.9936C61.0469 79.2158 60.5507 80.0715 60.7722 80.9053C60.9944 81.7396 61.8507 82.2346 62.6838 82.0137C66.4082 81.0225 71.0121 79.3092 75.3144 77.314C76.8104 76.62 77.7302 75.8125 78.2728 74.9983L93.9375 70.7264C95.5848 70.3114 96.4308 70.9681 96.6731 71.7207C96.9111 72.4617 96.6236 73.4169 95.4457 73.882C94.2201 74.3489 91.2922 75.6373 87.588 77.2676C82.6802 79.4276 76.5724 82.1156 71.7018 84.0913C65.9138 86.4393 64.1462 86.7945 58.224 86.772C58.2228 86.772 58.2209 86.772 58.2191 86.772C57.3585 86.772 56.6597 87.4684 56.6566 88.3296C56.6542 89.1926 57.3518 89.8945 58.2148 89.897C58.3424 89.8976 58.4681 89.8976 58.5926 89.8976C64.6266 89.8976 66.8531 89.4307 72.8761 86.9868C77.7888 84.994 83.9204 82.2956 88.8465 80.1277C92.3732 78.5756 95.4188 77.2352 96.5644 76.7994C96.5693 76.7976 96.5742 76.7958 96.5797 76.7939C99.499 75.6489 100.333 72.8938 99.6479 70.7643C98.9735 68.6665 96.6542 66.8129 93.1562 67.7003ZM31.125 89.875V68H40.5V88.2246V88.2264V89.875H31.125Z" fill="#F2994A"/>
<path d="M51.9703 86.7335H51.9691C51.1061 86.7335 50.4072 87.4336 50.4072 88.296C50.4072 89.1591 51.1073 89.8585 51.9703 89.8585C52.8334 89.8585 53.5328 89.1591 53.5328 88.296C53.5328 87.4336 52.8334 86.7335 51.9703 86.7335Z" fill="#F2994A"/>
</g>
<defs>
<clipPath id="clip0">
<rect width="80" height="80" fill="white" transform="translate(28 13)"/>
</clipPath>
</defs>
</svg>
