<svg width="100" height="100" viewBox="0 0 100 100" fill="none" xmlns="http://www.w3.org/2000/svg">
<g clip-path="url(#clip0)">
<path d="M97.6374 46.7903C96.1405 45.4094 94.1042 44.5564 92.0504 44.4496C89.7181 44.3291 87.533 45.1607 85.9057 46.7888L74.7866 57.7911C74.5669 57.4104 74.3159 57.0511 74.0343 56.7177C72.6664 55.0934 70.666 54.1992 68.4023 54.1992H52.8368C49.9018 54.1992 47.0385 53.8185 44.327 53.0685C37.2576 51.1131 30.5041 52.5413 24.795 57.2014C22.4733 59.0965 20.7796 61.158 19.7085 62.661L16.9176 59.9525C16.5506 59.5962 16.0532 59.3941 15.5413 59.3941C15.5367 59.3941 15.5329 59.3941 15.5283 59.3941C14.9981 59.3979 14.4854 59.6184 14.1176 59.9998L0.550276 74.0845C0.187116 74.4614 -0.010485 74.9679 0.000959053 75.4913C0.0124031 76.0155 0.231367 76.5129 0.610548 76.8738L23.5575 98.7236C23.9382 99.086 24.4265 99.2668 24.914 99.2668C25.4259 99.2668 25.9379 99.0677 26.3231 98.6725L39.7639 84.8831C40.1308 84.5062 40.3345 83.9912 40.3246 83.4648C40.3147 82.946 40.0973 82.4455 39.7249 82.0839L38.5546 80.9486L41.2333 80.6473C42.8538 80.4588 44.5017 80.3635 46.1329 80.3635H69.8153C73.6636 80.3635 76.932 79.5219 79.5306 77.8618C79.5519 77.848 79.5733 77.8335 79.5947 77.8191C80.5254 77.1721 81.37 76.4053 82.104 75.5409L98.0631 56.7657C100.794 53.553 100.624 49.5437 97.6374 46.7903ZM24.8629 94.5343L4.75636 75.3891L15.5878 64.1441L35.5768 83.5419L24.8629 94.5343ZM95.0655 54.2175L79.1064 72.9935C78.5998 73.5893 78.0192 74.1188 77.3791 74.5674C75.4282 75.8026 72.8838 76.4297 69.8153 76.4297H46.1321C44.3506 76.4297 42.5493 76.5343 40.7862 76.7395L34.8978 77.4002L22.5687 65.4358C23.4255 64.1655 25.001 62.1124 27.2829 60.2493C32.0269 56.3766 37.4087 55.236 43.278 56.8603C46.3312 57.7049 49.547 58.1337 52.8368 58.1337H68.4023C71.1977 58.1337 71.9439 60.5553 71.9439 61.9858C71.9439 63.031 71.6082 64.0259 71.023 64.7156C70.3883 65.4625 69.4857 65.8409 68.3405 65.8409H54.7907C53.7043 65.8409 52.8239 66.7221 52.8239 67.8085C52.8239 68.8949 53.7043 69.7754 54.7907 69.7754H68.3405C70.6278 69.7754 72.645 68.8827 74.0214 67.2623C75.1665 65.9149 75.8196 64.1434 75.8746 62.2497L88.6805 49.5781C90.5108 47.7478 93.3703 48.2071 94.9702 49.6826C95.7972 50.4455 96.9096 52.0485 95.0655 54.2175Z" fill="#951BB9"/>
<path d="M48.656 67.2844C48.4081 66.2262 47.3499 65.5708 46.2917 65.818C45.2342 66.066 44.5773 67.1242 44.8261 68.1823L44.8444 68.2625C45.0572 69.1688 45.8652 69.7807 46.7578 69.7807C46.9066 69.7807 47.0577 69.7639 47.2087 69.7288C48.2669 69.4809 48.923 68.4219 48.6751 67.3645L48.656 67.2844Z" fill="#951BB9"/>
<path d="M13.2967 42.2852H32.4648C33.5085 42.2852 34.4744 41.9464 35.2602 41.3742C36.0461 41.9464 37.012 42.2852 38.0557 42.2852H57.2245C58.2682 42.2852 59.2341 41.9464 60.0199 41.3742C60.8058 41.9464 61.7716 42.2852 62.8153 42.2852H81.9835C84.6095 42.2852 86.7457 40.1482 86.7457 37.5221V28.5835C86.7457 24.5689 84.4989 21.0816 81.1358 19.3611C82.7655 17.3958 83.7466 14.875 83.7466 12.1285C83.7466 5.87158 78.6563 0.78125 72.3994 0.78125C66.1425 0.78125 61.0522 5.87158 61.0522 12.1285C61.0522 14.875 62.0333 17.3966 63.663 19.3611C62.2096 20.1058 60.9652 21.1807 60.0199 22.4846C59.0746 21.18 57.8303 20.105 56.3761 19.3611C58.0058 17.3966 58.9869 14.875 58.9869 12.1285C58.9869 5.87158 53.8966 0.78125 47.6397 0.78125C41.3828 0.78125 36.2925 5.87158 36.2925 12.1285C36.2925 14.875 37.2744 17.3966 38.904 19.3619C37.4499 20.1058 36.2055 21.1807 35.2602 22.4854C34.315 21.1807 33.0706 20.1058 31.6164 19.3611C33.2461 17.3966 34.2272 14.875 34.2272 12.1292C34.2272 5.87158 29.1369 0.78125 22.88 0.78125C16.6239 0.78125 11.5336 5.87158 11.5336 12.1292C11.5336 14.875 12.5147 17.3966 14.1444 19.3619C10.7813 21.0823 8.53369 24.5705 8.53369 28.5843V37.5221C8.53369 40.1482 10.6707 42.2852 13.2967 42.2852ZM72.4002 4.71573C76.4872 4.71573 79.8129 8.04062 79.8129 12.1285C79.8129 16.2155 76.4872 19.5412 72.4002 19.5412C68.3123 19.5412 64.9874 16.2163 64.9874 12.1285C64.9867 8.04062 68.3123 4.71573 72.4002 4.71573ZM67.2892 22.255C68.8265 23.0339 70.5622 23.4757 72.3994 23.4757C74.2373 23.4757 75.973 23.0339 77.5096 22.255C80.5667 22.7875 82.812 25.4219 82.812 28.5835V37.5221C82.812 37.9791 82.4405 38.3507 81.9835 38.3507H62.8153C62.3591 38.3507 61.9876 37.9791 61.9876 37.5221V28.5835C61.9868 25.4227 64.2329 22.7875 67.2892 22.255ZM47.6405 4.71573C51.7275 4.71573 55.0532 8.04062 55.0532 12.1285C55.0532 16.2155 51.7275 19.5412 47.6405 19.5412C43.5526 19.5412 40.2277 16.2163 40.2277 12.1285C40.2277 8.04062 43.5526 4.71573 47.6405 4.71573ZM42.5303 22.255C44.0669 23.0339 45.8025 23.4757 47.6405 23.4757C49.4784 23.4757 51.2133 23.0339 52.7506 22.255C55.807 22.7875 58.0531 25.4219 58.0531 28.5835V37.5221C58.0531 37.9791 57.6815 38.3507 57.2245 38.3507H38.0564C37.5994 38.3507 37.2279 37.9791 37.2279 37.5221V28.5835C37.2279 25.4227 39.474 22.7875 42.5303 22.255ZM22.8808 4.71573C26.9678 4.71573 30.2935 8.04062 30.2935 12.1285C30.2935 16.2155 26.9678 19.5412 22.8808 19.5412C18.7937 19.5412 15.4681 16.2155 15.4681 12.1285C15.4681 8.04062 18.7937 4.71573 22.8808 4.71573ZM12.4682 28.5835C12.4682 25.4227 14.7143 22.7875 17.7706 22.255C19.3079 23.0339 21.0429 23.4757 22.8808 23.4757C24.7187 23.4757 26.4536 23.0339 27.9909 22.255C31.048 22.7875 33.2934 25.4219 33.2934 28.5835V37.5221C33.2934 37.9791 32.9218 38.3507 32.4648 38.3507H13.2967C12.8397 38.3507 12.4682 37.9791 12.4682 37.5221V28.5835Z" fill="#951BB9"/>
</g>
<defs>
<clipPath id="clip0">
<rect width="100" height="100" fill="white"/>
</clipPath>
</defs>
</svg>
