<svg width="32" height="33" viewBox="0 0 32 33" fill="none" xmlns="http://www.w3.org/2000/svg">
<g clip-path="url(#clip0)">
<path d="M5.63583 10.4233C5.73177 10.4791 5.83672 10.5058 5.94028 10.5058C6.14878 10.5058 6.35106 10.3984 6.46362 10.2055C6.79128 9.64403 7.17365 9.10925 7.60036 8.61535C7.81891 8.36216 7.79121 7.98013 7.53802 7.76123C7.28518 7.54234 6.90246 7.57039 6.68425 7.82358C6.20905 8.37359 5.78303 8.96967 5.41797 9.59554C5.24964 9.8844 5.34697 10.255 5.63583 10.4233Z" fill="#EB5757"/>
<path d="M11.1686 20.627C11.3235 20.627 11.4786 20.5677 11.5967 20.4496L16.0668 15.9792C16.1804 15.866 16.2445 15.7118 16.2445 15.5515V9.16535C16.2445 8.83112 15.9733 8.55992 15.6391 8.55992C15.3048 8.55992 15.0336 8.83112 15.0336 9.16535V15.3007L10.7409 19.5938C10.5043 19.83 10.5043 20.2131 10.7409 20.4496C10.859 20.5677 11.0138 20.627 11.1686 20.627Z" fill="#EB5757"/>
<path d="M29.5466 21.9064C30.4624 19.9086 30.9324 17.774 30.9324 15.5515C30.9324 7.11839 24.0718 0.258118 15.6391 0.258118C7.20632 0.258118 0.345703 7.11874 0.345703 15.5515C0.345703 23.9842 7.20632 30.8448 15.6391 30.8448C17.5589 30.8448 19.4237 30.4908 21.1918 29.8009C22.2455 31.285 23.9745 32.258 25.9293 32.258C29.1334 32.258 31.7405 29.6513 31.7405 26.4468C31.7405 24.6097 30.8815 22.9721 29.5466 21.9064ZM15.6391 29.6343C7.87375 29.6343 1.55622 23.3168 1.55622 15.5515C1.55622 7.78651 7.87375 1.46898 15.6391 1.46898C23.404 1.46898 29.7215 7.78651 29.7215 15.5515C29.7215 17.542 29.3135 19.4556 28.5159 21.2508C27.8401 20.9131 27.091 20.7046 26.2978 20.6543C26.8593 19.4826 27.2323 18.2354 27.3854 16.9265C27.7529 13.7889 26.8762 10.6963 24.9172 8.21807C22.9583 5.73955 20.1514 4.17229 17.0137 3.80515C14.3769 3.49655 11.7834 4.05903 9.51756 5.43164C9.23147 5.60482 9.14003 5.97715 9.31321 6.26289C9.48639 6.54864 9.85803 6.64077 10.1445 6.46724C12.1783 5.2356 14.5047 4.72957 16.8728 5.00735C19.6893 5.33743 22.2091 6.74398 23.9675 8.96863C25.7256 11.1936 26.5126 13.9697 26.1832 16.7859C26.019 18.1862 25.5874 19.5127 24.9051 20.7319C22.6289 21.1389 20.8115 22.8724 20.2806 25.104C20.2761 25.106 20.2716 25.1054 20.2671 25.1074C18.4494 25.9903 16.4215 26.3308 14.4046 26.0959C11.5881 25.7662 9.06833 24.3597 7.30988 22.135C5.55178 19.91 4.76486 17.1336 5.09424 14.3174C5.13338 13.9856 4.89578 13.6846 4.56363 13.6458C4.23424 13.6043 3.93083 13.8443 3.89204 14.1768C3.52456 17.3144 4.40119 20.407 6.36018 22.8852C8.31917 25.3637 11.126 26.931 14.2637 27.2981C14.7257 27.3522 15.1878 27.3792 15.6484 27.3792C17.1835 27.3788 18.6998 27.0792 20.1202 26.4967C20.1268 27.2919 20.293 28.049 20.5899 28.7379C19.0108 29.3319 17.3487 29.6343 15.6391 29.6343ZM25.9293 31.0474C23.3922 31.0474 21.3286 28.9835 21.3286 26.4468C21.3286 23.9101 23.3926 21.8461 25.9293 21.8461C28.4657 21.8461 30.5296 23.9101 30.5296 26.4468C30.5296 28.9835 28.466 31.0474 25.9293 31.0474Z" fill="#EB5757"/>
<path d="M29.2823 27.4848L28.8767 27.0114C28.5421 26.6214 28.3578 26.1233 28.3578 25.6093V25.2799C28.3578 24.0195 27.4109 22.9413 26.2018 22.8256C25.5305 22.7643 24.8596 22.9843 24.3626 23.4356C23.8656 23.8876 23.5805 24.5318 23.5805 25.2034V25.7458C23.5805 26.1978 23.442 26.6307 23.1795 26.9982L22.8019 27.5267C22.67 27.7113 22.6523 27.9538 22.7559 28.1554C22.8594 28.3569 23.0676 28.4837 23.2941 28.4837H25.3622V28.8678C25.3622 29.2021 25.6334 29.4729 25.9676 29.4729C26.3019 29.4729 26.5727 29.2021 26.5727 28.8678V28.4837H28.8226C29.0589 28.4837 29.2736 28.3462 29.3727 28.1315C29.4714 27.9167 29.436 27.6646 29.2823 27.4848ZM24.4253 27.2735C24.666 26.8028 24.7914 26.2826 24.7914 25.7461V25.2037C24.7914 24.8723 24.932 24.5546 25.1772 24.3312C25.4263 24.1054 25.7473 23.9977 26.0871 24.0313C26.6818 24.0878 27.1477 24.6367 27.1477 25.2803V25.6097C27.1477 26.196 27.3015 26.7696 27.5879 27.2735H24.4253Z" fill="#EB5757"/>
</g>
<defs>
<clipPath id="clip0">
<rect width="32" height="32" fill="white" transform="translate(0 0.258118)"/>
</clipPath>
</defs>
</svg>
