<svg width="24" height="25" viewBox="0 0 24 25" fill="none" xmlns="http://www.w3.org/2000/svg">
<path d="M18 8.25812C19.6569 8.25812 21 6.91497 21 5.25812C21 3.60126 19.6569 2.25812 18 2.25812C16.3431 2.25812 15 3.60126 15 5.25812C15 6.91497 16.3431 8.25812 18 8.25812Z" stroke="#2D9CDB" stroke-width="2" stroke-linecap="round" stroke-linejoin="round"/>
<path d="M6 15.2581C7.65685 15.2581 9 13.915 9 12.2581C9 10.6013 7.65685 9.25812 6 9.25812C4.34315 9.25812 3 10.6013 3 12.2581C3 13.915 4.34315 15.2581 6 15.2581Z" stroke="#2D9CDB" stroke-width="2" stroke-linecap="round" stroke-linejoin="round"/>
<path d="M18 22.2581C19.6569 22.2581 21 20.915 21 19.2581C21 17.6013 19.6569 16.2581 18 16.2581C16.3431 16.2581 15 17.6013 15 19.2581C15 20.915 16.3431 22.2581 18 22.2581Z" stroke="#2D9CDB" stroke-width="2" stroke-linecap="round" stroke-linejoin="round"/>
<path d="M8.58984 13.7681L15.4198 17.7481" stroke="#2D9CDB" stroke-width="2" stroke-linecap="round" stroke-linejoin="round"/>
<path d="M15.4098 6.76811L8.58984 10.7481" stroke="#2D9CDB" stroke-width="2" stroke-linecap="round" stroke-linejoin="round"/>
</svg>
