<svg width="26" height="27" viewBox="0 0 26 27" fill="none" xmlns="http://www.w3.org/2000/svg">
<g clip-path="url(#clip0)">
<path d="M17.8751 21.9248C17.7321 21.9248 17.5934 21.8674 17.4916 21.7666L15.3249 19.6C15.1137 19.3887 15.1137 19.0453 15.3249 18.8341C15.5362 18.6228 15.8796 18.6228 16.0909 18.8341L17.848 20.5912L21.2584 16.6934C21.4555 16.467 21.7979 16.4453 22.0232 16.6425C22.2485 16.8397 22.2713 17.182 22.0741 17.4073L18.2824 21.7406C18.1839 21.8533 18.0419 21.9205 17.8924 21.9248C17.887 21.9248 17.8805 21.9248 17.8751 21.9248Z" fill="#27AE60"/>
<path d="M18.9582 26.2582C15.0755 26.2582 11.9165 23.0992 11.9165 19.2165C11.9165 15.3338 15.0755 12.1748 18.9582 12.1748C22.8408 12.1748 25.9998 15.3338 25.9998 19.2165C25.9998 23.0992 22.8408 26.2582 18.9582 26.2582ZM18.9582 13.2581C15.6724 13.2581 12.9998 15.9307 12.9998 19.2165C12.9998 22.5022 15.6724 25.1748 18.9582 25.1748C22.2439 25.1748 24.9165 22.5022 24.9165 19.2165C24.9165 15.9307 22.2439 13.2581 18.9582 13.2581Z" fill="#27AE60"/>
<path d="M4.47327 21.9248C4.36386 21.9248 4.25444 21.8912 4.16127 21.8262C3.99227 21.7071 3.90561 21.5012 3.93811 21.2965L5.10919 14.1194L0.154024 9.03966C0.0121069 8.8945 -0.0366431 8.68216 0.0283569 8.48933C0.0933568 8.2965 0.259107 8.15675 0.459523 8.12641L7.28561 7.08316L10.3428 0.569081C10.5215 0.187748 11.1444 0.187748 11.3232 0.569081L14.3814 7.08316L21.2075 8.12641C21.4079 8.15675 21.5748 8.29758 21.6387 8.48933C21.7026 8.68108 21.6549 8.8945 21.513 9.03966L20.5954 9.98C20.3864 10.1956 20.0429 10.1988 19.8295 9.98975C19.615 9.78066 19.6107 9.43833 19.8198 9.22383L20.0007 9.03858L13.9319 8.11125C13.7531 8.08416 13.6004 7.96933 13.5234 7.80575L10.8335 2.07491L8.14361 7.80575C8.06669 7.96933 7.91394 8.08416 7.73519 8.11125L1.66636 9.0375L6.07552 13.5572C6.19577 13.6807 6.24994 13.8529 6.22286 14.023L5.18719 20.3692L8.97994 18.2729C9.24319 18.1277 9.57036 18.2231 9.71552 18.4852C9.86069 18.7474 9.76536 19.0767 9.50319 19.2208L4.73436 21.8566C4.65311 21.9021 4.56319 21.9248 4.47327 21.9248Z" fill="#27AE60"/>
</g>
<defs>
<clipPath id="clip0">
<rect width="26" height="26" fill="white" transform="translate(0 0.258148)"/>
</clipPath>
</defs>
</svg>
