<svg width="111" height="111" viewBox="0 0 111 111" fill="none" xmlns="http://www.w3.org/2000/svg">
<g clip-path="url(#clip0)">
<path d="M75.8498 76.7751C75.8498 77.7968 76.6781 78.6251 77.6998 78.6251C78.7215 78.6251 79.5498 77.7968 79.5498 76.7751C79.3712 72.6281 76.2598 69.1987 72.1498 68.6184V68.4501C72.1498 67.4284 71.3215 66.6001 70.2998 66.6001C69.2781 66.6001 68.4498 67.4284 68.4498 68.4501V68.6184C64.2523 69.0286 61.0514 72.5576 61.0514 76.7751C61.0514 80.9926 64.2523 84.5216 68.4498 84.9317V94.0652C66.391 93.5981 64.8852 91.8318 64.7498 89.7251C64.7498 88.7034 63.9215 87.8751 62.8998 87.8751C61.8781 87.8751 61.0498 88.7034 61.0498 89.7251C61.2284 93.872 64.3398 97.3015 68.4498 97.8817V98.0501C68.4498 99.0718 69.2781 99.9001 70.2998 99.9001C71.3215 99.9001 72.1498 99.0718 72.1498 98.0501V97.8817C76.3473 97.4716 79.5483 93.9426 79.5483 89.7251C79.5483 85.5075 76.3473 81.9786 72.1498 81.5684V72.435C74.2086 72.902 75.7144 74.6684 75.8498 76.7751ZM64.7498 76.7751C64.8852 74.6684 66.391 72.902 68.4498 72.435V81.1152C66.391 80.6481 64.8852 78.8818 64.7498 76.7751ZM75.8498 89.7251C75.7144 91.8318 74.2086 93.5981 72.1498 94.0652V85.385C74.2086 85.852 75.7144 87.6184 75.8498 89.7251Z" fill="#951BB9"/>
<path d="M16.6498 28.675C15.6281 28.675 14.7998 29.5033 14.7998 30.525V99.9C14.8059 106.028 19.772 110.994 25.8998 111H85.0998C91.2276 110.994 96.1937 106.028 96.1998 99.9V27.75C96.1997 27.2594 96.0047 26.7889 95.6578 26.4421L69.7578 0.54205C69.4109 0.195084 68.9404 0.000104784 68.4498 0H25.8998C19.772 0.00611865 14.8059 4.97218 14.7998 11.1V22.2C14.7998 23.2217 15.6281 24.05 16.6498 24.05C17.6715 24.05 18.4998 23.2217 18.4998 22.2V11.1C18.4998 7.01309 21.8129 3.7 25.8998 3.7H66.5998V18.5C66.6059 24.6278 71.572 29.5939 77.6998 29.6H92.4998V99.9C92.4998 103.987 89.1867 107.3 85.0998 107.3H25.8998C21.8129 107.3 18.4998 103.987 18.4998 99.9V30.525C18.4998 29.5033 17.6715 28.675 16.6498 28.675ZM70.2998 18.5V6.3159L89.8839 25.9H77.6998C73.6129 25.9 70.2998 22.5869 70.2998 18.5Z" fill="#951BB9"/>
<path d="M27.7495 98.0499C27.7495 99.0717 28.5778 99.8999 29.5995 99.8999H36.9995C38.0212 99.8999 38.8495 99.0717 38.8495 98.0499C38.8495 97.0282 38.0212 96.1999 36.9995 96.1999H31.4495V90.6499C31.4495 89.6282 30.6212 88.7999 29.5995 88.7999C28.5778 88.7999 27.7495 89.6282 27.7495 90.6499V98.0499Z" fill="#951BB9"/>
<path d="M29.5995 40.7H79.5495C80.5712 40.7 81.3995 39.8717 81.3995 38.85C81.3995 37.8283 80.5712 37 79.5495 37H29.5995C28.5778 37 27.7495 37.8283 27.7495 38.85C27.7495 39.8717 28.5778 40.7 29.5995 40.7Z" fill="#951BB9"/>
<path d="M29.5995 51.8H79.5495C80.5712 51.8 81.3995 50.9717 81.3995 49.95C81.3995 48.9283 80.5712 48.1 79.5495 48.1H29.5995C28.5778 48.1 27.7495 48.9283 27.7495 49.95C27.7495 50.9717 28.5778 51.8 29.5995 51.8Z" fill="#951BB9"/>
<path d="M29.5995 62.9001H79.5495C80.5712 62.9001 81.3995 62.0718 81.3995 61.0501C81.3995 60.0283 80.5712 59.2001 79.5495 59.2001H29.5995C28.5778 59.2001 27.7495 60.0283 27.7495 61.0501C27.7495 62.0718 28.5778 62.9001 29.5995 62.9001Z" fill="#951BB9"/>
<path d="M29.5995 74H55.4995C56.5212 74 57.3495 73.1718 57.3495 72.15C57.3495 71.1283 56.5212 70.3 55.4995 70.3H29.5995C28.5778 70.3 27.7495 71.1283 27.7495 72.15C27.7495 73.1718 28.5778 74 29.5995 74Z" fill="#951BB9"/>
</g>
<defs>
<clipPath id="clip0">
<rect width="111" height="111" fill="white"/>
</clipPath>
</defs>
</svg>
