<svg width="34" height="35" viewBox="0 0 34 35" fill="none" xmlns="http://www.w3.org/2000/svg">
<g clip-path="url(#clip0)">
<path d="M31.0117 10.785H28.9577C28.285 9.18484 27.2829 7.70929 26.0137 6.47898C24.0187 4.54517 21.4359 3.28511 18.741 2.9309C14.2755 2.34393 9.89872 4.05423 7.03355 7.50589C6.21131 8.49647 5.5422 9.60499 5.04827 10.785H2.98828C1.34054 10.785 0 12.1256 0 13.7733V17.7577C0 19.4054 1.34054 20.746 2.98828 20.746H7.06894L6.64222 19.4404C5.3987 15.6358 6.10008 11.7496 8.56647 8.7783C10.9918 5.85643 14.6984 4.4089 18.4814 4.90608C23.2198 5.52891 27.0566 9.25018 27.8115 13.9556C28.3266 17.1664 27.4279 20.4109 25.3456 22.8573C23.2585 25.3093 20.2223 26.7181 17.0153 26.7225C15.3592 26.7248 14.0118 28.0654 14.0118 29.7108C14.0118 31.3586 15.3523 32.6991 17.0001 32.6991C18.6478 32.6991 19.9883 31.3586 19.9883 29.7108V28.3651C22.6419 27.7349 25.0542 26.2733 26.8627 24.1485C27.7411 23.1165 28.4406 21.9762 28.9535 20.7459H31.0117C32.6595 20.7459 34 19.4054 34 17.7576V13.7732C34 12.1256 32.6595 10.785 31.0117 10.785ZM4.38713 18.7538H2.98828C2.43904 18.7538 1.99219 18.3069 1.99219 17.7577V13.7733C1.99219 13.2241 2.43904 12.7772 2.98828 12.7772H4.39902C4.36355 12.9265 4.33075 13.0766 4.30073 13.2271C3.93716 15.0487 3.96671 16.9024 4.38713 18.7538ZM17.9961 29.7108C17.9961 30.2601 17.5492 30.7069 17 30.7069C16.4508 30.7069 16.0039 30.2601 16.0039 29.7108C16.0039 29.1623 16.4589 28.7155 17.018 28.7147C17.3456 28.7143 17.6721 28.7014 17.9961 28.6765V29.7108ZM32.0078 17.7577C32.0078 18.3069 31.561 18.7538 31.0117 18.7538H29.6003C29.9958 17.0903 30.0565 15.3732 29.7785 13.64C29.7321 13.3506 29.6744 13.0628 29.6072 12.7772H31.0117C31.561 12.7772 32.0078 13.2241 32.0078 13.7733V17.7577Z" fill="#FDBE00"/>
<path d="M12.0195 14.7694H14.0117V16.7616H12.0195V14.7694Z" fill="#FDBE00"/>
<path d="M16.0039 14.7694H17.9961V16.7616H16.0039V14.7694Z" fill="#FDBE00"/>
<path d="M19.9883 14.7694H21.9805V16.7616H19.9883V14.7694Z" fill="#FDBE00"/>
<path d="M8.03516 22.7381V24.7303H17C21.9432 24.7303 25.9648 20.7087 25.9648 15.7655C25.9648 10.8223 21.9432 6.80063 17 6.80063C12.0568 6.80063 8.03516 10.8223 8.03516 15.7655C8.03516 17.7802 8.71177 19.7281 9.94958 21.303C9.70946 22.1426 8.94273 22.7381 8.03516 22.7381ZM17 8.79282C20.8447 8.79282 23.9727 11.9207 23.9727 15.7655C23.9727 19.6102 20.8447 22.7381 17 22.7381H11.4867C11.7722 22.2442 11.9499 21.6912 12.0028 21.113L12.0419 20.6866L11.7592 20.3648C10.6425 19.0933 10.0273 17.4599 10.0273 15.7655C10.0273 11.9207 13.1553 8.79282 17 8.79282Z" fill="#FDBE00"/>
</g>
<defs>
<clipPath id="clip0">
<rect width="34" height="34" fill="white" transform="translate(0 0.758148)"/>
</clipPath>
</defs>
</svg>
