<svg width="100" height="100" viewBox="0 0 100 100" fill="none" xmlns="http://www.w3.org/2000/svg">
<path d="M14.6927 39.4878H60.3075C61.4345 39.4878 62.3567 38.5656 62.3567 37.4386C62.3567 36.3115 61.4345 35.3894 60.3075 35.3894H14.6927C13.5657 35.3894 12.6436 36.3115 12.6436 37.4386C12.6436 38.5656 13.5657 39.4878 14.6927 39.4878Z" fill="#EB5757"/>
<path d="M37.5001 60.3894H14.6927C13.5657 60.3894 12.6436 61.3115 12.6436 62.4386C12.6436 63.5656 13.5657 64.4878 14.6927 64.4878H37.5001C38.6272 64.4878 39.5493 63.5656 39.5493 62.4386C39.5493 61.3115 38.6272 60.3894 37.5001 60.3894Z" fill="#EB5757"/>
<path d="M37.5001 72.8894H14.6927C13.5657 72.8894 12.6436 73.8115 12.6436 74.9386C12.6436 76.0656 13.5657 76.9878 14.6927 76.9878H37.5001C38.6272 76.9878 39.5493 76.0656 39.5493 74.9386C39.5493 73.8115 38.6272 72.8894 37.5001 72.8894Z" fill="#EB5757"/>
<path d="M14.6927 51.9878H60.3075C61.4345 51.9878 62.3567 51.0656 62.3567 49.9386C62.3567 48.8115 61.4345 47.8894 60.3075 47.8894H14.6927C13.5657 47.8894 12.6436 48.8115 12.6436 49.9386C12.6436 51.0656 13.5657 51.9878 14.6927 51.9878Z" fill="#EB5757"/>
<path d="M99.4057 45.3689L90.041 36.0041C89.6516 35.6148 89.1393 35.4098 88.5861 35.4098C88.0328 35.4098 87.5205 35.6352 87.1311 36.0041L81.25 41.8853V24.9385C81.25 24.8771 81.25 24.8156 81.25 24.7541C81.25 24.7336 81.25 24.7131 81.25 24.6721C81.25 24.6312 81.25 24.5902 81.2295 24.5697C81.2295 24.5492 81.209 24.5082 81.209 24.4877C81.209 24.4672 81.1885 24.4262 81.1885 24.4057C81.1885 24.3648 81.168 24.3443 81.168 24.3033C81.168 24.2828 81.1475 24.2418 81.1475 24.2213C81.127 24.1803 81.127 24.1598 81.1066 24.1393C81.0861 24.1188 81.0861 24.0779 81.0656 24.0574C81.0451 24.0369 81.0451 23.9959 81.0246 23.9754C81.0041 23.9549 80.9836 23.9139 80.9631 23.8934C80.9426 23.873 80.9426 23.8525 80.9221 23.832C80.8811 23.791 80.8606 23.7295 80.8197 23.6885L62.0902 0.737712C62.0492 0.676237 61.9877 0.635243 61.9467 0.573768C61.9262 0.553276 61.9262 0.553286 61.9057 0.532794C61.8648 0.491811 61.8238 0.471319 61.7828 0.430335C61.7623 0.409844 61.7418 0.409841 61.7213 0.389349C61.6803 0.368857 61.6393 0.327869 61.5984 0.307377C61.5779 0.286885 61.5574 0.286883 61.5369 0.266391C61.4959 0.245899 61.4549 0.22541 61.4139 0.204918C61.3934 0.184426 61.3729 0.184431 61.3525 0.184431C61.3115 0.163939 61.25 0.14345 61.209 0.122958C61.1885 0.122958 61.168 0.102459 61.1475 0.102459C61.1066 0.0819672 61.0451 0.0819647 61.0041 0.0614729C60.9836 0.0614729 60.9631 0.0409861 60.9426 0.0409861C60.8811 0.0204943 60.8402 0.0204993 60.7787 0.0204993C60.7582 0.0204993 60.7377 0.0204993 60.7172 0.0204993C60.6352 0.0204993 60.5738 0 60.4918 0H2.04918C0.922131 0 0 0.922131 0 2.04918V97.9508C0 99.0779 0.922131 100 2.04918 100H79.2008C80.3279 100 81.25 99.0779 81.25 97.9508V66.373L99.3852 48.3197C99.7746 47.8893 100 47.3566 100 46.8238C100 46.2705 99.7746 45.7582 99.4057 45.3689ZM62.5205 7.72541L74.8975 22.8893H62.5205V7.72541ZM77.2336 95.8402H77.1516H4.09836V4.03689H58.4221V24.9385C58.4221 26.0656 59.3443 26.9877 60.4713 26.9877H77.1516V45.9631L56.1885 66.9262C56.1475 66.9672 56.127 66.9877 56.1066 67.0287C56.0861 67.0492 56.0656 67.0697 56.0656 67.0902C55.9836 67.2131 55.9016 67.3156 55.8402 67.4385V67.459C55.8197 67.5205 55.7787 67.582 55.7582 67.6434L50.1434 82.4795C49.8566 83.2377 50.041 84.0779 50.6148 84.6516C51.0041 85.041 51.5369 85.2459 52.0697 85.2459C52.3156 85.2459 52.5615 85.2049 52.7869 85.123L67.7869 79.5082H67.8074C67.8484 79.4877 67.8893 79.4672 67.9508 79.4467C67.9713 79.4467 67.9918 79.4262 68.0123 79.4262C68.0533 79.4057 68.0943 79.3852 68.1352 79.3443C68.1557 79.3238 68.1762 79.3238 68.1967 79.3033C68.2377 79.2828 68.2787 79.2418 68.3197 79.2213C68.3402 79.2008 68.3607 79.2008 68.3811 79.1803C68.4221 79.1598 68.4426 79.1189 68.4836 79.0984C68.5041 79.0779 68.5246 79.0574 68.5451 79.0574L77.2336 70.4098V95.8402ZM58.4631 72.0287L63.2992 76.7828L55.5533 79.6926L58.4631 72.0287ZM67.0082 74.6926L60.5533 68.3402L88.5656 40.3279L95.041 46.8033L67.0082 74.6926Z" fill="#EB5757"/>
</svg>
