<svg width="104" height="97" viewBox="0 0 104 97" fill="none" xmlns="http://www.w3.org/2000/svg">
<circle cx="59" cy="45" r="45" fill="#E3F8FF"/>
<path d="M76.9 55.3583C75.8667 55.2083 75 56.0083 75 57.0083C75 61.9083 74 66.7583 72.0333 71.2583C71.9166 71.225 71.7833 71.1916 71.6666 71.175H57.75C57.9167 70.6583 58.1167 70.1417 58.2667 69.6083C58.5167 68.725 58 67.8083 57.1167 67.5416C56.2334 67.2916 55.3167 67.8083 55.05 68.6916C54.8167 69.5249 54.5167 70.3583 54.2167 71.1749H22.35C19.2167 61.9916 19.2167 52.0249 22.35 42.8416H39.95C40.7833 42.8416 41.5333 42.2416 41.65 41.4249C41.8 40.3916 41 39.5081 40 39.5081H23.6333C26.7166 32.4081 31.6833 26.2749 37.9833 21.7749C39.5 22.8249 40.95 23.9581 42.3166 25.1916C42.6166 25.4749 43.0166 25.6249 43.4333 25.6249C43.4666 25.6249 43.5 25.6081 43.5333 25.6081C44.0166 25.6414 44.5 25.4414 44.8333 25.0914C45.45 24.4081 45.4 23.3581 44.7166 22.7414C44.1998 22.2747 43.6498 21.8581 43.1166 21.4081C44.3166 21.5414 45.5166 21.7414 46.6998 21.9914C47.5998 22.1747 48.4831 21.5747 48.6498 20.6747C48.8166 19.7914 48.2666 18.9414 47.3998 18.7414C44.6998 18.1414 41.9331 17.8414 39.1666 17.8414C38.6998 17.8414 38.2333 17.8581 37.6498 17.8747C37.6331 17.8747 37.5998 17.8914 37.5831 17.8914C16.4833 18.7917 0 35.9417 0 57.0083C0 78.1083 16.5667 95.2917 37.7167 96.125C37.7334 96.125 37.7334 96.125 37.75 96.125C37.8833 96.125 38.0167 96.125 38.1667 96.1417C38.2167 96.1417 38.2834 96.1585 38.3334 96.1585C38.3834 96.1585 38.4334 96.1417 38.4667 96.1417C38.7 96.1417 38.9334 96.1585 39.1667 96.1585C60.75 96.1585 78.3 78.6252 78.3334 57.0585C78.3333 56.225 77.7333 55.475 76.9 55.3583ZM32.5 21.8583C27 26.675 22.7167 32.725 20.0167 39.5083H7.91672C13.0833 30.275 22.1 23.8083 32.5 21.8583ZM6.33328 71.2583C2.38328 62.1583 2.38328 51.8583 6.33328 42.775C6.45 42.8083 6.58328 42.8417 6.7 42.8417H18.8667C15.9834 52.075 15.9834 61.9417 18.8667 71.175H6.7C6.56672 71.1917 6.45 71.2083 6.33328 71.2583ZM7.91672 74.5083H20.0334C22.7334 81.2916 27.0167 87.3416 32.5167 92.1583C22.1 90.2083 13.1 83.7417 7.91672 74.5083ZM38.0667 92.2917C31.7167 87.7917 26.7334 81.6417 23.6334 74.5085H52.9C49.6833 81.675 44.55 87.825 38.0667 92.2917ZM43.15 92.6083C49.0333 87.775 53.6333 81.5416 56.5333 74.5083H70.4166C64.9 84.3417 54.8667 91.3083 43.15 92.6083Z" fill="#27B1FF"/>
<path d="M56.7999 56.2082C59.0667 59.425 61.65 63.075 61.6667 64.4915V64.5248C61.6834 65.4415 62.4167 66.1748 63.3334 66.1748H63.3501C64.2668 66.1748 65.0001 65.4248 65.0001 64.5248V64.4748C65.0001 63.0581 67.6001 59.3748 69.9001 56.1081C74.4 49.725 80 41.775 80 34.3917C80 25.275 72.5167 17.8417 63.3332 17.8417C54.15 17.8417 46.6665 25.2584 46.6665 34.3917C46.6667 41.8417 52.2832 49.8082 56.7999 56.2082ZM63.3332 21.175C70.6832 21.175 76.6665 27.1082 76.6665 34.3917C76.6665 40.7084 71.3998 48.1917 67.1832 54.1917C65.6332 56.375 64.3 58.2917 63.3332 59.9417C62.3665 58.3084 61.05 56.4417 59.5332 54.2917C55.2832 48.275 50.0165 40.7917 50.0165 34.3917C49.9999 27.1082 55.9832 21.175 63.3332 21.175Z" fill="#27B1FF"/>
<path d="M63.3333 42.8418C67.9333 42.8418 71.6666 39.1085 71.6666 34.5085C71.6666 29.9085 67.9333 26.175 63.3333 26.175C58.7333 26.175 55 29.9083 55 34.5083C55 39.1083 58.7333 42.8418 63.3333 42.8418ZM63.3333 29.5083C66.1 29.5083 68.3333 31.7416 68.3333 34.5083C68.3333 37.275 66.1 39.5083 63.3333 39.5083C60.5666 39.5083 58.3333 37.275 58.3333 34.5083C58.3333 31.7416 60.5667 29.5083 63.3333 29.5083Z" fill="#27B1FF"/>
</svg>
