<svg width="90" height="24" viewBox="0 0 90 24" fill="none" xmlns="http://www.w3.org/2000/svg">
<path d="M20.9462 17.1317C20.4002 18.3468 20.139 18.8889 19.4346 19.963C18.4532 21.4621 17.0682 23.3304 15.3548 23.3463C13.8312 23.3602 13.4395 22.3515 11.3719 22.3635C9.30423 22.3754 8.8729 23.3641 7.34939 23.3502C5.63593 23.3344 4.32413 21.6487 3.34275 20.1477C0.596468 15.9543 0.311551 11.0323 2.00324 8.41744C3.20622 6.55704 5.10369 5.46899 6.88838 5.46899C8.70472 5.46899 9.84835 6.46968 11.3501 6.46968C12.8083 6.46968 13.6967 5.46899 15.796 5.46899C17.3848 5.46899 19.0666 6.33665 20.2656 7.83768C16.3381 9.99589 16.9772 15.6267 20.9462 17.1317Z" fill="#0B2540"/>
<path d="M14.2048 3.79377C14.9685 2.81094 15.5483 1.42108 15.3366 0.00341797C14.09 0.0887953 12.6318 0.884988 11.7791 1.92342C11.0054 2.86654 10.3683 4.26236 10.6156 5.62045C11.9789 5.66215 13.3876 4.8461 14.2048 3.79377Z" fill="#0B2540"/>
<path d="M29.3094 8.35376L25.376 19.9688H27.1765L28.3498 16.4029H32.1566L33.3635 19.9688H35.2135L31.2643 8.35376H29.3094ZM30.2413 10.2638C30.3739 10.782 30.5183 11.3201 30.7023 11.9018L31.7629 14.9813H28.7475L29.7922 11.882C29.9505 11.3796 30.1008 10.8376 30.2413 10.2638Z" fill="#0B2540"/>
<path d="M40.3054 11.366C39.1123 11.366 38.1567 11.8286 37.5215 12.7062L37.4523 11.5506H35.8496L35.8595 11.6975C35.907 12.4183 35.9268 13.2105 35.9268 14.3462V23.2989H37.6778V19.1214C38.2219 19.7746 39.0886 20.1538 40.0719 20.1538C41.0949 20.1538 42.0386 19.7508 42.7252 19.0221C43.4929 18.208 43.8965 17.0386 43.8965 15.6408C43.8965 14.4058 43.5444 13.3376 42.8795 12.5533C42.2266 11.7869 41.3125 11.366 40.3054 11.366ZM39.8681 12.8194C41.4292 12.8194 42.1277 14.2708 42.1277 15.7083C42.1277 17.5627 41.2353 18.7163 39.8009 18.7163C38.8215 18.7163 37.9746 18.0472 37.7372 17.0862C37.6956 16.9373 37.6759 16.7407 37.6759 16.5164V15.1027C37.6759 14.9756 37.7036 14.8188 37.7313 14.6699C37.7392 14.6222 37.7491 14.5746 37.757 14.5269C38.0181 13.5222 38.8848 12.8194 39.8681 12.8194Z" fill="#0B2540"/>
<path d="M49.3249 11.366C48.1318 11.366 47.1761 11.8286 46.541 12.7062L46.4718 11.5506H44.8711L44.879 11.6975C44.9265 12.4183 44.9463 13.2105 44.9463 14.3462V23.2989H46.6973V19.1214C47.2414 19.7746 48.1081 20.1538 49.0914 20.1538C50.1143 20.1538 51.0581 19.7508 51.7467 19.0221C52.5124 18.208 52.918 17.0386 52.918 15.6408C52.918 14.4058 52.5658 13.3376 51.899 12.5533C51.2461 11.7869 50.332 11.366 49.3249 11.366ZM48.8876 12.8194C50.4487 12.8194 51.1472 14.2708 51.1472 15.7083C51.1472 17.5627 50.2548 18.7163 48.8203 18.7163C47.8409 18.7163 46.9921 18.0472 46.7567 17.0862C46.7151 16.9373 46.6953 16.7407 46.6953 16.5164V15.1027C46.6953 14.9736 46.723 14.8188 46.7507 14.6679C46.7587 14.6202 46.7686 14.5726 46.7765 14.5269C47.0376 13.5222 47.9043 12.8194 48.8876 12.8194Z" fill="#0B2540"/>
<path d="M60.6225 13.2761C58.9882 12.6407 58.4639 12.1424 58.4639 11.2191C58.4639 10.4428 59.0792 9.65855 60.4543 9.65855C61.588 9.65855 62.3142 10.0537 62.5101 10.1768L62.6585 10.2681L63.1531 8.80082L63.0562 8.74324C62.7633 8.5705 61.9264 8.16943 60.5058 8.16943C58.2719 8.16943 56.7128 9.49176 56.7128 11.3859C56.7128 12.9127 57.6902 13.9809 59.7875 14.7453C61.2735 15.3033 61.8275 15.8731 61.8275 16.8519C61.8275 17.9598 60.9747 18.6468 59.6015 18.6468C58.7072 18.6468 57.7872 18.3847 57.0769 17.9281L56.9245 17.8308L56.4536 19.3318L56.5407 19.3894C57.2015 19.8322 58.4461 20.1538 59.5006 20.1538C62.5101 20.1538 63.5785 18.3113 63.5785 16.7348C63.5765 15.1107 62.7198 14.106 60.6225 13.2761Z" fill="#0B2540"/>
<path d="M66.7292 9.54932L65.0118 10.0914V11.5507H63.7534V12.9545H65.0118V17.2571C65.0118 18.2975 65.2097 19.0262 65.6172 19.4868C66.009 19.9177 66.6105 20.154 67.3109 20.154C67.9738 20.154 68.4427 20.0229 68.6643 19.9435L68.7632 19.9077L68.6801 18.5L68.5119 18.5516C68.2903 18.6191 68.0628 18.6469 67.6968 18.6469C67.0181 18.6469 66.7292 18.2161 66.7292 17.2055V12.9525H68.8424V11.5487H66.7292V9.54932Z" fill="#0B2540"/>
<path d="M73.182 11.366C70.7325 11.366 69.021 13.2006 69.021 15.8274C69.021 18.3748 70.6771 20.1558 73.0494 20.1558H73.0652C75.0695 20.1558 77.2262 18.754 77.2262 15.6765C77.2262 14.4256 76.8404 13.3515 76.1103 12.5672C75.3742 11.7809 74.3612 11.366 73.182 11.366ZM73.1305 12.7519C74.7055 12.7519 75.4237 14.2926 75.4237 15.7261C75.4237 17.4873 74.4443 18.766 73.0969 18.766H73.0791C71.7514 18.766 70.7859 17.5091 70.7859 15.7758C70.7879 14.2727 71.512 12.7519 73.1305 12.7519Z" fill="#0B2540"/>
<path d="M82.5873 11.4474L82.4825 11.4216C82.3281 11.3838 82.2015 11.366 82.0472 11.366C81.1311 11.366 80.308 11.908 79.8509 12.7816L79.7995 11.5526H78.2285L78.2384 11.6995C78.2859 12.3945 78.3037 13.1768 78.3037 14.2311L78.2879 19.9732H80.0389V15.4939C80.0389 15.2496 80.0547 15.0193 80.0864 14.8128C80.2843 13.7367 81.0064 13.0417 81.9285 13.0417C82.1085 13.0417 82.249 13.0556 82.3994 13.0715L82.5873 13.0914V11.4474Z" fill="#0B2540"/>
<path d="M86.5256 11.3477C84.1948 11.3477 82.5664 13.216 82.5664 15.8945C82.5664 18.4717 84.1869 20.1375 86.6937 20.1375C88.0115 20.1375 88.9295 19.8476 89.4657 19.6034L89.5706 19.5557L89.2342 18.2453L89.0878 18.3049C88.611 18.4995 87.9759 18.698 86.8936 18.698C86.1318 18.698 84.3788 18.4458 84.27 16.1506L89.9228 16.1685L89.9465 16.0553C89.9821 15.8766 90 15.6364 90 15.3226C90 13.49 89.0918 11.3477 86.5256 11.3477ZM86.4088 12.6859C86.943 12.6859 87.3744 12.8507 87.6949 13.1783C88.1994 13.6925 88.2865 14.451 88.2984 14.8144H84.3036C84.4678 13.7978 85.099 12.6859 86.4088 12.6859Z" fill="#0B2540"/>
<path d="M25.377 0.41957C25.8657 0.35405 26.4335 0.306396 27.0568 0.306396C28.1866 0.306396 28.9899 0.534728 29.5221 0.983447C30.0722 1.43217 30.3887 2.07546 30.3887 2.96496C30.3887 3.86239 30.0722 4.59504 29.5122 5.10133C28.9345 5.61557 27.9946 5.89354 26.8115 5.89354C26.2416 5.89354 25.7826 5.87766 25.375 5.82802V0.41957H25.377ZM26.1724 5.28797C26.3702 5.31974 26.6591 5.31974 26.9678 5.31974C28.6476 5.32768 29.5597 4.47194 29.5597 2.9868C29.5696 1.67439 28.7564 0.866304 27.0944 0.866304C26.6888 0.866304 26.3801 0.900056 26.1724 0.939766V5.28797Z" fill="#0B2540"/>
<path d="M33.2052 5.93275C32.0299 5.93275 31.1099 5.15047 31.1099 3.9016C31.1099 2.57927 32.0754 1.80493 33.2764 1.80493C34.5328 1.80493 35.3816 2.62891 35.3816 3.82814C35.3816 5.29541 34.2519 5.93275 33.2151 5.93275H33.2052ZM33.2329 5.3927C33.9907 5.3927 34.5605 4.74742 34.5605 3.85196C34.5605 3.18286 34.1905 2.343 33.2507 2.343C32.3208 2.343 31.9132 3.12528 31.9132 3.87579C31.9132 4.73947 32.4553 5.3927 33.223 5.3927H33.2329Z" fill="#0B2540"/>
<path d="M36.6413 1.89429L37.2289 3.89367C37.3457 4.33445 37.4644 4.74941 37.5455 5.15842H37.5732C37.6721 4.75934 37.8166 4.33444 37.961 3.90161L38.6753 1.89429H39.3441L40.0207 3.86786C40.183 4.33246 40.3096 4.75735 40.4085 5.15644H40.4362C40.5094 4.75735 40.6262 4.3404 40.7706 3.8758L41.3939 1.89429H42.1794L40.7706 5.84143H40.0484L39.3797 3.9572C39.2253 3.50848 39.0987 3.11735 38.9919 2.65274H38.9741C38.8652 3.12529 38.7307 3.54224 38.5764 3.96515L37.872 5.84143H37.1498L35.8301 1.89429H36.6413Z" fill="#0B2540"/>
<path d="M42.9721 2.96247C42.9721 2.54552 42.9622 2.2199 42.9365 1.89428H43.6409L43.6864 2.53956H43.7042C43.9219 2.17225 44.4264 1.80493 45.1486 1.80493C45.754 1.80493 46.6939 2.13055 46.6939 3.48465V5.84142H45.9005V3.56605C45.9005 2.9307 45.6373 2.39263 44.8894 2.39263C44.375 2.39263 43.9674 2.7262 43.8229 3.12726C43.7873 3.21661 43.7695 3.34765 43.7695 3.46082V5.8434H42.9741V2.96247H42.9721Z" fill="#0B2540"/>
<path d="M47.9854 0.052002H48.7808V5.84378H47.9854V0.052002Z" fill="#0B2540"/>
<path d="M51.8795 5.93275C50.7062 5.93275 49.7842 5.15047 49.7842 3.9016C49.7842 2.57927 50.7497 1.80493 51.9527 1.80493C53.2071 1.80493 54.056 2.62891 54.056 3.82814C54.056 5.29541 52.9262 5.93275 51.8874 5.93275H51.8795ZM51.9072 5.3927C52.665 5.3927 53.2348 4.74742 53.2348 3.85196C53.2348 3.18286 52.8648 2.343 51.925 2.343C50.9951 2.343 50.5875 3.12528 50.5875 3.87579C50.5875 4.73947 51.1296 5.3927 51.8973 5.3927H51.9072Z" fill="#0B2540"/>
<path d="M58.1373 4.89703C58.1373 5.23853 58.1551 5.57408 58.2007 5.84212H57.4864L57.4132 5.34575H57.3875C57.152 5.65548 56.6732 5.93345 56.0499 5.93345C55.1655 5.93345 54.7124 5.37156 54.7124 4.79974C54.7124 3.84472 55.6522 3.32254 57.34 3.33247V3.25106C57.34 2.92544 57.241 2.3298 56.3467 2.33774C55.9312 2.33774 55.5058 2.44297 55.1991 2.63159L55.0191 2.1511C55.3812 1.9466 55.9134 1.80762 56.4635 1.80762C57.8089 1.80762 58.1334 2.63159 58.1334 3.42182V4.89703H58.1373ZM57.3598 3.82884C56.4931 3.81296 55.5078 3.95194 55.5078 4.71833C55.5078 5.19088 55.8501 5.40333 56.2478 5.40333C56.8255 5.40333 57.1955 5.07771 57.3222 4.74216C57.3499 4.6687 57.3578 4.58729 57.3578 4.51383V3.82884H57.3598Z" fill="#0B2540"/>
<path d="M63.1875 0.052002V4.82322C63.1875 5.17465 63.1974 5.57375 63.2231 5.84378H62.5089L62.4732 5.15877H62.4554C62.2121 5.59956 61.6877 5.93312 60.9735 5.93312C59.9169 5.93312 59.0938 5.12502 59.0938 3.92576C59.0839 2.6034 59.998 1.80522 61.0546 1.80522C61.7333 1.80522 62.1844 2.09114 62.3743 2.40088H62.3921V0.052002H63.1875ZM62.3941 3.50086C62.3941 3.40357 62.3862 3.28841 62.3585 3.19112C62.2418 2.74239 61.8084 2.36712 61.2109 2.36712C60.3898 2.36712 59.9011 3.02036 59.9011 3.88406C59.9011 4.69217 60.3443 5.35137 61.1931 5.35137C61.7253 5.35137 62.2141 5.02574 62.3585 4.49561C62.3862 4.39832 62.3941 4.29904 62.3941 4.18586V3.50086Z" fill="#0B2540"/>
<path d="M68.2008 5.93275C67.0275 5.93275 66.1055 5.15047 66.1055 3.9016C66.1055 2.57927 67.073 1.80493 68.274 1.80493C69.5304 1.80493 70.3792 2.62891 70.3792 3.82814C70.3792 5.29541 69.2494 5.93275 68.2127 5.93275H68.2008ZM68.2285 5.3927C68.9863 5.3927 69.5561 4.74742 69.5561 3.85196C69.5561 3.18286 69.1861 2.343 68.2463 2.343C67.3164 2.343 66.9088 3.12528 66.9088 3.87579C66.9088 4.73947 67.4509 5.3927 68.2186 5.3927H68.2285Z" fill="#0B2540"/>
<path d="M71.3794 2.96247C71.3794 2.54552 71.3695 2.2199 71.3438 1.89428H72.0481L72.0936 2.53956H72.1114C72.3291 2.17225 72.8336 1.80493 73.5558 1.80493C74.1613 1.80493 75.1011 2.13055 75.1011 3.48465V5.84142H74.3057V3.56605C74.3057 2.9307 74.0445 2.39263 73.2946 2.39263C72.7802 2.39263 72.3726 2.7262 72.2282 3.12726C72.1926 3.21661 72.1748 3.34765 72.1748 3.46082V5.8434H71.3794V2.96247Z" fill="#0B2540"/>
<path d="M79.2624 0.949463V1.89455H80.4001V2.44056H79.2624V4.569C79.2624 5.05742 79.4167 5.33539 79.8579 5.33539C80.0736 5.33539 80.2002 5.31951 80.3189 5.28575L80.3546 5.83176C80.2002 5.8814 79.9569 5.92905 79.6502 5.92905C79.2802 5.92905 78.9814 5.81389 78.7915 5.62726C78.5738 5.40687 78.4848 5.05544 78.4848 4.59084V2.43659H77.8081V1.89058H78.4848V1.1639L79.2624 0.949463Z" fill="#0B2540"/>
<path d="M81.2979 0.052002H82.0933V2.51604H82.1111C82.2377 2.31153 82.4356 2.12489 82.6809 2.00973C82.9164 1.87868 83.1953 1.80522 83.4941 1.80522C84.0798 1.80522 85.0196 2.13085 85.0196 3.49292V5.84179H84.2242V3.57432C84.2242 2.92903 83.963 2.39889 83.2131 2.39889C82.6987 2.39889 82.301 2.72452 82.1467 3.11765C82.1012 3.21494 82.0913 3.32216 82.0913 3.46115V5.84378H81.2959V0.052002H81.2979Z" fill="#0B2540"/>
<path d="M86.7604 3.99132C86.7782 4.96222 87.4569 5.36131 88.2503 5.36131C88.8201 5.36131 89.1723 5.27196 89.4612 5.16474L89.6056 5.67104C89.3246 5.7862 88.8379 5.92319 88.1414 5.92319C86.8039 5.92319 85.9907 5.11511 85.9907 3.93374C85.9907 2.73451 86.7762 1.79736 88.0504 1.79736C89.477 1.79736 89.847 2.93108 89.847 3.65776C89.847 3.80469 89.8391 3.91786 89.8213 3.99927L86.7604 3.99132ZM89.0833 3.47708C89.0912 3.02836 88.8755 2.30962 87.9891 2.30962C87.1759 2.30962 86.8336 2.97873 86.7703 3.47708H89.0833Z" fill="#0B2540"/>
</svg>
