<svg width="130" height="117" viewBox="0 0 130 117" fill="none" xmlns="http://www.w3.org/2000/svg">
<circle cx="71.5" cy="58.5" r="58.5" fill="#ECFCFF"/>
<g clip-path="url(#clip0)">
<path d="M44.5502 68.9249C44.5502 69.8362 45.2889 70.5749 46.2002 70.5749C47.1115 70.5749 47.8502 69.8362 47.8502 68.9249C47.8502 63.4667 42.8012 58.9556 36.3002 58.2923V56.5499C36.3002 55.6386 35.5615 54.8999 34.6502 54.8999C33.7389 54.8999 33.0002 55.6386 33.0002 56.5499V58.2923C26.4992 58.9523 21.4502 63.4667 21.4502 68.9249C21.4502 74.3831 26.4992 78.8942 33.0002 79.5575V94.3877C28.3257 93.797 24.7502 90.7461 24.7502 87.0749C24.7502 86.1636 24.0115 85.4249 23.1002 85.4249C22.1889 85.4249 21.4502 86.1636 21.4502 87.0749C21.4502 92.5331 26.4992 97.0442 33.0002 97.7075V99.4499C33.0002 100.361 33.7389 101.1 34.6502 101.1C35.5615 101.1 36.3002 100.361 36.3002 99.4499V97.7075C42.8012 97.0475 47.8502 92.5331 47.8502 87.0749C47.8502 81.6167 42.8012 77.1056 36.3002 76.4423V61.6121C40.9746 62.2028 44.5502 65.2536 44.5502 68.9249ZM24.7502 68.9249C24.7502 65.2536 28.3257 62.2028 33.0002 61.6121V76.2377C28.3257 75.647 24.7502 72.5961 24.7502 68.9249ZM44.5502 87.0749C44.5502 90.7461 40.9746 93.797 36.3002 94.3877V79.7621C40.9746 80.3528 44.5502 83.4036 44.5502 87.0749Z" fill="#2D9CDB"/>
<path d="M5.94012 61.7854C5.1136 61.4018 4.1326 61.7609 3.74892 62.5873C1.26554 67.932 -0.0141873 73.7566 0.000118633 79.65C0.000118633 100.452 11.6574 111 34.6501 111C39.2961 111.073 43.9316 110.539 48.4392 109.411C49.3199 109.177 49.844 108.273 49.6098 107.392C49.3757 106.512 48.4718 105.987 47.5911 106.222C43.3586 107.267 39.0093 107.764 34.6501 107.7C13.5549 107.7 3.30012 98.5243 3.30012 79.65C3.27043 74.2342 4.44673 68.8797 6.74367 63.975C7.12593 63.1484 6.7663 62.1685 5.94012 61.7854Z" fill="#2D9CDB"/>
<path d="M94.0503 53.25H57.7503C55.0165 53.25 52.8003 55.4662 52.8003 58.2V106.05C52.8003 108.784 55.0165 111 57.7503 111H94.0503C96.7841 111 99.0003 108.784 99.0003 106.05V58.2C99.0003 55.4662 96.7841 53.25 94.0503 53.25ZM95.7003 106.05C95.7003 106.961 94.9616 107.7 94.0503 107.7H57.7503C56.839 107.7 56.1003 106.961 56.1003 106.05V58.2C56.1003 57.2887 56.839 56.55 57.7503 56.55H94.0503C94.9616 56.55 95.7003 57.2887 95.7003 58.2V106.05Z" fill="#2D9CDB"/>
<path d="M64.3503 74.7H87.4503C89.2728 74.7 90.7503 73.2225 90.7503 71.4V64.8C90.7503 62.9775 89.2728 61.5 87.4503 61.5H64.3503C62.5278 61.5 61.0503 62.9775 61.0503 64.8V71.4C61.0503 73.2225 62.5278 74.7 64.3503 74.7ZM64.3503 64.8H87.4503V71.4H64.3503V64.8Z" fill="#2D9CDB"/>
<path d="M67.6503 79.6499H62.7003C61.789 79.6499 61.0503 80.3886 61.0503 81.2999C61.0503 82.2112 61.789 82.9499 62.7003 82.9499H67.6503C68.5616 82.9499 69.3003 82.2112 69.3003 81.2999C69.3003 80.3886 68.5616 79.6499 67.6503 79.6499Z" fill="#2D9CDB"/>
<path d="M67.6503 86.25H62.7003C61.789 86.25 61.0503 86.9887 61.0503 87.9C61.0503 88.8113 61.789 89.55 62.7003 89.55H67.6503C68.5616 89.55 69.3003 88.8113 69.3003 87.9C69.3003 86.9887 68.5616 86.25 67.6503 86.25Z" fill="#2D9CDB"/>
<path d="M67.6503 92.85H62.7003C61.789 92.85 61.0503 93.5887 61.0503 94.5C61.0503 95.4112 61.789 96.15 62.7003 96.15H67.6503C68.5616 96.15 69.3003 95.4112 69.3003 94.5C69.3003 93.5887 68.5616 92.85 67.6503 92.85Z" fill="#2D9CDB"/>
<path d="M67.6503 99.45H62.7003C61.789 99.45 61.0503 100.189 61.0503 101.1C61.0503 102.011 61.789 102.75 62.7003 102.75H67.6503C68.5616 102.75 69.3003 102.011 69.3003 101.1C69.3003 100.189 68.5616 99.45 67.6503 99.45Z" fill="#2D9CDB"/>
<path d="M79.2001 79.6499H74.2501C73.3388 79.6499 72.6001 80.3886 72.6001 81.2999C72.6001 82.2112 73.3388 82.9499 74.2501 82.9499H79.2001C80.1114 82.9499 80.8501 82.2112 80.8501 81.2999C80.8501 80.3886 80.1114 79.6499 79.2001 79.6499Z" fill="#2D9CDB"/>
<path d="M79.2001 86.25H74.2501C73.3388 86.25 72.6001 86.9887 72.6001 87.9C72.6001 88.8113 73.3388 89.55 74.2501 89.55H79.2001C80.1114 89.55 80.8501 88.8113 80.8501 87.9C80.8501 86.9887 80.1114 86.25 79.2001 86.25Z" fill="#2D9CDB"/>
<path d="M79.2001 92.85H74.2501C73.3388 92.85 72.6001 93.5887 72.6001 94.5C72.6001 95.4112 73.3388 96.15 74.2501 96.15H79.2001C80.1114 96.15 80.8501 95.4112 80.8501 94.5C80.8501 93.5887 80.1114 92.85 79.2001 92.85Z" fill="#2D9CDB"/>
<path d="M79.2001 99.45H74.2501C73.3388 99.45 72.6001 100.189 72.6001 101.1C72.6001 102.011 73.3388 102.75 74.2501 102.75H79.2001C80.1114 102.75 80.8501 102.011 80.8501 101.1C80.8501 100.189 80.1114 99.45 79.2001 99.45Z" fill="#2D9CDB"/>
<path d="M90.7499 79.6499H85.7999C84.8886 79.6499 84.1499 80.3886 84.1499 81.2999C84.1499 82.2112 84.8886 82.9499 85.7999 82.9499H90.7499C91.6612 82.9499 92.3999 82.2112 92.3999 81.2999C92.3999 80.3886 91.6612 79.6499 90.7499 79.6499Z" fill="#2D9CDB"/>
<path d="M90.7499 86.25H85.7999C84.8886 86.25 84.1499 86.9887 84.1499 87.9C84.1499 88.8113 84.8886 89.55 85.7999 89.55H90.7499C91.6612 89.55 92.3999 88.8113 92.3999 87.9C92.3999 86.9887 91.6612 86.25 90.7499 86.25Z" fill="#2D9CDB"/>
<path d="M90.7499 92.85H85.7999C84.8886 92.85 84.1499 93.5887 84.1499 94.5C84.1499 95.4112 84.8886 96.15 85.7999 96.15H90.7499C91.6612 96.15 92.3999 95.4112 92.3999 94.5C92.3999 93.5887 91.6612 92.85 90.7499 92.85Z" fill="#2D9CDB"/>
<path d="M90.7499 99.45H85.7999C84.8886 99.45 84.1499 100.189 84.1499 101.1C84.1499 102.011 84.8886 102.75 85.7999 102.75H90.7499C91.6612 102.75 92.3999 102.011 92.3999 101.1C92.3999 100.189 91.6612 99.45 90.7499 99.45Z" fill="#2D9CDB"/>
<path d="M10.4365 14.0839C6.0921 18.0637 13.725 30.3397 18.2229 36.7499H17.3253C15.7926 36.7443 14.3211 37.3515 13.2382 38.4362C12.1591 39.5236 11.5525 40.9929 11.5503 42.5249C11.5574 44.581 12.6605 46.4772 14.4444 47.4997C12.5184 49.5368 10.704 51.6767 9.0093 53.9099C8.46253 54.639 8.61028 55.6732 9.3393 56.2199C10.0683 56.7667 11.1025 56.619 11.6493 55.8899C13.6874 53.2236 15.8918 50.6885 18.2493 48.2999H51.9753C54.0385 48.2999 55.945 47.1992 56.9766 45.4124C58.0082 43.6256 58.0082 41.4242 56.9766 39.6374C55.945 37.8506 54.0385 36.7499 51.9753 36.7499H51.0777C55.574 30.3397 63.2069 18.0653 58.8657 14.0839C56.8692 12.2557 54.5427 13.5889 52.4918 14.7554C50.6267 16.0327 48.4551 16.7902 46.2003 16.9499C44.4103 16.9462 42.7039 16.192 41.4962 14.8709C39.6906 13.0352 37.2235 12.0013 34.6487 12.0013C32.0738 12.0013 29.6067 13.0352 27.8012 14.8709C26.5914 16.1941 24.8816 16.9485 23.0887 16.9499C20.8351 16.7918 18.6647 16.0342 16.8022 14.7554C14.7529 13.5856 12.4281 12.2573 10.4365 14.0839ZM53.7293 40.7726C54.4392 41.4808 54.6517 42.5473 54.2674 43.4734C53.8832 44.3996 52.978 45.0024 51.9753 44.9999H17.3253C15.9584 44.9999 14.8503 43.8918 14.8503 42.5249C14.8503 41.158 15.9584 40.0499 17.3253 40.0499H51.9753C52.6324 40.0501 53.2628 40.3099 53.7293 40.7726ZM23.0887 20.2499C25.6646 20.2496 28.1324 19.2145 29.9379 17.3773C31.143 16.0535 32.8502 15.2989 34.6404 15.2989C36.4306 15.2989 38.1378 16.0535 39.3429 17.3773C41.1508 19.2159 43.6217 20.251 46.2003 20.2499C49.0333 20.1011 51.7741 19.1926 54.1352 17.6198C54.8885 17.0881 55.7407 16.7128 56.6415 16.516C58.3344 18.067 53.8596 27.4208 47.0187 36.7499H42.9003V28.4999C42.9003 27.5887 42.1616 26.8499 41.2503 26.8499C40.339 26.8499 39.6003 27.5887 39.6003 28.4999V36.7499H29.7003V28.4999C29.7003 27.5887 28.9616 26.8499 28.0503 26.8499C27.139 26.8499 26.4003 27.5887 26.4003 28.4999V36.7499H22.2885C15.4476 27.4208 10.9728 18.067 12.6888 16.4912C13.5709 16.7268 14.4075 17.1083 15.1638 17.6198C17.5213 19.1924 20.2588 20.1009 23.0887 20.2499Z" fill="#2D9CDB"/>
</g>
<defs>
<clipPath id="clip0">
<rect width="99" height="99" fill="white" transform="translate(0 12)"/>
</clipPath>
</defs>
</svg>
