<svg width="99" height="99" viewBox="0 0 99 99" fill="none" xmlns="http://www.w3.org/2000/svg">
<g clip-path="url(#clip0)">
<path d="M44.5502 56.9249C44.5502 57.8362 45.2889 58.5749 46.2002 58.5749C47.1115 58.5749 47.8502 57.8362 47.8502 56.9249C47.8502 51.4667 42.8012 46.9556 36.3002 46.2923V44.5499C36.3002 43.6386 35.5615 42.8999 34.6502 42.8999C33.7389 42.8999 33.0002 43.6386 33.0002 44.5499V46.2923C26.4992 46.9523 21.4502 51.4667 21.4502 56.9249C21.4502 62.3831 26.4992 66.8942 33.0002 67.5575V82.3877C28.3257 81.797 24.7502 78.7461 24.7502 75.0749C24.7502 74.1636 24.0115 73.4249 23.1002 73.4249C22.1889 73.4249 21.4502 74.1636 21.4502 75.0749C21.4502 80.5331 26.4992 85.0442 33.0002 85.7075V87.4499C33.0002 88.3612 33.7389 89.0999 34.6502 89.0999C35.5615 89.0999 36.3002 88.3612 36.3002 87.4499V85.7075C42.8012 85.0475 47.8502 80.5331 47.8502 75.0749C47.8502 69.6167 42.8012 65.1056 36.3002 64.4423V49.6121C40.9746 50.2028 44.5502 53.2536 44.5502 56.9249ZM24.7502 56.9249C24.7502 53.2536 28.3257 50.2028 33.0002 49.6121V64.2377C28.3257 63.647 24.7502 60.5961 24.7502 56.9249ZM44.5502 75.0749C44.5502 78.7461 40.9746 81.797 36.3002 82.3877V67.7621C40.9746 68.3528 44.5502 71.4036 44.5502 75.0749Z" fill="#2D9CDB"/>
<path d="M5.94012 49.7854C5.1136 49.4018 4.1326 49.7609 3.74892 50.5873C1.26554 55.932 -0.0141873 61.7566 0.000118633 67.65C0.000118633 88.4515 11.6574 99 34.6501 99C39.2961 99.073 43.9316 98.5388 48.4392 97.411C49.3199 97.1769 49.844 96.273 49.6098 95.3923C49.3757 94.5115 48.4718 93.9874 47.5911 94.2216C43.3586 95.2669 39.0093 95.7637 34.6501 95.7C13.5549 95.7 3.30012 86.5243 3.30012 67.65C3.27043 62.2342 4.44673 56.8797 6.74367 51.975C7.12593 51.1484 6.7663 50.1685 5.94012 49.7854Z" fill="#2D9CDB"/>
<path d="M94.0503 41.25H57.7503C55.0165 41.25 52.8003 43.4662 52.8003 46.2V94.05C52.8003 96.7838 55.0165 99 57.7503 99H94.0503C96.7841 99 99.0003 96.7838 99.0003 94.05V46.2C99.0003 43.4662 96.7841 41.25 94.0503 41.25ZM95.7003 94.05C95.7003 94.9613 94.9616 95.7 94.0503 95.7H57.7503C56.839 95.7 56.1003 94.9613 56.1003 94.05V46.2C56.1003 45.2887 56.839 44.55 57.7503 44.55H94.0503C94.9616 44.55 95.7003 45.2887 95.7003 46.2V94.05Z" fill="#2D9CDB"/>
<path d="M64.3503 62.7H87.4503C89.2728 62.7 90.7503 61.2225 90.7503 59.4V52.8C90.7503 50.9775 89.2728 49.5 87.4503 49.5H64.3503C62.5278 49.5 61.0503 50.9775 61.0503 52.8V59.4C61.0503 61.2225 62.5278 62.7 64.3503 62.7ZM64.3503 52.8H87.4503V59.4H64.3503V52.8Z" fill="#2D9CDB"/>
<path d="M67.6503 67.6499H62.7003C61.789 67.6499 61.0503 68.3886 61.0503 69.2999C61.0503 70.2112 61.789 70.9499 62.7003 70.9499H67.6503C68.5616 70.9499 69.3003 70.2112 69.3003 69.2999C69.3003 68.3886 68.5616 67.6499 67.6503 67.6499Z" fill="#2D9CDB"/>
<path d="M67.6503 74.25H62.7003C61.789 74.25 61.0503 74.9887 61.0503 75.9C61.0503 76.8113 61.789 77.55 62.7003 77.55H67.6503C68.5616 77.55 69.3003 76.8113 69.3003 75.9C69.3003 74.9887 68.5616 74.25 67.6503 74.25Z" fill="#2D9CDB"/>
<path d="M67.6503 80.85H62.7003C61.789 80.85 61.0503 81.5887 61.0503 82.5C61.0503 83.4112 61.789 84.15 62.7003 84.15H67.6503C68.5616 84.15 69.3003 83.4112 69.3003 82.5C69.3003 81.5887 68.5616 80.85 67.6503 80.85Z" fill="#2D9CDB"/>
<path d="M67.6503 87.45H62.7003C61.789 87.45 61.0503 88.1887 61.0503 89.0999C61.0503 90.0112 61.789 90.7499 62.7003 90.7499H67.6503C68.5616 90.7499 69.3003 90.0112 69.3003 89.0999C69.3003 88.1887 68.5616 87.45 67.6503 87.45Z" fill="#2D9CDB"/>
<path d="M79.2001 67.6499H74.2501C73.3388 67.6499 72.6001 68.3886 72.6001 69.2999C72.6001 70.2112 73.3388 70.9499 74.2501 70.9499H79.2001C80.1114 70.9499 80.8501 70.2112 80.8501 69.2999C80.8501 68.3886 80.1114 67.6499 79.2001 67.6499Z" fill="#2D9CDB"/>
<path d="M79.2001 74.25H74.2501C73.3388 74.25 72.6001 74.9887 72.6001 75.9C72.6001 76.8113 73.3388 77.55 74.2501 77.55H79.2001C80.1114 77.55 80.8501 76.8113 80.8501 75.9C80.8501 74.9887 80.1114 74.25 79.2001 74.25Z" fill="#2D9CDB"/>
<path d="M79.2001 80.85H74.2501C73.3388 80.85 72.6001 81.5887 72.6001 82.5C72.6001 83.4112 73.3388 84.15 74.2501 84.15H79.2001C80.1114 84.15 80.8501 83.4112 80.8501 82.5C80.8501 81.5887 80.1114 80.85 79.2001 80.85Z" fill="#2D9CDB"/>
<path d="M79.2001 87.45H74.2501C73.3388 87.45 72.6001 88.1887 72.6001 89.0999C72.6001 90.0112 73.3388 90.7499 74.2501 90.7499H79.2001C80.1114 90.7499 80.8501 90.0112 80.8501 89.0999C80.8501 88.1887 80.1114 87.45 79.2001 87.45Z" fill="#2D9CDB"/>
<path d="M90.7499 67.6499H85.7999C84.8886 67.6499 84.1499 68.3886 84.1499 69.2999C84.1499 70.2112 84.8886 70.9499 85.7999 70.9499H90.7499C91.6612 70.9499 92.3999 70.2112 92.3999 69.2999C92.3999 68.3886 91.6612 67.6499 90.7499 67.6499Z" fill="#2D9CDB"/>
<path d="M90.7499 74.25H85.7999C84.8886 74.25 84.1499 74.9887 84.1499 75.9C84.1499 76.8113 84.8886 77.55 85.7999 77.55H90.7499C91.6612 77.55 92.3999 76.8113 92.3999 75.9C92.3999 74.9887 91.6612 74.25 90.7499 74.25Z" fill="#2D9CDB"/>
<path d="M90.7499 80.85H85.7999C84.8886 80.85 84.1499 81.5887 84.1499 82.5C84.1499 83.4112 84.8886 84.15 85.7999 84.15H90.7499C91.6612 84.15 92.3999 83.4112 92.3999 82.5C92.3999 81.5887 91.6612 80.85 90.7499 80.85Z" fill="#2D9CDB"/>
<path d="M90.7499 87.45H85.7999C84.8886 87.45 84.1499 88.1887 84.1499 89.0999C84.1499 90.0112 84.8886 90.7499 85.7999 90.7499H90.7499C91.6612 90.7499 92.3999 90.0112 92.3999 89.0999C92.3999 88.1887 91.6612 87.45 90.7499 87.45Z" fill="#2D9CDB"/>
<path d="M10.4365 2.08388C6.0921 6.06368 13.725 18.3397 18.2229 24.7499H17.3253C15.7926 24.7443 14.3211 25.3515 13.2382 26.4362C12.1591 27.5236 11.5525 28.9929 11.5503 30.5249C11.5574 32.581 12.6605 34.4772 14.4444 35.4997C12.5184 37.5368 10.704 39.6767 9.0093 41.9099C8.46253 42.639 8.61028 43.6732 9.3393 44.2199C10.0683 44.7667 11.1025 44.619 11.6493 43.8899C13.6874 41.2236 15.8918 38.6885 18.2493 36.2999H51.9753C54.0385 36.2999 55.945 35.1992 56.9766 33.4124C58.0082 31.6256 58.0082 29.4242 56.9766 27.6374C55.945 25.8506 54.0385 24.7499 51.9753 24.7499H51.0777C55.574 18.3397 63.2069 6.06533 58.8657 2.08388C56.8692 0.255682 54.5427 1.58888 52.4918 2.75543C50.6267 4.0327 48.4551 4.79016 46.2003 4.94993C44.4103 4.94615 42.7039 4.19202 41.4962 2.87093C39.6906 1.03521 37.2235 0.00134277 34.6487 0.00134277C32.0738 0.00134277 29.6067 1.03521 27.8012 2.87093C26.5914 4.19413 24.8816 4.94846 23.0887 4.94993C20.8351 4.79182 18.6647 4.03417 16.8022 2.75543C14.7529 1.58558 12.4281 0.257332 10.4365 2.08388ZM53.7293 28.7726C54.4392 29.4808 54.6517 30.5473 54.2674 31.4734C53.8832 32.3996 52.978 33.0024 51.9753 32.9999H17.3253C15.9584 32.9999 14.8503 31.8918 14.8503 30.5249C14.8503 29.158 15.9584 28.0499 17.3253 28.0499H51.9753C52.6324 28.0501 53.2628 28.3099 53.7293 28.7726ZM23.0887 8.24993C25.6646 8.24957 28.1324 7.21453 29.9379 5.37728C31.143 4.05347 32.8502 3.29891 34.6404 3.29891C36.4306 3.29891 38.1378 4.05347 39.3429 5.37728C41.1508 7.21595 43.6217 8.25104 46.2003 8.24993C49.0333 8.10109 51.7741 7.19262 54.1352 5.61983C54.8885 5.08812 55.7407 4.71278 56.6415 4.51598C58.3344 6.06698 53.8596 15.4208 47.0187 24.7499H42.9003V16.4999C42.9003 15.5887 42.1616 14.8499 41.2503 14.8499C40.339 14.8499 39.6003 15.5887 39.6003 16.4999V24.7499H29.7003V16.4999C29.7003 15.5887 28.9616 14.8499 28.0503 14.8499C27.139 14.8499 26.4003 15.5887 26.4003 16.4999V24.7499H22.2885C15.4476 15.4208 10.9728 6.06698 12.6888 4.49123C13.5709 4.72685 14.4075 5.10831 15.1638 5.61983C17.5213 7.19242 20.2588 8.10094 23.0887 8.24993Z" fill="#2D9CDB"/>
</g>
<defs>
<clipPath id="clip0">
<rect width="99" height="99" fill="white"/>
</clipPath>
</defs>
</svg>
