<svg width="110" height="110" viewBox="0 0 110 110" fill="none" xmlns="http://www.w3.org/2000/svg">
<g clip-path="url(#clip0)">
<path d="M66.0124 18.6669C65.9869 18.641 65.9612 18.6153 65.9353 18.5899C63.1222 15.8271 58.6143 15.8271 55.8011 18.5899L55.2025 19.1811L54.6042 18.5899C51.7911 15.8271 47.2832 15.8271 44.47 18.5899C41.6876 21.3296 41.6529 25.8063 44.393 28.5888C44.4184 28.6147 44.4441 28.6404 44.47 28.6658L53.9128 37.9983C54.6274 38.7053 55.7782 38.7053 56.4927 37.9983L65.9355 28.6658C68.7178 25.926 68.7522 21.4493 66.0124 18.6669ZM63.4026 26.01C63.387 26.0258 63.3712 26.0416 63.3554 26.0572L55.2025 34.1142L47.0497 26.0572C45.7079 24.7416 45.6868 22.5875 47.0025 21.2457C47.0181 21.2299 47.0339 21.2141 47.0497 21.1985C48.4312 19.844 50.6426 19.844 52.0241 21.1985L53.9124 23.0654C54.6274 23.7713 55.7772 23.7713 56.4923 23.0654L58.3806 21.1985C59.7625 19.845 61.9732 19.845 63.3549 21.1985C64.697 22.5139 64.7183 24.6682 63.4026 26.01Z" fill="#219653"/>
<path d="M79.7906 21.3076L76.2431 19.7471C76.0764 19.1217 75.8911 18.5286 75.6849 17.959L77.6512 14.5782C77.978 14.0175 77.9837 13.3259 77.6663 12.7597C76.7187 11.0741 75.5877 9.49864 74.2936 8.06213C73.8508 7.5638 73.1708 7.34801 72.5216 7.49959L68.7824 8.35246C68.3175 7.9798 67.8346 7.62458 67.334 7.28655L66.973 3.35564C66.9134 2.70412 66.5107 2.13401 65.9167 1.85974C64.1821 1.04929 62.3608 0.439281 60.4881 0.041168C59.8359 -0.0996392 59.1587 0.128771 58.725 0.636044L56.121 3.6478H54.4386L51.8351 0.635815C51.4012 0.129688 50.7249 -0.0984926 50.0729 0.0409386C48.1995 0.438822 46.3778 1.04906 44.6424 1.85951C44.0485 2.13378 43.646 2.70412 43.5864 3.35541L43.2254 7.28632C42.7236 7.62503 42.2409 7.98026 41.777 8.35223L38.0387 7.49936C37.3897 7.34801 36.7098 7.5638 36.2667 8.0619C34.9719 9.49818 33.8404 11.0737 32.8931 12.7595C32.5757 13.3254 32.5816 14.0173 32.9082 14.578L34.8744 17.9588C34.6701 18.525 34.4867 19.1125 34.3208 19.7324L30.6356 21.2964C29.9577 21.5844 29.5176 22.2495 29.5176 22.9859V28.3858C29.5176 29.1222 29.9577 29.7875 30.6356 30.0753L34.3208 31.6393C34.4867 32.2592 34.6701 32.847 34.8744 33.4129L32.9082 36.7937C32.5812 37.3551 32.5759 38.0474 32.8937 38.6141C33.8416 40.2983 34.9721 41.8731 36.2646 43.31C36.7072 43.8093 37.3881 44.0253 38.0373 43.8726L41.7765 43.0197C42.2414 43.3924 42.7243 43.7478 43.225 44.0856L43.5859 48.0165C43.6455 48.668 44.0482 49.2381 44.642 49.5124C46.3766 50.3229 48.1979 50.9329 50.0706 51.331C50.7226 51.467 51.3973 51.2395 51.8335 50.7361L54.4384 47.7225H56.1198L58.7248 50.7361C59.0733 51.1388 59.5797 51.3702 60.1124 51.3704C60.2386 51.3707 60.3645 51.3574 60.4878 51.331C62.3605 50.9329 64.1818 50.3229 65.9165 49.5124C66.5104 49.2381 66.9129 48.6678 66.9728 48.0165L67.3337 44.0856C67.8355 43.7469 68.3182 43.3924 68.7822 43.0213L72.5204 43.8723C73.1697 44.0248 73.8501 43.8088 74.2924 43.3098C75.5872 41.8735 76.7187 40.298 77.6661 38.6123C77.9835 38.046 77.9775 37.3544 77.651 36.7937L75.6847 33.4129C75.8906 32.8433 76.0752 32.2502 76.242 31.6249L79.7904 30.0643C80.4566 29.7719 80.887 29.113 80.8868 28.3856V22.9856C80.8872 22.2589 80.457 21.6 79.7906 21.3076ZM77.218 27.1897L73.9411 28.6301C73.4102 28.8633 73.0211 29.3337 72.8913 29.8985C72.6663 30.9133 72.3555 31.9069 71.9622 32.869C71.7421 33.3983 71.7822 34.0002 72.0707 34.4958L73.9393 37.7101C73.429 38.5249 72.8674 39.3064 72.2579 40.0499L68.7095 39.242C68.135 39.1081 67.5312 39.261 67.0897 39.6523C66.3215 40.3256 65.4977 40.9326 64.6272 41.4672C64.1358 41.7699 63.8154 42.2863 63.7626 42.861L63.4186 46.602C62.5571 46.9563 61.6735 47.2545 60.7733 47.4943L58.3475 44.6887C57.9992 44.2858 57.4926 44.0542 56.9599 44.0544H53.5997C53.067 44.0542 52.5607 44.2856 52.2121 44.6887L49.7863 47.4943C48.8861 47.2545 48.0025 46.9566 47.141 46.602L46.797 42.861C46.7444 42.2861 46.4241 41.7696 45.9326 41.4672C45.0616 40.9319 44.237 40.3249 43.4674 39.6523C43.0266 39.2612 42.4235 39.1083 41.8495 39.242L38.302 40.0499C37.692 39.3062 37.1303 38.524 36.6205 37.7082L38.4891 34.4958C38.7776 34.0002 38.8177 33.3985 38.5976 32.869C38.2043 31.9069 37.8935 30.913 37.6686 29.8985C37.5367 29.3252 37.1386 28.8495 36.5972 28.6193L33.1868 27.1718V24.2011L36.5972 22.7536C37.1386 22.5233 37.5367 22.0477 37.6686 21.4744C37.8935 20.4596 38.2043 19.4659 38.5976 18.5039C38.8177 17.9746 38.7776 17.3726 38.4891 16.877L36.6205 13.6628C37.1308 12.848 37.6924 12.0664 38.302 11.3229L41.8504 12.1309C42.4248 12.2646 43.0284 12.1116 43.4701 11.7206C44.2384 11.0473 45.0621 10.4403 45.9326 9.9057C46.4238 9.60276 46.744 9.08654 46.7972 8.51184L47.1412 4.77105C48.0032 4.41697 48.8873 4.11838 49.7874 3.87713L52.2123 6.68273C52.5607 7.08566 53.0672 7.31728 53.6 7.31705H56.9601C57.4928 7.31728 57.9992 7.08589 58.3477 6.68273L60.7736 3.87713C61.6735 4.11838 62.5571 4.41697 63.4189 4.77105L63.7629 8.51184C63.8154 9.08677 64.1357 9.60322 64.6274 9.9057C65.4984 10.4409 66.3231 11.048 67.0927 11.7206C67.5332 12.1121 68.1366 12.265 68.7106 12.1309L72.259 11.3229C72.8683 12.0664 73.4297 12.848 73.9395 13.6628L72.0709 16.877C71.7825 17.3726 71.7423 17.9744 71.9625 18.5039C72.3558 19.4659 72.6667 20.4598 72.8924 21.4744C73.0222 22.0394 73.4116 22.5098 73.9423 22.7428L77.2182 24.1832V27.1897H77.218Z" fill="#219653"/>
<path d="M98.2125 50.6493C94.352 48.5771 89.5432 49.9767 87.3976 53.7968L81.8623 63.6526C80.9799 64.6548 79.833 65.3882 78.5531 65.7684L53.561 73.2449C53.0235 73.4064 52.4433 73.3378 51.9585 73.0551C51.445 72.759 51.0785 72.2623 50.9471 71.6844C50.6641 70.5419 51.3464 69.3828 52.4825 69.0758L63.7642 65.6109C66.837 64.7468 68.6975 61.6309 68.0006 58.5159C67.2298 55.3519 64.0401 53.4118 60.8761 54.1825C60.7768 54.2066 60.6784 54.2335 60.5805 54.2628L36.3614 61.5279C27.8419 63.8586 20.9951 70.1986 18.018 78.5142L7.65419 107.499C7.31272 108.453 7.80944 109.503 8.76344 109.844C8.96066 109.915 9.16844 109.951 9.37781 109.952L33.1832 110H33.1868C34.0558 110 34.8057 109.391 34.9829 108.54L36.2479 102.454C36.6602 99.9111 38.4423 97.8032 40.881 96.9734L88.7575 81.2501C90.4112 80.7073 91.7977 79.5581 92.6382 78.0342L101.495 61.5387C103.595 57.625 102.126 52.7499 98.2125 50.6493ZM98.3214 59.6905C98.3024 59.7286 98.2827 59.7664 98.2627 59.8041L89.4194 76.2727C89.0265 76.9795 88.3812 77.512 87.6125 77.7634L39.719 93.4923C36.0112 94.7382 33.2905 97.9247 32.6413 101.782L31.6953 106.327L11.9839 106.288L21.4723 79.7503C24.0541 72.5492 29.9902 67.063 37.3721 65.0554L61.6343 57.7779C62.2165 57.5998 62.8467 57.6718 63.3739 57.9768C63.911 58.2854 64.297 58.8021 64.4408 59.4048C64.6467 60.623 63.8851 61.7958 62.6885 62.1031L51.4533 65.5538C48.347 66.447 46.5532 69.6892 47.4464 72.7955C47.8629 74.2434 48.8215 75.4749 50.1229 76.2338C51.4808 77.0275 53.1081 77.2185 54.6127 76.7605L79.6041 69.284C81.622 68.6836 83.4195 67.5051 84.7748 65.8943C84.8498 65.806 84.9158 65.7106 84.9718 65.6095L90.5974 55.5925C91.7379 53.5553 94.2793 52.7763 96.3655 53.8241H96.3664C98.5262 54.9038 99.4018 57.5305 98.3214 59.6905Z" fill="#219653"/>
</g>
<defs>
<clipPath id="clip0">
<rect width="110" height="110" fill="white"/>
</clipPath>
</defs>
</svg>
