<svg width="114" height="114" viewBox="0 0 114 114" fill="none" xmlns="http://www.w3.org/2000/svg">
<path d="M83.7185 47.2034V42.3673C86.31 41.4482 88.1716 38.9734 88.1716 36.0706C88.1716 32.3875 85.1751 29.391 81.4919 29.391H74.7203C76.2308 26.5272 77.0388 23.3165 77.0388 20.039C77.0388 8.98949 68.0493 0 56.9998 0C45.9503 0 36.9609 8.98949 36.9609 20.039C36.9609 23.3167 37.7689 26.5274 39.2794 29.391H32.5078C28.8246 29.391 25.8281 32.3875 25.8281 36.0706C25.8281 38.9732 27.6897 41.4482 30.2812 42.3673V47.2034C24.1426 47.2034 19.1484 52.1978 19.1484 58.3364V102.867C19.1484 109.006 24.1426 114 30.2812 114H83.7185C89.8571 114 94.8512 109.006 94.8512 102.867V58.3364C94.8512 52.1978 89.8573 47.2034 83.7185 47.2034ZM41.414 20.039C41.414 11.4449 48.4058 4.45311 56.9998 4.45311C65.5939 4.45311 72.5857 11.4449 72.5857 20.039C72.5857 23.4176 71.4809 26.7031 69.4634 29.391H60.1502C60.3245 29.2522 60.4935 29.1033 60.6547 28.9421C61.776 27.8206 62.3939 26.3297 62.3939 24.7437C62.3939 23.1577 61.7762 21.6668 60.6547 20.5453L56.4937 16.3843C56.2134 16.104 56.0589 15.731 56.0589 15.3347C56.0589 14.9384 56.2132 14.5654 56.4937 14.2851C56.7741 14.0046 57.1468 13.8503 57.5431 13.8503C57.9394 13.8503 58.3124 14.0046 58.5927 14.2851C59.4624 15.1544 60.8718 15.1544 61.7417 14.2851C62.6112 13.4157 62.6112 12.0058 61.7417 11.1361C61.029 10.4236 60.1669 9.91529 59.2264 9.63875V8.90621C59.2264 7.67671 58.2293 6.67966 56.9998 6.67966C55.7703 6.67966 54.7733 7.67671 54.7733 8.90621V10.0803C54.2538 10.355 53.7725 10.7086 53.345 11.1361C52.2234 12.2576 51.6058 13.7485 51.6058 15.3345C51.6058 16.9205 52.2234 18.4114 53.345 19.5329L57.5059 23.6939C58.0848 24.2728 58.0848 25.2142 57.5059 25.7931C56.9273 26.372 55.9854 26.372 55.4067 25.7931C54.5373 24.9238 53.1274 24.9238 52.2577 25.7931C51.3883 26.6625 51.3883 28.0724 52.2577 28.9421C52.4189 29.1033 52.5879 29.252 52.7623 29.391H44.536C42.5186 26.7033 41.414 23.4176 41.414 20.039ZM32.5078 33.8441H81.4919C82.7197 33.8441 83.7185 34.8429 83.7185 36.0706C83.7185 37.2983 82.7197 38.2972 81.4919 38.2972H32.5078C31.28 38.2972 30.2812 37.2983 30.2812 36.0706C30.2812 34.8429 31.28 33.8441 32.5078 33.8441ZM90.3981 102.867C90.3981 106.55 87.4016 109.547 83.7185 109.547H30.2812C26.598 109.547 23.6015 106.55 23.6015 102.867V58.3364C23.6015 54.653 26.598 51.6565 30.2812 51.6565H46.9797C48.2094 51.6565 49.2062 50.6594 49.2062 49.4299C49.2062 48.2004 48.2094 47.2034 46.9797 47.2034H34.7343V42.7503H79.2654V47.2034H67.0184C65.7889 47.2034 64.7919 48.2004 64.7919 49.4299C64.7919 50.6594 65.7889 51.6565 67.0184 51.6565H83.7185C87.4016 51.6565 90.3981 54.653 90.3981 58.3364V102.867Z" fill="#F2994A"/>
<path d="M65.9057 65.0158C65.5265 65.0158 65.1497 65.0274 64.7757 65.0483C61.0455 59.4363 54.8724 56.1102 48.0937 56.1102C37.0442 56.1102 28.0547 65.0997 28.0547 76.1492C28.0547 87.1987 37.0442 96.1882 48.0937 96.1882C48.4708 96.1882 48.8503 96.1744 49.2292 96.1532C52.8253 101.539 58.9579 105.094 65.9057 105.094C76.9551 105.094 85.9444 96.1045 85.9444 85.055C85.9444 74.0055 76.9551 65.0158 65.9057 65.0158ZM32.5078 76.1492C32.5078 67.5552 39.4996 60.5633 48.0937 60.5633C52.6971 60.5633 56.942 62.5363 59.8773 65.9429C57.9773 66.5436 56.1994 67.4205 54.5899 68.5257C52.7884 66.9921 50.4854 66.1295 48.0937 66.1295C42.5689 66.1295 38.0742 70.6245 38.0742 76.1492C38.0742 80.8982 41.359 84.9078 45.8867 85.9213C45.9729 87.9357 46.3578 89.8735 46.9982 91.6923C38.9138 91.1275 32.5078 84.3746 32.5078 76.1492ZM46.2053 81.3816C44.0393 80.6048 42.5273 78.549 42.5273 76.1492C42.5273 73.0799 45.0244 70.5826 48.0937 70.5826C49.1916 70.5826 50.2561 70.9095 51.1574 71.5033C48.6632 74.2157 46.906 77.6152 46.2053 81.3816ZM65.9057 100.641C57.3116 100.641 50.3198 93.6488 50.3198 85.0548C50.3198 76.4607 57.3116 69.4689 65.9057 69.4689C74.4997 69.4689 81.4913 76.4607 81.4913 85.0548C81.4913 93.6488 74.4997 100.641 65.9057 100.641Z" fill="#F2994A"/>
<path d="M67.4991 79.3006C68.3688 80.1698 69.7782 80.1698 70.6481 79.3006C71.5176 78.4311 71.5176 77.0212 70.6481 76.1515C69.9225 75.4259 69.0541 74.928 68.1328 74.6573V73.9216C68.1328 72.6921 67.1357 71.6951 65.9062 71.6951C64.6767 71.6951 63.6796 72.6921 63.6796 73.9216V75.0977C63.1655 75.3685 62.683 75.7196 62.2511 76.1513C59.9361 78.4663 59.9361 82.2332 62.2511 84.5483L66.4121 88.7093C66.991 89.2883 66.991 90.2296 66.4121 90.8085C65.8332 91.3875 64.8918 91.3875 64.3129 90.8085C63.4432 89.9393 62.0337 89.9393 61.1638 90.8085C60.2944 91.678 60.2944 93.0879 61.1638 93.9576C61.8895 94.6832 62.7578 95.1811 63.6794 95.4518V96.1873C63.6794 97.4168 64.6765 98.4138 65.906 98.4138C67.1355 98.4138 68.1325 97.4168 68.1325 96.1873V95.011C68.6466 94.7402 69.1289 94.3891 69.5609 93.9573C71.8758 91.6424 71.8758 87.8755 69.5609 85.5603L65.3999 81.3993C64.821 80.8204 64.821 79.879 65.3999 79.3001C65.9788 78.7212 66.9202 78.7219 67.4991 79.3006Z" fill="#F2994A"/>
<path d="M57.0002 51.6567C58.2299 51.6567 59.2267 50.6597 59.2267 49.4302C59.2267 48.2007 58.2299 47.2036 57.0002 47.2036H56.9986C55.7689 47.2036 54.7729 48.2007 54.7729 49.4302C54.7729 50.6597 55.7705 51.6567 57.0002 51.6567Z" fill="#F2994A"/>
</svg>
