<svg width="128" height="134" viewBox="0 0 128 134" fill="none" xmlns="http://www.w3.org/2000/svg">
<circle cx="58.5" cy="58.5" r="58.5" fill="#FFF8E6"/>
<path d="M97.7185 67.2034V62.3673C100.31 61.4482 102.172 58.9734 102.172 56.0706C102.172 52.3875 99.1751 49.391 95.4919 49.391H88.7203C90.2308 46.5272 91.0388 43.3165 91.0388 40.039C91.0388 28.9895 82.0493 20 70.9998 20C59.9503 20 50.9609 28.9895 50.9609 40.039C50.9609 43.3167 51.7689 46.5274 53.2794 49.391H46.5078C42.8246 49.391 39.8281 52.3875 39.8281 56.0706C39.8281 58.9732 41.6897 61.4482 44.2812 62.3673V67.2034C38.1426 67.2034 33.1484 72.1978 33.1484 78.3364V122.867C33.1484 129.006 38.1426 134 44.2812 134H97.7185C103.857 134 108.851 129.006 108.851 122.867V78.3364C108.851 72.1978 103.857 67.2034 97.7185 67.2034ZM55.414 40.039C55.414 31.4449 62.4058 24.4531 70.9998 24.4531C79.5939 24.4531 86.5857 31.4449 86.5857 40.039C86.5857 43.4176 85.4809 46.7031 83.4634 49.391H74.1502C74.3245 49.2522 74.4935 49.1033 74.6547 48.9421C75.776 47.8206 76.3939 46.3297 76.3939 44.7437C76.3939 43.1577 75.7762 41.6668 74.6547 40.5453L70.4937 36.3843C70.2134 36.104 70.0589 35.731 70.0589 35.3347C70.0589 34.9384 70.2132 34.5654 70.4937 34.2851C70.7741 34.0046 71.1468 33.8503 71.5431 33.8503C71.9394 33.8503 72.3124 34.0046 72.5927 34.2851C73.4624 35.1544 74.8718 35.1544 75.7417 34.2851C76.6112 33.4157 76.6112 32.0058 75.7417 31.1361C75.029 30.4236 74.1669 29.9153 73.2264 29.6388V28.9062C73.2264 27.6767 72.2293 26.6797 70.9998 26.6797C69.7703 26.6797 68.7733 27.6767 68.7733 28.9062V30.0803C68.2538 30.355 67.7725 30.7086 67.345 31.1361C66.2234 32.2576 65.6058 33.7485 65.6058 35.3345C65.6058 36.9205 66.2234 38.4114 67.345 39.5329L71.5059 43.6939C72.0848 44.2728 72.0848 45.2142 71.5059 45.7931C70.9273 46.372 69.9854 46.372 69.4067 45.7931C68.5373 44.9238 67.1274 44.9238 66.2577 45.7931C65.3883 46.6625 65.3883 48.0724 66.2577 48.9421C66.4189 49.1033 66.5879 49.252 66.7623 49.391H58.536C56.5186 46.7033 55.414 43.4176 55.414 40.039ZM46.5078 53.8441H95.4919C96.7197 53.8441 97.7185 54.8429 97.7185 56.0706C97.7185 57.2983 96.7197 58.2972 95.4919 58.2972H46.5078C45.28 58.2972 44.2812 57.2983 44.2812 56.0706C44.2812 54.8429 45.28 53.8441 46.5078 53.8441ZM104.398 122.867C104.398 126.55 101.402 129.547 97.7185 129.547H44.2812C40.598 129.547 37.6015 126.55 37.6015 122.867V78.3364C37.6015 74.653 40.598 71.6565 44.2812 71.6565H60.9797C62.2094 71.6565 63.2062 70.6594 63.2062 69.4299C63.2062 68.2004 62.2094 67.2034 60.9797 67.2034H48.7343V62.7503H93.2654V67.2034H81.0184C79.7889 67.2034 78.7919 68.2004 78.7919 69.4299C78.7919 70.6594 79.7889 71.6565 81.0184 71.6565H97.7185C101.402 71.6565 104.398 74.653 104.398 78.3364V122.867Z" fill="#F2994A"/>
<path d="M79.9057 85.0158C79.5265 85.0158 79.1497 85.0274 78.7757 85.0483C75.0455 79.4363 68.8724 76.1102 62.0937 76.1102C51.0442 76.1102 42.0547 85.0997 42.0547 96.1492C42.0547 107.199 51.0442 116.188 62.0937 116.188C62.4708 116.188 62.8503 116.174 63.2292 116.153C66.8253 121.539 72.9579 125.094 79.9057 125.094C90.9551 125.094 99.9444 116.104 99.9444 105.055C99.9444 94.0055 90.9551 85.0158 79.9057 85.0158ZM46.5078 96.1492C46.5078 87.5552 53.4996 80.5633 62.0937 80.5633C66.6971 80.5633 70.942 82.5363 73.8773 85.9429C71.9773 86.5436 70.1994 87.4205 68.5899 88.5257C66.7884 86.9921 64.4854 86.1295 62.0937 86.1295C56.5689 86.1295 52.0742 90.6245 52.0742 96.1492C52.0742 100.898 55.359 104.908 59.8867 105.921C59.9729 107.936 60.3578 109.873 60.9982 111.692C52.9138 111.127 46.5078 104.375 46.5078 96.1492ZM60.2053 101.382C58.0393 100.605 56.5273 98.549 56.5273 96.1492C56.5273 93.0799 59.0244 90.5826 62.0937 90.5826C63.1916 90.5826 64.2561 90.9095 65.1574 91.5033C62.6632 94.2157 60.906 97.6152 60.2053 101.382ZM79.9057 120.641C71.3116 120.641 64.3198 113.649 64.3198 105.055C64.3198 96.4607 71.3116 89.4689 79.9057 89.4689C88.4997 89.4689 95.4913 96.4607 95.4913 105.055C95.4913 113.649 88.4997 120.641 79.9057 120.641Z" fill="#F2994A"/>
<path d="M81.4991 99.3006C82.3688 100.17 83.7782 100.17 84.6481 99.3006C85.5176 98.4311 85.5176 97.0212 84.6481 96.1515C83.9225 95.4259 83.0541 94.928 82.1328 94.6573V93.9216C82.1328 92.6921 81.1357 91.6951 79.9062 91.6951C78.6767 91.6951 77.6796 92.6921 77.6796 93.9216V95.0977C77.1655 95.3685 76.683 95.7196 76.2511 96.1513C73.9361 98.4663 73.9361 102.233 76.2511 104.548L80.4121 108.709C80.991 109.288 80.991 110.23 80.4121 110.809C79.8332 111.387 78.8918 111.387 78.3129 110.809C77.4432 109.939 76.0337 109.939 75.1638 110.809C74.2944 111.678 74.2944 113.088 75.1638 113.958C75.8895 114.683 76.7578 115.181 77.6794 115.452V116.187C77.6794 117.417 78.6765 118.414 79.906 118.414C81.1355 118.414 82.1325 117.417 82.1325 116.187V115.011C82.6466 114.74 83.1289 114.389 83.5609 113.957C85.8758 111.642 85.8758 107.875 83.5609 105.56L79.3999 101.399C78.821 100.82 78.821 99.879 79.3999 99.3001C79.9788 98.7212 80.9202 98.7219 81.4991 99.3006Z" fill="#F2994A"/>
<path d="M71.0002 71.6567C72.2299 71.6567 73.2267 70.6597 73.2267 69.4302C73.2267 68.2007 72.2299 67.2036 71.0002 67.2036H70.9986C69.7689 67.2036 68.7729 68.2007 68.7729 69.4302C68.7729 70.6597 69.7705 71.6567 71.0002 71.6567Z" fill="#F2994A"/>
</svg>
