<svg width="29" height="30" viewBox="0 0 29 30" fill="none" xmlns="http://www.w3.org/2000/svg">
<g clip-path="url(#clip0)">
<path d="M8.71458 29.2583C10.8564 29.2573 12.9218 28.4618 14.511 27.0257C17.1828 29.4272 21.0575 29.9357 24.2587 28.3052C27.46 26.6747 29.3271 23.2418 28.9558 19.6686C28.5846 16.0951 26.052 13.1193 22.5839 12.1815C24.0354 8.55215 22.8865 4.40036 19.7756 2.0333C16.6649 -0.333528 12.3569 -0.333528 9.2462 2.0333C6.13548 4.40036 4.98639 8.55215 6.43809 12.1815C2.23181 13.32 -0.480313 17.398 0.0954145 21.7172C0.671142 26.0365 4.35712 29.2611 8.71458 29.2583ZM12.5789 20.5636C12.5777 19.5294 12.7852 18.5058 13.1893 17.5539C14.0641 17.7025 14.9577 17.7025 15.8325 17.5539C16.9901 20.2842 16.4759 23.4369 14.511 25.6582C13.2666 24.2529 12.5793 22.4408 12.5789 20.5636ZM15.3669 16.651C14.7983 16.718 14.2237 16.718 13.6551 16.651C13.9025 16.231 14.1891 15.8352 14.511 15.4689C14.8327 15.8352 15.1193 16.231 15.3669 16.651ZM15.1931 14.787C16.8189 13.3271 18.9925 12.6339 21.1634 12.8834C20.1105 14.6677 18.3868 15.9557 16.3773 16.4602C16.05 15.8571 15.6523 15.2948 15.1931 14.7851V14.787ZM12.6444 16.464C10.6345 15.9588 8.91058 14.6691 7.85865 12.8834C10.0288 12.633 12.2024 13.3245 13.8289 14.783C13.3692 15.2941 12.9718 15.8578 12.6444 16.4621V16.464ZM28.036 20.5636C28.0412 23.6046 26.2595 26.365 23.4863 27.6129C20.7129 28.8609 17.4654 28.3632 15.1931 26.3421C17.3958 23.8951 18.0142 20.408 16.787 17.3529C19.093 16.7239 21.04 15.1764 22.1733 13.0721C25.6133 13.9309 28.0292 17.018 28.036 20.5636ZM14.511 1.24223C17.1021 1.24223 19.5208 2.54086 20.9525 4.70061C22.3839 6.86035 22.6382 9.59393 21.6289 11.9806C19.0567 11.5593 16.4332 12.3412 14.511 14.1016C12.5888 12.3412 9.96533 11.5593 7.39284 11.9806C6.38384 9.59393 6.63786 6.86035 8.06951 4.70061C9.50116 2.54086 11.9199 1.24223 14.511 1.24223ZM6.84801 13.0721C7.98154 15.1764 9.92854 16.7239 12.2345 17.3529C11.0071 20.408 11.6255 23.8951 13.8284 26.3421C11.4291 28.4696 7.96432 28.8925 5.12389 27.4042C2.28323 25.9162 0.658406 22.8272 1.04144 19.6433C1.42447 16.4595 3.73563 13.8441 6.84801 13.0721Z" fill="#FDBE00"/>
</g>
<defs>
<clipPath id="clip0">
<rect width="29" height="29" fill="white" transform="translate(0 0.25824)"/>
</clipPath>
</defs>
</svg>
