<svg width="115" height="100" viewBox="0 0 115 100" fill="none" xmlns="http://www.w3.org/2000/svg">
<circle cx="45" cy="45" r="45" fill="#E4FFE9"/>
<g clip-path="url(#clip0)">
<path d="M66.6667 70.0001H46.6667C45.7467 70.0001 45 69.2534 45 68.3334C45 67.4134 45.7467 66.6667 46.6667 66.6667H66.6667C67.5867 66.6667 68.3333 67.4134 68.3333 68.3334C68.3333 69.2534 67.5867 70.0001 66.6667 70.0001Z" fill="#27AE60"/>
<path d="M63.3333 80.0001H46.6667C45.7467 80.0001 45 79.2534 45 78.3334C45 77.4134 45.7467 76.6667 46.6667 76.6667H63.3333C64.2533 76.6667 65 77.4134 65 78.3334C65 79.2534 64.2533 80.0001 63.3333 80.0001Z" fill="#27AE60"/>
<path d="M63.3332 43.3333C59.6565 43.3333 56.6665 40.3433 56.6665 36.6667C56.6665 32.99 59.6565 30 63.3332 30C67.0098 30 69.9998 32.99 69.9998 36.6667C69.9998 40.3433 67.0098 43.3333 63.3332 43.3333ZM63.3332 33.3333C61.4965 33.3333 59.9998 34.83 59.9998 36.6667C59.9998 38.5033 61.4965 40 63.3332 40C65.1698 40 66.6665 38.5033 66.6665 36.6667C66.6665 34.83 65.1698 33.3333 63.3332 33.3333Z" fill="#27AE60"/>
<path d="M75 60.0001C74.08 60.0001 73.3333 59.2534 73.3333 58.3334V55.0001C73.3333 52.2434 71.09 50.0001 68.3333 50.0001H58.3333C55.5767 50.0001 53.3333 52.2434 53.3333 55.0001V58.3334C53.3333 59.2534 52.5867 60.0001 51.6667 60.0001C50.7467 60.0001 50 59.2534 50 58.3334V55.0001C50 50.4067 53.74 46.6667 58.3333 46.6667H68.3333C72.9267 46.6667 76.6667 50.4067 76.6667 55.0001V58.3334C76.6667 59.2534 75.92 60.0001 75 60.0001Z" fill="#27AE60"/>
<path d="M66.6667 90H43.3333C38.74 90 35 86.26 35 81.6667V28.3333C35 23.74 38.74 20 43.3333 20H83.3333C87.9267 20 91.6667 23.74 91.6667 28.3333V48.5333C91.6667 49.4533 90.92 50.2 90 50.2C89.08 50.2 88.3333 49.4533 88.3333 48.5333V28.3333C88.3333 25.5767 86.09 23.3333 83.3333 23.3333H43.3333C40.5767 23.3333 38.3333 25.5767 38.3333 28.3333V81.6667C38.3333 84.4233 40.5767 86.6667 43.3333 86.6667H66.6667C67.5867 86.6667 68.3333 87.4133 68.3333 88.3333C68.3333 89.2533 67.5867 90 66.6667 90Z" fill="#27AE60"/>
<path d="M93.3332 100C81.3865 100 71.6665 90.28 71.6665 78.3333C71.6665 66.3866 81.3865 56.6666 93.3332 56.6666C105.28 56.6666 115 66.3866 115 78.3333C115 90.28 105.28 100 93.3332 100ZM93.3332 60C83.2232 60 74.9998 68.2233 74.9998 78.3333C74.9998 88.4433 83.2232 96.6666 93.3332 96.6666C103.443 96.6666 111.666 88.4433 111.666 78.3333C111.666 68.2233 103.443 60 93.3332 60Z" fill="#27AE60"/>
<path d="M90.0002 86.6667C89.5602 86.6667 89.1335 86.4901 88.8202 86.1801L82.1535 79.5134C81.5035 78.8634 81.5035 77.8067 82.1535 77.1567C82.8035 76.5067 83.8602 76.5067 84.5102 77.1567L89.9169 82.5634L100.41 70.5701C101.017 69.8734 102.07 69.8034 102.764 70.4134C103.457 71.0201 103.527 72.0734 102.92 72.7667L91.2535 86.1001C90.9502 86.4467 90.5135 86.6534 90.0535 86.6667C90.0369 86.6667 90.0169 86.6667 90.0002 86.6667Z" fill="#27AE60"/>
</g>
<defs>
<clipPath id="clip0">
<rect width="80" height="80" fill="white" transform="translate(35 20)"/>
</clipPath>
</defs>
</svg>
