<svg width="48" height="47" viewBox="0 0 48 47" fill="none" xmlns="http://www.w3.org/2000/svg">
<path d="M33.5469 0.734375H14.4531C13.6744 0.735395 12.9278 1.04521 12.3771 1.59588C11.8265 2.14654 11.5166 2.89311 11.5156 3.67188V43.3281C11.5166 44.1069 11.8265 44.8535 12.3771 45.4041C12.9278 45.9548 13.6744 46.2646 14.4531 46.2656H33.5469C34.3256 46.2646 35.0722 45.9548 35.6229 45.4041C36.1735 44.8535 36.4834 44.1069 36.4844 43.3281V3.67188C36.4834 2.89311 36.1735 2.14654 35.6229 1.59588C35.0722 1.04521 34.3256 0.735395 33.5469 0.734375ZM27.4369 2.20312L27.0238 3.67188H20.9019L20.5347 2.20312H27.4369ZM35.0156 43.3281C35.0151 43.7175 34.8602 44.0908 34.5849 44.3661C34.3095 44.6415 33.9363 44.7964 33.5469 44.7969H14.4531C14.0637 44.7964 13.6905 44.6415 13.4151 44.3661C13.1398 44.0908 12.9849 43.7175 12.9844 43.3281V3.67188C12.9849 3.28249 13.1398 2.90921 13.4151 2.63388C13.6905 2.35854 14.0637 2.20364 14.4531 2.20312H19.02L19.6158 4.58434C19.6555 4.74321 19.7472 4.88425 19.8762 4.98505C20.0053 5.08584 20.1644 5.1406 20.3281 5.14062H27.5801C27.7401 5.14062 27.8958 5.08834 28.0234 4.99174C28.151 4.89513 28.2435 4.75949 28.2869 4.60545L28.9625 2.20312H33.5469C33.9363 2.20364 34.3095 2.35854 34.5849 2.63388C34.8602 2.90921 35.0151 3.28249 35.0156 3.67188V43.3281Z" fill="#951BB9"/>
<path d="M20.3281 41.8594H15.1875C14.9927 41.8594 14.8059 41.9367 14.6682 42.0745C14.5305 42.2122 14.4531 42.399 14.4531 42.5938C14.4531 42.7885 14.5305 42.9753 14.6682 43.113C14.8059 43.2508 14.9927 43.3281 15.1875 43.3281H20.3281C20.5229 43.3281 20.7097 43.2508 20.8474 43.113C20.9851 42.9753 21.0625 42.7885 21.0625 42.5938C21.0625 42.399 20.9851 42.2122 20.8474 42.0745C20.7097 41.9367 20.5229 41.8594 20.3281 41.8594Z" fill="#951BB9"/>
<path d="M23.2656 41.8594H22.5312C22.3365 41.8594 22.1497 41.9367 22.012 42.0745C21.8742 42.2122 21.7969 42.399 21.7969 42.5938C21.7969 42.7885 21.8742 42.9753 22.012 43.113C22.1497 43.2508 22.3365 43.3281 22.5312 43.3281H23.2656C23.4604 43.3281 23.6472 43.2508 23.7849 43.113C23.9226 42.9753 24 42.7885 24 42.5938C24 42.399 23.9226 42.2122 23.7849 42.0745C23.6472 41.9367 23.4604 41.8594 23.2656 41.8594Z" fill="#951BB9"/>
<path d="M26.581 19.1984C26.4983 19.1488 26.4066 19.1159 26.3112 19.1017C26.2158 19.0876 26.1186 19.0923 26.025 19.1157C25.9315 19.1391 25.8434 19.1807 25.7659 19.2381C25.6884 19.2955 25.623 19.3676 25.5734 19.4503L21.1672 26.794C21.0669 26.9611 21.0372 27.161 21.0844 27.35C21.1317 27.5389 21.252 27.7014 21.419 27.8016C21.5861 27.9018 21.786 27.9316 21.975 27.8843C22.164 27.8371 22.3264 27.7167 22.4266 27.5497L26.8329 20.206C26.8825 20.1233 26.9153 20.0316 26.9295 19.9362C26.9437 19.8408 26.939 19.7436 26.9156 19.65C26.8922 19.5565 26.8506 19.4684 26.7932 19.3909C26.7358 19.3134 26.6637 19.248 26.581 19.1984Z" fill="#951BB9"/>
<path d="M28.9799 19.369C28.9196 19.2937 28.8451 19.231 28.7606 19.1845C28.676 19.138 28.5832 19.1086 28.4873 19.098C28.2937 19.0765 28.0995 19.1328 27.9474 19.2546C27.7953 19.3763 27.6978 19.5535 27.6764 19.7471C27.6549 19.9407 27.7112 20.1349 27.8329 20.287L30.4033 23.4999L27.8329 26.7128C27.7112 26.8649 27.6549 27.0591 27.6764 27.2527C27.6978 27.4463 27.7953 27.6235 27.9474 27.7452C28.0995 27.867 28.2937 27.9233 28.4873 27.9018C28.681 27.8804 28.8581 27.7829 28.9799 27.6308L31.9173 23.9589C32.0216 23.8286 32.0785 23.6668 32.0785 23.4999C32.0785 23.333 32.0216 23.1712 31.9173 23.0409L28.9799 19.369Z" fill="#951BB9"/>
<path d="M19.02 27.6308C19.1417 27.7829 19.3189 27.8804 19.5125 27.9018C19.7061 27.9233 19.9003 27.867 20.0524 27.7452C20.2045 27.6235 20.302 27.4463 20.3235 27.2527C20.345 27.0591 20.2886 26.8649 20.1669 26.7128L17.5966 23.4999L20.1669 20.287C20.2272 20.2117 20.272 20.1253 20.2989 20.0326C20.3258 19.94 20.3341 19.843 20.3235 19.7471C20.3129 19.6512 20.2834 19.5584 20.2369 19.4739C20.1904 19.3894 20.1277 19.3148 20.0524 19.2546C19.9771 19.1943 19.8907 19.1494 19.798 19.1226C19.7054 19.0957 19.6084 19.0873 19.5125 19.098C19.4166 19.1086 19.3238 19.138 19.2393 19.1845C19.1548 19.231 19.0803 19.2937 19.02 19.369L16.0825 23.0409C15.9782 23.1712 15.9214 23.333 15.9214 23.4999C15.9214 23.6668 15.9782 23.8286 16.0825 23.9589L19.02 27.6308Z" fill="#951BB9"/>
</svg>
