<svg width="58" height="58" viewBox="0 0 58 58" fill="none" xmlns="http://www.w3.org/2000/svg">
<path d="M32.0913 24.7806C31.6374 24.354 31.0998 24.0264 30.5126 23.8187C29.9254 23.6109 29.3014 23.5275 28.6802 23.5738C27.8731 23.6309 27.096 23.9031 26.4297 24.3621C25.7633 24.821 25.232 25.45 24.891 26.1838C24.5499 26.9175 24.4115 27.7292 24.4902 28.5345C24.5689 29.3397 24.8618 30.1093 25.3385 30.7631C25.9418 31.5677 26.2721 32.5442 26.281 33.5498V35.3437C26.281 36.0648 26.5674 36.7563 27.0773 37.2662C27.5871 37.776 28.2786 38.0625 28.9997 38.0625C29.7208 38.0625 30.4123 37.776 30.9221 37.2662C31.432 36.7563 31.7184 36.0648 31.7184 35.3437V33.5494C31.7188 32.5617 32.0374 31.6004 32.6271 30.808C33.2163 30.026 33.5338 29.0729 33.5313 28.0937C33.5303 27.4724 33.4021 26.8579 33.1544 26.288C32.9067 25.7182 32.5449 25.2052 32.0913 24.7806V24.7806ZM29.9063 35.3437C29.9063 35.5841 29.8108 35.8146 29.6409 35.9846C29.4709 36.1545 29.2404 36.25 29 36.25C28.7597 36.25 28.5292 36.1545 28.3592 35.9846C28.1893 35.8146 28.0938 35.5841 28.0938 35.3437V34.4556H29.9063V35.3437ZM31.1774 29.7211C30.5377 30.5791 30.1231 31.5837 29.9714 32.6431H28.0279C27.8663 31.5747 27.4456 30.5621 26.8024 29.6937C26.4228 29.1768 26.2403 28.5414 26.2879 27.9018C26.3241 27.3897 26.5045 26.8983 26.8083 26.4845C27.1122 26.0707 27.527 25.7514 28.0047 25.5634C28.4825 25.3755 29.0037 25.3267 29.508 25.4227C30.0123 25.5186 30.4792 25.7554 30.8546 26.1057C31.3445 26.5626 31.6484 27.1843 31.708 27.8516C31.7676 28.5189 31.5786 29.1846 31.1774 29.7211V29.7211Z" fill="#951BB9"/>
<path d="M29 22.6562C29.2404 22.6562 29.4709 22.5608 29.6408 22.3908C29.8108 22.2209 29.9062 21.9904 29.9062 21.75V19.9375C29.9062 19.6971 29.8108 19.4666 29.6408 19.2967C29.4709 19.1267 29.2404 19.0312 29 19.0312C28.7596 19.0312 28.5291 19.1267 28.3592 19.2967C28.1892 19.4666 28.0938 19.6971 28.0938 19.9375V21.75C28.0938 21.9904 28.1892 22.2209 28.3592 22.3908C28.5291 22.5608 28.7596 22.6562 29 22.6562Z" fill="#951BB9"/>
<path d="M25.375 23.5625C25.5543 23.5625 25.7295 23.5094 25.8785 23.4098C26.0276 23.3102 26.1437 23.1687 26.2123 23.0031C26.2809 22.8375 26.2989 22.6553 26.2639 22.4795C26.2289 22.3037 26.1426 22.1422 26.0159 22.0154L25.1096 21.1092C24.9396 20.9392 24.7091 20.8437 24.4688 20.8438C24.2284 20.8438 23.9979 20.9392 23.8279 21.1092C23.658 21.2792 23.5625 21.5097 23.5625 21.75C23.5625 21.9904 23.658 22.2209 23.8279 22.3909L24.7342 23.2971C24.8183 23.3814 24.9182 23.4482 25.0281 23.4938C25.1381 23.5393 25.256 23.5627 25.375 23.5625V23.5625Z" fill="#951BB9"/>
<path d="M32.8904 21.1092L31.9842 22.0154C31.8142 22.1854 31.7188 22.4159 31.7188 22.6563C31.7188 22.8966 31.8142 23.1271 31.9842 23.2971C32.1542 23.4671 32.3847 23.5625 32.625 23.5625C32.8654 23.5625 33.0959 23.4671 33.2659 23.2971L34.1721 22.3909C34.2563 22.3067 34.323 22.2068 34.3686 22.0968C34.4141 21.9869 34.4375 21.869 34.4375 21.75C34.4375 21.631 34.4141 21.5132 34.3686 21.4032C34.323 21.2933 34.2563 21.1933 34.1721 21.1092C34.088 21.025 33.988 20.9583 33.8781 20.9127C33.7681 20.8672 33.6503 20.8438 33.5313 20.8438C33.4123 20.8438 33.2944 20.8672 33.1845 20.9127C33.0745 20.9583 32.9746 21.025 32.8904 21.1092V21.1092Z" fill="#951BB9"/>
<path d="M56.1876 29C56.1859 27.6983 55.718 26.4402 54.8687 25.4538C54.0193 24.4674 52.8447 23.8178 51.5577 23.6228L50.8095 17.6372C52.436 17.0506 53.8342 15.9627 54.8027 14.5303C55.7712 13.0979 56.26 11.3951 56.1985 9.66708C56.1371 7.9391 55.5286 6.27526 54.4608 4.9153C53.393 3.55535 51.921 2.56952 50.257 2.09987C48.5929 1.63022 46.8227 1.70101 45.2015 2.30204C43.5802 2.90307 42.1917 4.0033 41.2359 5.44418C40.2801 6.88506 39.8064 8.59218 39.8831 10.3195C39.9599 12.0469 40.583 13.7053 41.6628 15.0558L37.3037 19.4147C35.236 17.6163 32.6398 16.5389 29.9064 16.3448V11.6906C30.7185 11.5249 31.4695 11.1396 32.0778 10.5766C32.6861 10.0137 33.1284 9.29472 33.3564 8.49791C33.5845 7.70111 33.5897 6.85701 33.3714 6.05747C33.1531 5.25792 32.7197 4.53357 32.1184 3.96322C31.517 3.39287 30.7707 2.99838 29.9608 2.82267C29.1508 2.64697 28.3082 2.69677 27.5245 2.96668C26.7409 3.23658 26.0463 3.71624 25.5163 4.35346C24.9864 4.99068 24.6413 5.76105 24.5187 6.58074L18.0328 8.74226C17.7652 6.96382 16.9181 5.32343 15.623 4.07563C14.3278 2.82782 12.657 2.04239 10.8699 1.8412C9.08269 1.64 7.27908 2.03431 5.73891 2.96292C4.19875 3.89153 3.00814 5.30253 2.35184 6.97696C1.69554 8.65139 1.61024 10.4956 2.1092 12.2235C2.60815 13.9513 3.66345 15.4662 5.11133 16.533C6.55922 17.5998 8.31873 18.1589 10.1168 18.1235C11.9149 18.0881 13.6511 17.4602 15.0559 16.3373L19.2968 20.5783C19.3364 20.6176 19.3795 20.6531 19.4255 20.6845C17.6209 22.7539 16.5397 25.3549 16.3454 28.0938H12.6107C12.4379 27.0715 11.9765 26.12 11.2808 25.3513C10.5852 24.5827 9.68426 24.0289 8.68428 23.7553C7.68431 23.4817 6.62696 23.4996 5.63686 23.8071C4.64676 24.1145 3.76518 24.6986 3.09604 25.4904C2.42689 26.2823 1.99808 27.249 1.86013 28.2765C1.72218 29.304 1.88085 30.3495 2.31744 31.2898C2.75403 32.2302 3.45033 33.0261 4.32429 33.5838C5.19824 34.1415 6.21341 34.4377 7.25014 34.4375C7.3163 34.4375 7.38189 34.4349 7.44759 34.4325L8.82849 39.9565C7.04423 40.2061 5.39262 41.0387 4.13092 42.3248C2.86922 43.6109 2.06828 45.2781 1.85287 47.0668C1.63746 48.8555 2.01966 50.6653 2.93995 52.2141C3.86024 53.763 5.26693 54.964 6.94091 55.63C8.6149 56.2961 10.4622 56.3899 12.195 55.8967C13.9278 55.4035 15.4488 54.351 16.5212 52.9033C17.5935 51.4556 18.157 49.6938 18.1238 47.8925C18.0905 46.0912 17.4625 44.3514 16.3374 42.9442L20.6965 38.5853C23.0003 40.5859 25.9489 41.6874 29 41.6874C32.0512 41.6874 34.9998 40.5859 37.3035 38.5853L41.6626 42.9442C40.8954 43.9004 40.3545 45.0177 40.0805 46.2126C39.8066 47.4075 39.8066 48.6489 40.0806 49.8438H33.4408C33.2162 48.7435 32.5911 47.7659 31.6866 47.1004C30.7822 46.4348 29.6629 46.1288 28.5456 46.2417C27.4284 46.3546 26.3929 46.8782 25.6398 47.7112C24.8868 48.5442 24.4698 49.6271 24.4698 50.75C24.4698 51.8729 24.8868 52.9558 25.6398 53.7888C26.3929 54.6218 27.4284 55.1455 28.5456 55.2583C29.6629 55.3712 30.7822 55.0652 31.6866 54.3997C32.5911 53.7341 33.2162 52.7565 33.4408 51.6563H40.7285C41.3506 52.9096 42.2848 53.9817 43.4411 54.7696C44.5974 55.5575 45.937 56.0346 47.3311 56.155C48.7251 56.2755 50.1267 56.0352 51.401 55.4574C52.6754 54.8795 53.7796 53.9835 54.6075 52.8555C55.4354 51.7275 55.9592 50.4054 56.1284 49.0165C56.2976 47.6275 56.1066 46.2184 55.5737 44.9246C55.0409 43.6308 54.1841 42.4958 53.0858 41.6289C51.9875 40.762 50.6846 40.1922 49.3024 39.9745L51.3935 34.3982C52.714 34.2393 53.9308 33.6025 54.814 32.608C55.6972 31.6135 56.1858 30.3301 56.1876 29V29ZM29.0001 53.4688C28.4624 53.4688 27.9368 53.3093 27.4897 53.0106C27.0426 52.7118 26.6941 52.2872 26.4883 51.7904C26.2826 51.2936 26.2287 50.747 26.3336 50.2196C26.4385 49.6922 26.6975 49.2078 27.0777 48.8276C27.4579 48.4473 27.9424 48.1884 28.4697 48.0835C28.9971 47.9786 29.5438 48.0324 30.0406 48.2382C30.5373 48.444 30.962 48.7925 31.2607 49.2396C31.5594 49.6866 31.7189 50.2123 31.7189 50.75C31.7181 51.4708 31.4313 52.1618 30.9217 52.6715C30.412 53.1812 29.7209 53.4679 29.0001 53.4688V53.4688ZM42.9444 41.6627L38.5854 37.3035C40.3838 35.2359 41.4613 32.6397 41.6554 29.9063H45.39C45.57 30.9591 46.0553 31.9358 46.7856 32.7152C47.5159 33.4946 48.4591 34.0423 49.498 34.2902L47.3935 39.9023C45.7672 40.0286 44.2168 40.6421 42.9444 41.6627V41.6627ZM54.3751 29C54.3751 29.717 54.1625 30.4178 53.7642 31.0139C53.3659 31.6101 52.7997 32.0747 52.1374 32.3491C51.475 32.6234 50.7461 32.6952 50.0429 32.5554C49.3398 32.4155 48.6938 32.0702 48.1869 31.5633C47.6799 31.0563 47.3347 30.4104 47.1948 29.7072C47.0549 29.004 47.1267 28.2752 47.4011 27.6128C47.6754 26.9504 48.1401 26.3843 48.7362 25.9859C49.3323 25.5876 50.0332 25.375 50.7501 25.375C51.7112 25.3761 52.6326 25.7584 53.3122 26.4379C53.9918 27.1175 54.3741 28.0389 54.3751 29ZM49.7356 23.6589C48.6459 23.8679 47.6459 24.4044 46.8693 25.1969C46.0927 25.9894 45.5764 27 45.3896 28.0938H41.6549C41.4608 25.3603 40.3834 22.7641 38.585 20.6965L42.9439 16.3374C43.7914 17.0192 44.7676 17.5232 45.8142 17.8193C46.8608 18.1154 47.9563 18.1976 49.0354 18.061L49.7356 23.6589ZM46.2189 9.96875C46.2189 9.61028 46.3252 9.25985 46.5243 8.96178C46.7235 8.66372 47.0066 8.43141 47.3378 8.29422C47.669 8.15704 48.0334 8.12114 48.385 8.19108C48.7366 8.26102 49.0595 8.43364 49.313 8.68712C49.5665 8.94061 49.7391 9.26356 49.8091 9.61515C49.879 9.96674 49.8431 10.3312 49.7059 10.6624C49.5687 10.9936 49.3364 11.2766 49.0384 11.4758C48.7403 11.675 48.3899 11.7813 48.0314 11.7813C47.5509 11.7807 47.0902 11.5895 46.7504 11.2498C46.4106 10.91 46.2195 10.4493 46.2189 9.96875V9.96875ZM46.2189 13.5938H49.8439C50.2853 13.5945 50.7113 13.7561 51.0421 14.0483C51.3728 14.3405 51.5857 14.7433 51.6409 15.1813C50.5813 15.9178 49.3218 16.3125 48.0314 16.3125C46.741 16.3125 45.4815 15.9178 44.4219 15.1813C44.477 14.7433 44.6899 14.3405 45.0207 14.0483C45.3515 13.7561 45.7775 13.5945 46.2189 13.5938V13.5938ZM48.0314 3.625C49.2117 3.62426 50.3688 3.95303 51.3723 4.57429C52.3759 5.19555 53.1861 6.08462 53.7118 7.14142C54.2374 8.19822 54.4576 9.38077 54.3475 10.5559C54.2375 11.7311 53.8015 12.8522 53.0888 13.793C52.6667 12.9478 51.9328 12.2996 51.042 11.9852C51.4079 11.4395 51.6187 10.8047 51.6518 10.1486C51.6849 9.49242 51.539 8.83962 51.2298 8.25994C50.9206 7.68027 50.4597 7.19552 49.8964 6.85751C49.333 6.51951 48.6884 6.34097 48.0314 6.34097C47.3744 6.34097 46.7298 6.51951 46.1664 6.85751C45.603 7.19552 45.1421 7.68027 44.8329 8.25994C44.5237 8.83962 44.3779 9.49242 44.411 10.1486C44.4441 10.8047 44.6549 11.4395 45.0208 11.9852C44.1301 12.2995 43.3962 12.9476 42.9739 13.7926C42.2614 12.8517 41.8255 11.7307 41.7156 10.5556C41.6056 9.3805 41.8258 8.19804 42.3514 7.14132C42.877 6.0846 43.6872 5.19558 44.6907 4.57435C45.6942 3.95311 46.8512 3.62433 48.0314 3.625V3.625ZM29.0001 4.53125C29.5379 4.53125 30.0635 4.69071 30.5106 4.98945C30.9577 5.28819 31.3062 5.7128 31.5119 6.20958C31.7177 6.70637 31.7716 7.25302 31.6667 7.78041C31.5617 8.30779 31.3028 8.79223 30.9226 9.17245C30.5424 9.55267 30.0579 9.81161 29.5305 9.91651C29.0032 10.0214 28.4565 9.96758 27.9597 9.7618C27.4629 9.55603 27.0383 9.20756 26.7396 8.76046C26.4408 8.31336 26.2814 7.78772 26.2814 7.25C26.2822 6.5292 26.5689 5.83817 27.0786 5.32848C27.5883 4.8188 28.2793 4.53209 29.0001 4.53125V4.53125ZM3.62514 9.96875C3.6243 8.96212 3.86303 7.96974 4.3216 7.07362C4.78016 6.17749 5.4454 5.40337 6.26233 4.81521C7.07927 4.22704 8.02444 3.84174 9.01975 3.69113C10.0151 3.54051 11.0319 3.62892 11.9863 3.94905C12.9407 4.26917 13.8052 4.81182 14.5083 5.53214C15.2115 6.25247 15.7332 7.12979 16.0302 8.0916C16.3272 9.05342 16.3911 10.0721 16.2165 11.0635C16.042 12.0549 15.634 12.9905 15.0263 13.793C14.6042 12.9478 13.8703 12.2996 12.9795 11.9852C13.3454 11.4395 13.5562 10.8047 13.5893 10.1486C13.6224 9.49242 13.4765 8.83962 13.1673 8.25994C12.8582 7.68027 12.3972 7.19552 11.8339 6.85751C11.2705 6.51951 10.6259 6.34097 9.96889 6.34097C9.31191 6.34097 8.66728 6.51951 8.10391 6.85751C7.54055 7.19552 7.07963 7.68027 6.77044 8.25994C6.46125 8.83962 6.3154 9.49242 6.34849 10.1486C6.38159 10.8047 6.59238 11.4395 6.95833 11.9852C6.06755 12.2995 5.33367 12.9476 4.91145 13.7926C4.07586 12.693 3.62399 11.3498 3.62514 9.96875V9.96875ZM8.15639 9.96875C8.15639 9.61028 8.26269 9.25985 8.46185 8.96178C8.66101 8.66372 8.94409 8.43141 9.27528 8.29422C9.60647 8.15704 9.9709 8.12114 10.3225 8.19108C10.6741 8.26102 10.997 8.43364 11.2505 8.68712C11.504 8.94061 11.6766 9.26356 11.7466 9.61515C11.8165 9.96674 11.7806 10.3312 11.6434 10.6624C11.5062 10.9936 11.2739 11.2766 10.9759 11.4758C10.6778 11.675 10.3274 11.7813 9.96889 11.7813C9.48836 11.7807 9.02768 11.5895 8.68789 11.2498C8.3481 10.91 8.15696 10.4493 8.15639 9.96875V9.96875ZM6.35941 15.1813C6.41454 14.7433 6.62743 14.3405 6.95823 14.0483C7.28902 13.7561 7.715 13.5945 8.15639 13.5938H11.7814C12.2228 13.5945 12.6488 13.7561 12.9796 14.0483C13.3103 14.3405 13.5232 14.7433 13.5784 15.1813C12.5188 15.9178 11.2593 16.3125 9.96889 16.3125C8.6785 16.3125 7.41899 15.9178 6.35941 15.1813V15.1813ZM16.3374 15.0558C17.3528 13.7901 17.9653 12.249 18.0959 10.6317L24.6322 8.45294C24.8556 9.2588 25.2969 9.98743 25.9077 10.5587C26.5184 11.1299 27.2749 11.5216 28.0939 11.6906V16.3458C25.355 16.5401 22.754 17.6214 20.6846 19.4259C20.6532 19.3799 20.6177 19.3368 20.5785 19.2972L16.3374 15.0558ZM3.62514 29C3.62514 28.283 3.83774 27.5822 4.23606 26.9861C4.63438 26.3899 5.20053 25.9253 5.86291 25.6509C6.5253 25.3766 7.25416 25.3048 7.95734 25.4447C8.66052 25.5845 9.30644 25.9298 9.8134 26.4367C10.3204 26.9437 10.6656 27.5896 10.8055 28.2928C10.9454 28.996 10.8736 29.7249 10.5992 30.3872C10.3248 31.0496 9.86021 31.6158 9.26408 32.0141C8.66796 32.4124 7.9671 32.625 7.25014 32.625C6.28906 32.6239 5.36766 32.2417 4.68807 31.5621C4.00849 30.8825 3.62622 29.9611 3.62514 29V29ZM12.6107 29.9063H16.3454C16.5394 32.6397 17.6169 35.2359 19.4153 37.3035L15.0564 41.6626C13.8047 40.6584 12.2834 40.0479 10.6848 39.9083L9.2235 34.065C10.0986 33.7224 10.8703 33.1595 11.4637 32.4309C12.0572 31.7022 12.4523 30.8326 12.6107 29.9063V29.9063ZM6.35941 53.2438C6.41454 52.8059 6.62743 52.403 6.95823 52.1108C7.28902 51.8186 7.715 51.657 8.15639 51.6563H11.7814C12.2228 51.657 12.6488 51.8186 12.9796 52.1108C13.3103 52.403 13.5232 52.8059 13.5784 53.2438C12.5188 53.9803 11.2593 54.375 9.96889 54.375C8.6785 54.375 7.41899 53.9803 6.35941 53.2438V53.2438ZM8.15639 48.0313C8.15639 47.6728 8.26269 47.3224 8.46185 47.0243C8.66101 46.7262 8.94409 46.4939 9.27528 46.3567C9.60647 46.2195 9.9709 46.1836 10.3225 46.2536C10.6741 46.3235 10.997 46.4961 11.2505 46.7496C11.504 47.0031 11.6766 47.3261 11.7466 47.6777C11.8165 48.0292 11.7806 48.3937 11.6434 48.7249C11.5062 49.0561 11.2739 49.3391 10.9759 49.5383C10.6778 49.7375 10.3274 49.8438 9.96889 49.8438C9.48836 49.8432 9.02768 49.652 8.68789 49.3123C8.3481 48.9725 8.15696 48.5118 8.15639 48.0313V48.0313ZM15.0263 51.8555C14.6042 51.0103 13.8703 50.3621 12.9795 50.0477C13.3454 49.502 13.5562 48.8672 13.5893 48.2111C13.6224 47.5549 13.4765 46.9021 13.1673 46.3224C12.8582 45.7428 12.3972 45.258 11.8339 44.92C11.2705 44.582 10.6259 44.4035 9.96889 44.4035C9.31191 44.4035 8.66728 44.582 8.10391 44.92C7.54055 45.258 7.07963 45.7428 6.77044 46.3224C6.46125 46.9021 6.3154 47.5549 6.34849 48.2111C6.38159 48.8672 6.59238 49.502 6.95833 50.0477C6.06755 50.362 5.33367 51.0101 4.91145 51.8551C4.19876 50.9139 3.76286 49.7925 3.65278 48.617C3.5427 47.4416 3.76282 46.2587 4.28836 45.2016C4.81391 44.1444 5.62403 43.2549 6.62758 42.633C7.63114 42.0112 8.7883 41.6818 9.96889 41.6818C11.1495 41.6818 12.3066 42.0112 13.3102 42.633C14.3138 43.2549 15.1239 44.1444 15.6494 45.2016C16.175 46.2587 16.3951 47.4416 16.285 48.617C16.1749 49.7925 15.739 50.9139 15.0263 51.8551V51.8555ZM18.1251 29C18.1251 26.8491 18.7629 24.7466 19.9579 22.9582C21.1529 21.1698 22.8513 19.7759 24.8385 18.9528C26.8256 18.1297 29.0122 17.9144 31.1217 18.334C33.2313 18.7536 35.169 19.7893 36.6899 21.3102C38.2108 22.8311 39.2466 24.7689 39.6662 26.8784C40.0858 28.9879 39.8704 31.1745 39.0473 33.1617C38.2242 35.1488 36.8304 36.8473 35.042 38.0422C33.2536 39.2372 31.151 39.875 29.0001 39.875C26.1169 39.8718 23.3527 38.725 21.3139 36.6862C19.2752 34.6475 18.1284 31.8832 18.1251 29V29ZM44.4219 53.2438C44.477 52.8059 44.6899 52.403 45.0207 52.1108C45.3515 51.8186 45.7775 51.657 46.2189 51.6563H49.8439C50.2853 51.657 50.7113 51.8186 51.0421 52.1108C51.3728 52.403 51.5857 52.8059 51.6409 53.2438C50.5813 53.9803 49.3218 54.375 48.0314 54.375C46.741 54.375 45.4815 53.9803 44.4219 53.2438V53.2438ZM46.2189 48.0313C46.2189 47.6728 46.3252 47.3224 46.5243 47.0243C46.7235 46.7262 47.0066 46.4939 47.3378 46.3567C47.669 46.2195 48.0334 46.1836 48.385 46.2536C48.7366 46.3235 49.0595 46.4961 49.313 46.7496C49.5665 47.0031 49.7391 47.3261 49.8091 47.6777C49.879 48.0292 49.8431 48.3937 49.7059 48.7249C49.5687 49.0561 49.3364 49.3391 49.0384 49.5383C48.7403 49.7375 48.3899 49.8438 48.0314 49.8438C47.5509 49.8432 47.0902 49.652 46.7504 49.3123C46.4106 48.9725 46.2195 48.5118 46.2189 48.0313V48.0313ZM54.3751 48.0313C54.3764 49.4124 53.9245 50.7559 53.0888 51.8555C52.6667 51.0103 51.9328 50.3621 51.042 50.0477C51.4079 49.502 51.6187 48.8672 51.6518 48.2111C51.6849 47.5549 51.539 46.9021 51.2298 46.3224C50.9206 45.7428 50.4597 45.258 49.8964 44.92C49.333 44.582 48.6884 44.4035 48.0314 44.4035C47.3744 44.4035 46.7298 44.582 46.1664 44.92C45.603 45.258 45.1421 45.7428 44.8329 46.3224C44.5237 46.9021 44.3779 47.5549 44.411 48.2111C44.4441 48.8672 44.6549 49.502 45.0208 50.0477C44.1301 50.362 43.3962 51.0101 42.9739 51.8551C42.3671 51.0526 41.9599 50.1173 41.7859 49.1263C41.6119 48.1354 41.6762 47.1173 41.9734 46.1561C42.2706 45.1949 42.7922 44.3181 43.4951 43.5983C44.198 42.8785 45.0621 42.3363 46.016 42.0164C46.9699 41.6964 47.9862 41.608 48.981 41.7585C49.9758 41.9089 50.9205 42.2938 51.7371 42.8814C52.5538 43.4691 53.2189 44.2425 53.6776 45.138C54.1363 46.0334 54.3754 47.0252 54.3751 48.0313Z" fill="#951BB9"/>
</svg>
