<svg width="50" height="49" viewBox="0 0 50 49" fill="none" xmlns="http://www.w3.org/2000/svg">
<path d="M42.1399 28.5388L41.9129 28.6613C40.9958 27.5484 39.4071 27.1172 38.1966 27.7307C38.1923 27.7328 38.188 27.7351 38.1838 27.7373L37.6479 28.0258C37.0087 27.4846 36.2182 27.1538 35.3841 27.0784C34.55 27.003 33.7129 27.1868 32.9871 27.6047L30.1012 29.1742H26.261C25.4295 29.1731 24.6088 28.9851 23.8598 28.624L23.3315 28.3685C21.8275 27.6367 20.1503 27.3354 18.4857 27.498C16.821 27.6606 15.2338 28.2807 13.8998 29.2897C13.8873 29.2992 13.875 29.3088 13.8633 29.3196L12.5879 30.455C12.1059 30.8831 11.5361 31.2007 10.9185 31.3856L10.1942 29.0077C10.1583 28.89 10.0855 28.787 9.98665 28.7137C9.88776 28.6405 9.76797 28.601 9.64492 28.601H3.47657C3.3953 28.601 3.31495 28.6182 3.24084 28.6516C3.16673 28.685 3.10055 28.7337 3.04667 28.7945C2.99279 28.8554 2.95244 28.9269 2.92828 29.0046C2.90413 29.0822 2.89673 29.164 2.90656 29.2447L4.96265 46.1037C4.97962 46.243 5.04696 46.3712 5.15197 46.4642C5.25698 46.5571 5.3924 46.6085 5.53266 46.6085H14.7847C14.8744 46.6085 14.9629 46.5874 15.043 46.5471C15.1232 46.5067 15.1927 46.4481 15.2461 46.376C15.2995 46.3039 15.3353 46.2202 15.3505 46.1318C15.3658 46.0434 15.3601 45.9526 15.3339 45.8668L14.1185 41.8784L17.9039 39.4859C18.4104 39.2056 19.0046 39.1287 19.5658 39.2708C19.5777 39.2738 19.5896 39.2765 19.6017 39.2786L27.3019 40.6965C29.3945 41.0709 31.552 40.7663 33.4591 39.8271C33.4835 39.8151 33.507 39.8014 33.5294 39.786L46.8478 30.6414C46.9684 30.5585 47.0529 30.4327 47.0839 30.2897C47.1149 30.1467 47.0902 29.9972 47.0147 29.8718C46.5301 29.0647 45.7528 28.4756 44.8447 28.2273C43.9366 27.979 42.9678 28.0906 42.1399 28.5388ZM38.7216 28.752C39.4217 28.4014 40.303 28.6888 40.866 29.226L35.8155 31.9507L35.5188 32.107C35.3589 31.6529 35.1252 31.2283 34.8271 30.8503L38.7216 28.752ZM33.5429 28.6099C33.5474 28.6073 33.5524 28.6048 33.5564 28.6021C34.0088 28.3407 34.523 28.2053 35.0454 28.2102C35.5679 28.2152 36.0794 28.3601 36.5268 28.6301L33.959 30.0126C33.4694 29.6553 32.9109 29.4039 32.3188 29.2744L33.5429 28.6099ZM6.04065 45.46L4.12515 29.7494H9.21933L14.0093 45.46H6.04065ZM32.9126 38.8153C31.2358 39.6315 29.3432 39.8945 27.5073 39.5664L19.8261 38.1519C18.9812 37.9433 18.0886 38.0642 17.3297 38.4902C17.3208 38.4951 17.3119 38.5004 17.3032 38.506L13.7703 40.7394L11.2533 32.4849C12.0294 32.251 12.7452 31.8507 13.3508 31.3119L14.6083 30.1921C15.7733 29.3163 17.1574 28.779 18.6083 28.6394C20.0591 28.4998 21.5203 28.7634 22.8309 29.4011L23.3591 29.6567C24.2641 30.0929 25.2556 30.3201 26.2603 30.3214H31.3828C32.1356 30.3225 32.8645 30.5857 33.4444 31.0658C34.0242 31.5459 34.4187 32.2129 34.5602 32.9523L30.8474 32.7844C29.4976 32.7237 28.1452 32.7862 26.8068 32.9711C26.6571 32.9933 26.5222 33.0737 26.4315 33.1948C26.3408 33.3159 26.3016 33.4679 26.3223 33.6178C26.3431 33.7677 26.4222 33.9034 26.5424 33.9953C26.6626 34.0872 26.8142 34.1279 26.9643 34.1086C28.2333 33.9332 29.5157 33.874 30.7954 33.9317L35.1648 34.1294C35.1735 34.1294 35.1823 34.1299 35.1909 34.1299C35.3432 34.1299 35.4892 34.0694 35.5969 33.9618C35.7046 33.8541 35.7651 33.708 35.7651 33.5557C35.7651 33.4628 35.7612 33.3707 35.7555 33.2791L36.3547 32.9633L42.6854 29.549C43.1716 29.2857 43.7311 29.1904 44.277 29.2779C44.823 29.3655 45.3247 29.6308 45.7042 30.0329L32.9126 38.8153Z" fill="#951BB9"/>
<path d="M7.86719 43.0844C7.86719 43.442 7.97322 43.7915 8.17186 44.0888C8.37051 44.3861 8.65285 44.6178 8.98319 44.7547C9.31353 44.8915 9.67702 44.9273 10.0277 44.8575C10.3784 44.7878 10.7005 44.6156 10.9533 44.3628C11.2062 44.1099 11.3784 43.7878 11.4481 43.4371C11.5179 43.0864 11.4821 42.723 11.3452 42.3926C11.2084 42.0623 10.9767 41.7799 10.6794 41.5813C10.3821 41.3826 10.0326 41.2766 9.67502 41.2766C9.19571 41.2771 8.7362 41.4678 8.39728 41.8067C8.05836 42.1456 7.86772 42.6051 7.86719 43.0844ZM9.67502 42.425C9.80543 42.425 9.93292 42.4637 10.0414 42.5362C10.1498 42.6086 10.2343 42.7116 10.2842 42.8321C10.3341 42.9526 10.3472 43.0852 10.3217 43.2131C10.2963 43.341 10.2335 43.4585 10.1413 43.5507C10.0491 43.6429 9.93157 43.7057 9.80366 43.7312C9.67575 43.7566 9.54317 43.7435 9.42268 43.6936C9.30219 43.6437 9.19921 43.5592 9.12675 43.4508C9.0543 43.3423 9.01562 43.2149 9.01562 43.0844C9.01593 42.9097 9.0855 42.7421 9.2091 42.6186C9.3327 42.495 9.50025 42.4255 9.67502 42.4252V42.425Z" fill="#951BB9"/>
<path d="M29.3662 8.64239V6.75014C29.3608 5.5977 28.8992 4.49429 28.0824 3.68129C27.2656 2.86829 26.16 2.41187 25.0076 2.41187C23.8551 2.41187 22.7496 2.86829 21.9327 3.68129C21.1159 4.49429 20.6543 5.5977 20.6489 6.75014V8.64239C20.6543 9.79484 21.1159 10.8982 21.9327 11.7112C22.7496 12.5242 23.8551 12.9807 25.0076 12.9807C26.16 12.9807 27.2656 12.5242 28.0824 11.7112C28.8992 10.8982 29.3608 9.79484 29.3662 8.64239ZM21.7974 8.64239V6.75014C21.802 5.90178 22.1423 5.08974 22.7438 4.49148C23.3453 3.89323 24.1592 3.55741 25.0076 3.55741C25.856 3.55741 26.6698 3.89323 27.2714 4.49148C27.8729 5.08974 28.2132 5.90178 28.2178 6.75014V8.64239C28.2132 9.49075 27.8729 10.3028 27.2714 10.901C26.6698 11.4993 25.856 11.8351 25.0076 11.8351C24.1592 11.8351 23.3453 11.4993 22.7438 10.901C22.1423 10.3028 21.802 9.49075 21.7974 8.64239Z" fill="#951BB9"/>
<path d="M17.9819 24.8276H32.0332C32.1855 24.8276 32.3316 24.7671 32.4393 24.6594C32.5469 24.5517 32.6074 24.4057 32.6074 24.2534V22.9354H42.2266C42.3789 22.9354 42.5249 22.8749 42.6326 22.7672C42.7403 22.6595 42.8008 22.5134 42.8008 22.3611V18.6341C42.8002 17.5405 42.3833 16.4881 41.6348 15.6907C40.8863 14.8934 39.8623 14.4109 38.7709 14.3412C38.4647 14.3187 38.3072 14.5126 38.1796 14.6683C37.9255 14.9787 37.604 15.227 37.2394 15.3943C36.8749 15.5616 36.477 15.6435 36.076 15.6337C35.675 15.6239 35.2815 15.5227 34.9256 15.3378C34.5697 15.1529 34.2606 14.8892 34.022 14.5668C33.9672 14.4926 33.8953 14.4327 33.8124 14.3922C33.7296 14.3516 33.6381 14.3317 33.5459 14.3339C32.8 14.3507 32.0716 14.5632 31.4336 14.9502C31.0125 14.4604 30.4973 14.0602 29.9187 13.7732C29.34 13.4862 28.7096 13.3182 28.0649 13.2793C27.7682 13.2672 27.6182 13.4474 27.4728 13.6238C27.1747 13.9881 26.7974 14.2795 26.3696 14.4759C25.9418 14.6722 25.4749 14.7683 25.0043 14.7568C24.5338 14.7453 24.0721 14.6266 23.6544 14.4096C23.2367 14.1926 22.8741 13.8831 22.5941 13.5047C22.5394 13.4304 22.4675 13.3704 22.3846 13.3299C22.3017 13.2894 22.2102 13.2695 22.118 13.2719C20.8587 13.3011 19.6612 13.8234 18.7832 14.7266C18.7107 14.8008 18.6419 14.8776 18.5748 14.9556C17.9818 14.5947 17.3098 14.3837 16.617 14.341C16.3118 14.3185 16.1532 14.5124 16.0256 14.6681C15.7716 14.9785 15.4501 15.2268 15.0855 15.3941C14.721 15.5614 14.3231 15.6433 13.9221 15.6335C13.5211 15.6237 13.1277 15.5225 12.7717 15.3376C12.4158 15.1527 12.1068 14.889 11.8682 14.5666C11.8133 14.4925 11.7414 14.4326 11.6585 14.3921C11.5757 14.3516 11.4843 14.3316 11.3921 14.3338C10.2704 14.3623 9.20435 14.8279 8.42109 15.6312C7.63783 16.4346 7.19938 17.5121 7.19922 18.6341V22.3611C7.19922 22.5134 7.25972 22.6595 7.3674 22.7672C7.47509 22.8749 7.62115 22.9354 7.77344 22.9354H17.4077V24.2534C17.4077 24.4057 17.4682 24.5517 17.5759 24.6594C17.6836 24.7671 17.8296 24.8276 17.9819 24.8276ZM33.3007 15.5006C33.6547 15.9024 34.09 16.2245 34.5778 16.4456C35.0655 16.6667 35.5947 16.7817 36.1302 16.7831C36.6657 16.7845 37.1954 16.6723 37.6844 16.4537C38.1733 16.2352 38.6102 15.9154 38.9663 15.5154C39.713 15.6281 40.3946 16.0046 40.8875 16.5768C41.3803 17.149 41.6516 17.8789 41.6523 18.6341V21.7869H32.6074V18.1032C32.608 17.3385 32.4261 16.5848 32.0768 15.9045C32.452 15.6857 32.869 15.5481 33.3007 15.5006ZM21.8705 14.4378C22.2675 14.8974 22.7586 15.2664 23.3106 15.5198C23.8626 15.7732 24.4626 15.9051 25.0699 15.9065C25.6773 15.908 26.2779 15.7789 26.8311 15.5282C27.3842 15.2774 27.8771 14.9107 28.2763 14.453C29.158 14.5749 29.9659 15.0116 30.5509 15.6825C31.1359 16.3533 31.4586 17.2131 31.4594 18.1032V23.6792H18.5561V18.1032C18.5618 17.1918 18.9028 16.3143 19.5142 15.6383C20.1255 14.9622 20.9642 14.5349 21.8705 14.4378ZM8.34766 21.7869V18.6341C8.35251 17.8604 8.63966 17.1151 9.15518 16.5382C9.67069 15.9613 10.3791 15.5925 11.1474 15.501C11.5014 15.9026 11.9366 16.2246 12.4243 16.4456C12.912 16.6666 13.4411 16.7816 13.9765 16.783C14.5119 16.7844 15.0415 16.6721 15.5304 16.4536C16.0192 16.2351 16.4561 15.9153 16.8121 15.5154C17.2075 15.5745 17.5879 15.7087 17.9328 15.9108C17.5866 16.5897 17.4066 17.3412 17.4077 18.1032V21.7869H8.34766Z" fill="#951BB9"/>
<path d="M39.9638 10.3531V8.69675C39.9638 7.66594 39.5543 6.67734 38.8254 5.94845C38.0965 5.21955 37.1079 4.81006 36.0771 4.81006C35.0463 4.81006 34.0577 5.21955 33.3288 5.94845C32.5999 6.67734 32.1904 7.66594 32.1904 8.69675V10.3531C32.1904 11.3839 32.5999 12.3725 33.3288 13.1014C34.0577 13.8303 35.0463 14.2398 36.0771 14.2398C37.1079 14.2398 38.0965 13.8303 38.8254 13.1014C39.5543 12.3725 39.9638 11.3839 39.9638 10.3531ZM33.3389 10.3531V8.69675C33.3389 7.97052 33.6274 7.27404 34.1409 6.76051C34.6544 6.24699 35.3509 5.9585 36.0771 5.9585C36.8034 5.9585 37.4998 6.24699 38.0134 6.76051C38.5269 7.27404 38.8154 7.97052 38.8154 8.69675V10.3531C38.8154 11.0793 38.5269 11.7758 38.0134 12.2893C37.4998 12.8029 36.8034 13.0913 36.0771 13.0913C35.3509 13.0913 34.6544 12.8029 34.1409 12.2893C33.6274 11.7758 33.3389 11.0793 33.3389 10.3531Z" fill="#951BB9"/>
<path d="M17.8095 10.3531V8.69675C17.8095 8.18635 17.709 7.68094 17.5137 7.20938C17.3183 6.73782 17.032 6.30936 16.6711 5.94845C16.3102 5.58753 15.8818 5.30124 15.4102 5.10592C14.9386 4.91059 14.4332 4.81006 13.9228 4.81006C13.4124 4.81006 12.907 4.91059 12.4355 5.10592C11.9639 5.30124 11.5354 5.58753 11.1745 5.94845C10.8136 6.30936 10.5273 6.73782 10.332 7.20938C10.1367 7.68094 10.0361 8.18635 10.0361 8.69675V10.3531C10.0361 10.8635 10.1367 11.3689 10.332 11.8405C10.5273 12.312 10.8136 12.7405 11.1745 13.1014C11.5354 13.4623 11.9639 13.7486 12.4355 13.9439C12.907 14.1393 13.4124 14.2398 13.9228 14.2398C14.4332 14.2398 14.9386 14.1393 15.4102 13.9439C15.8818 13.7486 16.3102 13.4623 16.6711 13.1014C17.032 12.7405 17.3183 12.312 17.5137 11.8405C17.709 11.3689 17.8095 10.8635 17.8095 10.3531ZM11.1846 10.3531V8.69675C11.1846 7.97052 11.4731 7.27404 11.9866 6.76051C12.5001 6.24699 13.1966 5.9585 13.9228 5.9585C14.6491 5.9585 15.3455 6.24699 15.8591 6.76051C16.3726 7.27404 16.6611 7.97052 16.6611 8.69675V10.3531C16.6611 10.7127 16.5903 11.0688 16.4526 11.401C16.315 11.7332 16.1133 12.0351 15.8591 12.2893C15.6048 12.5436 15.3029 12.7453 14.9707 12.8829C14.6385 13.0205 14.2824 13.0913 13.9228 13.0913C13.5632 13.0913 13.2072 13.0205 12.8749 12.8829C12.5427 12.7453 12.2409 12.5436 11.9866 12.2893C11.7323 12.0351 11.5306 11.7332 11.393 11.401C11.2554 11.0688 11.1846 10.7127 11.1846 10.3531Z" fill="#951BB9"/>
</svg>
