<svg width="50" height="49" viewBox="0 0 50 49" fill="none" xmlns="http://www.w3.org/2000/svg">
<path d="M8.31934 11.468V20.851H17.7023" stroke="#951BB9" stroke-width="2" stroke-linecap="round" stroke-linejoin="round"/>
<path d="M41.6808 36.4893V27.1063H32.2979" stroke="#951BB9" stroke-width="2" stroke-linecap="round" stroke-linejoin="round"/>
<path d="M37.8748 19.4598C37.1057 17.301 35.7986 15.3708 34.0754 13.8495C32.3522 12.3281 30.2691 11.2652 28.0205 10.7598C25.7719 10.2544 23.431 10.3231 21.2164 10.9594C19.0017 11.5957 16.9854 12.7789 15.3556 14.3986L8.31934 20.9661M41.681 26.9913L34.6448 33.5588C33.015 35.1785 30.9987 36.3618 28.784 36.9981C26.5693 37.6344 24.2285 37.7031 21.9799 37.1977C19.7313 36.6923 17.6482 35.6294 15.925 34.108C14.2018 32.5867 12.8947 30.6565 12.1256 28.4976" stroke="#951BB9" stroke-width="2" stroke-linecap="round" stroke-linejoin="round"/>
</svg>
