<svg width="51" height="51" viewBox="0 0 51 51" fill="none" xmlns="http://www.w3.org/2000/svg">
<g clip-path="url(#clip0)">
<path d="M50.8667 25.0019L39.3649 5.08008C39.187 4.77189 38.8581 4.58203 38.5022 4.58203H30.5332C30.1773 4.58203 29.8485 4.77189 29.6706 5.08008C29.4926 5.38827 29.4926 5.76798 29.6706 6.07617L40.8849 25.4999L29.6706 44.9237C29.4926 45.2319 29.4926 45.6116 29.6706 45.9198C29.8485 46.2279 30.1773 46.4178 30.5332 46.4178H38.5022C38.8581 46.4178 39.187 46.2279 39.3649 45.9198L50.8667 25.998C51.0446 25.6898 51.0446 25.3101 50.8667 25.0019V25.0019ZM37.9271 44.4256H32.2586L42.8977 25.998C43.0757 25.6898 43.0757 25.3101 42.8977 25.0019L32.2586 6.57421H37.9272L48.8539 25.4999L37.9271 44.4256Z" fill="#951BB9"/>
<path d="M36.0981 25.002L24.5962 5.0802C24.4183 4.77201 24.0895 4.58215 23.7336 4.58215H15.7647C15.4088 4.58215 15.08 4.77201 14.9021 5.0802C14.7241 5.38839 14.7241 5.7681 14.9021 6.07629L18.4114 12.1545C18.6863 12.6308 19.2956 12.7942 19.772 12.5191C20.2485 12.244 20.4117 11.6349 20.1366 11.1584L17.49 6.57433H23.1586L34.0854 25.5L23.1586 44.4257H17.49L28.1291 25.9981C28.3071 25.6899 28.3071 25.3102 28.1291 25.002L24.6196 18.9234C24.3445 18.4469 23.7354 18.2837 23.259 18.5588C22.7825 18.8339 22.6193 19.443 22.8944 19.9194L26.1163 25.5L14.9021 44.9238C14.7241 45.232 14.7241 45.6117 14.9021 45.9199C15.08 46.2281 15.4088 46.4179 15.7647 46.4179H23.7336C24.0895 46.4179 24.4183 46.2281 24.5962 45.9199L36.0981 25.9981C36.276 25.6899 36.276 25.3102 36.0981 25.002V25.002Z" fill="#951BB9"/>
<path d="M21.3296 25.002L9.82775 5.0802C9.64984 4.77201 9.32103 4.58215 8.96513 4.58215H0.996115C0.640212 4.58215 0.311403 4.77201 0.133501 5.0802C-0.0445003 5.38839 -0.0445003 5.7681 0.133501 6.07629L11.3478 25.5L0.133501 44.9238C-0.0445003 45.232 -0.0445003 45.6117 0.133501 45.9199C0.311403 46.2281 0.640212 46.4179 0.996115 46.4179H8.96513C9.32103 46.4179 9.64984 46.2281 9.82775 45.9199L21.3296 25.9981C21.5076 25.6899 21.5076 25.3102 21.3296 25.002V25.002ZM8.39009 44.4257H2.72144L13.3606 25.9981C13.5386 25.6899 13.5386 25.3102 13.3606 25.002L2.72144 6.57433H8.39009L19.3168 25.5L8.39009 44.4257Z" fill="#951BB9"/>
<path d="M22.512 15.5392C22.512 14.9891 22.0661 14.5431 21.5159 14.5431H21.5152C20.9651 14.5431 20.5195 14.9891 20.5195 15.5392C20.5195 16.0892 20.9658 16.5353 21.5159 16.5353C22.0661 16.5353 22.512 16.0892 22.512 15.5392Z" fill="#951BB9"/>
</g>
<defs>
<clipPath id="clip0">
<rect width="51" height="51" fill="white"/>
</clipPath>
</defs>
</svg>
