<svg width="62" height="61" viewBox="0 0 62 61" fill="none" xmlns="http://www.w3.org/2000/svg">
<path d="M10.9844 45.75C10.0418 45.75 9.12044 45.4705 8.33674 44.9469C7.55303 44.4232 6.94221 43.6789 6.58151 42.8081C6.22081 41.9373 6.12644 40.9791 6.31032 40.0547C6.4942 39.1302 6.94809 38.2811 7.61457 37.6146C8.28106 36.9481 9.13021 36.4942 10.0547 36.3103C10.9791 36.1264 11.9373 36.2208 12.8081 36.5815C13.6789 36.9422 14.4232 37.553 14.9468 38.3367C15.4705 39.1204 15.75 40.0418 15.75 40.9844C15.7485 42.2478 15.2459 43.4591 14.3525 44.3525C13.4591 45.2459 12.2478 45.7485 10.9844 45.75V45.75ZM10.9844 38.125C10.4188 38.125 9.86602 38.2927 9.39579 38.6069C8.92557 38.9211 8.55908 39.3677 8.34266 39.8901C8.12624 40.4126 8.06961 40.9876 8.17994 41.5422C8.29027 42.0969 8.5626 42.6064 8.96249 43.0063C9.36238 43.4062 9.87188 43.6785 10.4265 43.7888C10.9812 43.8991 11.5561 43.8425 12.0786 43.6261C12.6011 43.4097 13.0477 43.0432 13.3619 42.573C13.6761 42.1027 13.8438 41.5499 13.8438 40.9844C13.8438 40.226 13.5425 39.4987 13.0063 38.9625C12.47 38.4263 11.7427 38.125 10.9844 38.125Z" fill="#951BB9"/>
<path d="M14.2145 51.729C16.5277 48.5779 19.5625 43.8943 19.5625 40.9844C19.5625 38.7093 18.6587 36.5274 17.05 34.9187C15.4413 33.31 13.2594 32.4062 10.9844 32.4062C8.70931 32.4062 6.52743 33.31 4.91872 34.9187C3.31001 36.5274 2.40625 38.7093 2.40625 40.9844C2.40625 43.8943 5.441 48.5779 7.75423 51.729C5.01209 52.1807 2.40625 53.2892 2.40625 55.2812C2.40625 57.7842 6.72105 59.0938 10.9844 59.0938C15.2477 59.0938 19.5625 57.7842 19.5625 55.2812C19.5625 53.2892 16.9567 52.1807 14.2145 51.729ZM10.9844 34.3125C12.7532 34.3145 14.4491 35.0181 15.6999 36.2689C16.9507 37.5197 17.6542 39.2155 17.6562 40.9844C17.6562 43.8266 13.3567 49.8294 10.9844 52.8165C8.61205 49.8294 4.3125 43.8266 4.3125 40.9844C4.31452 39.2155 5.01809 37.5197 6.26888 36.2689C7.51966 35.0181 9.2155 34.3145 10.9844 34.3125V34.3125ZM10.9844 57.1875C6.65052 57.1875 4.3125 55.835 4.3125 55.2812C4.3125 54.8809 5.75553 53.8125 9.07812 53.4837C9.65 54.2157 10.0846 54.7427 10.2486 54.9391C10.338 55.0463 10.4499 55.1326 10.5764 55.1919C10.7029 55.2511 10.8409 55.2818 10.9806 55.2818C11.1202 55.2818 11.2582 55.2511 11.3847 55.1919C11.5112 55.1326 11.6231 55.0463 11.7126 54.9391C11.8765 54.7427 12.3102 54.2157 12.883 53.4837C16.2094 53.8125 17.6486 54.8809 17.6486 55.2812C17.6563 55.835 15.3182 57.1875 10.9844 57.1875Z" fill="#951BB9"/>
<path d="M51.0156 15.25C50.0731 15.25 49.1517 14.9705 48.368 14.4468C47.5843 13.9232 46.9735 13.1789 46.6128 12.3081C46.2521 11.4373 46.1577 10.4791 46.3416 9.55465C46.5255 8.63021 46.9793 7.78106 47.6458 7.11457C48.3123 6.44809 49.1615 5.9942 50.0859 5.81032C51.0103 5.62644 51.9686 5.72081 52.8394 6.08151C53.7102 6.44221 54.4545 7.05303 54.9781 7.83674C55.5018 8.62044 55.7813 9.54183 55.7813 10.4844C55.7797 11.7478 55.2772 12.9591 54.3838 13.8525C53.4904 14.7459 52.2791 15.2485 51.0156 15.25V15.25ZM51.0156 7.625C50.4501 7.625 49.8973 7.7927 49.427 8.10689C48.9568 8.42109 48.5903 8.86766 48.3739 9.39014C48.1575 9.91262 48.1009 10.4875 48.2112 11.0422C48.3215 11.5969 48.5939 12.1064 48.9937 12.5063C49.3936 12.9062 49.9031 13.1785 50.4578 13.2888C51.0125 13.3991 51.5874 13.3425 52.1099 13.1261C52.6323 12.9097 53.0789 12.5432 53.3931 12.073C53.7073 11.6027 53.875 11.0499 53.875 10.4844C53.875 9.72602 53.5738 8.99873 53.0375 8.46249C52.5013 7.92626 51.774 7.625 51.0156 7.625V7.625Z" fill="#951BB9"/>
<path d="M54.2458 21.229C56.559 18.0779 59.5938 13.3943 59.5938 10.4844C59.5937 8.20931 58.69 6.02743 57.0813 4.41872C55.4726 2.81001 53.2907 1.90625 51.0156 1.90625C48.7406 1.90625 46.5587 2.81001 44.95 4.41872C43.3413 6.02743 42.4375 8.20931 42.4375 10.4844C42.4375 13.3943 45.4723 18.0779 47.7855 21.229C45.0433 21.6817 42.4375 22.7902 42.4375 24.7812C42.4375 27.2842 46.7523 28.5938 51.0156 28.5938C55.279 28.5938 59.5938 27.2842 59.5938 24.7812C59.5938 22.7902 56.9879 21.6817 54.2458 21.229ZM51.0156 3.8125C52.7845 3.81452 54.4803 4.51809 55.7311 5.76888C56.9819 7.01966 57.6855 8.7155 57.6875 10.4844C57.6875 13.3266 53.387 19.3294 51.0156 22.3165C48.6443 19.3294 44.3438 13.3266 44.3438 10.4844C44.3458 8.7155 45.0493 7.01966 46.3001 5.76888C47.5509 4.51809 49.2468 3.81452 51.0156 3.8125V3.8125ZM51.0156 26.6875C46.6818 26.6875 44.3438 25.335 44.3438 24.7812C44.3438 24.3809 45.7868 23.3125 49.1094 22.9837C49.6813 23.7157 50.1159 24.2427 50.2798 24.4391C50.3693 24.5463 50.4812 24.6326 50.6077 24.6919C50.7342 24.7511 50.8721 24.7818 51.0118 24.7818C51.1515 24.7818 51.2894 24.7511 51.4159 24.6919C51.5424 24.6326 51.6544 24.5463 51.7438 24.4391C51.9077 24.2427 52.3414 23.7157 52.9143 22.9837C56.2407 23.3125 57.6799 24.3809 57.6799 24.7812C57.6875 25.335 55.3495 26.6875 51.0156 26.6875Z" fill="#951BB9"/>
<path d="M49.1094 53.375H21.4688C21.216 53.375 20.9735 53.2746 20.7948 53.0958C20.616 52.9171 20.5156 52.6747 20.5156 52.4219C20.5156 52.1691 20.616 51.9267 20.7948 51.7479C20.9735 51.5692 21.216 51.4688 21.4688 51.4688H49.1094C51.3844 51.4688 53.5663 50.565 55.175 48.9563C56.7837 47.3476 57.6875 45.1657 57.6875 42.8906C57.6875 40.6156 56.7837 38.4337 55.175 36.825C53.5663 35.2163 51.3844 34.3125 49.1094 34.3125H24.3281C21.5475 34.3125 18.8808 33.2079 16.9146 31.2417C14.9483 29.2755 13.8438 26.6088 13.8438 23.8281C13.8438 21.0475 14.9483 18.3808 16.9146 16.4146C18.8808 14.4483 21.5475 13.3438 24.3281 13.3438H40.5312C40.784 13.3438 41.0265 13.4442 41.2052 13.6229C41.384 13.8017 41.4844 14.0441 41.4844 14.2969C41.4844 14.5497 41.384 14.7921 41.2052 14.9708C41.0265 15.1496 40.784 15.25 40.5312 15.25H24.3281C22.0531 15.25 19.8712 16.1538 18.2625 17.7625C16.6538 19.3712 15.75 21.5531 15.75 23.8281C15.75 26.1032 16.6538 28.2851 18.2625 29.8938C19.8712 31.5025 22.0531 32.4062 24.3281 32.4062H49.1094C51.89 32.4062 54.5567 33.5108 56.5229 35.4771C58.4892 37.4433 59.5938 40.11 59.5938 42.8906C59.5938 45.6713 58.4892 48.338 56.5229 50.3042C54.5567 52.2704 51.89 53.375 49.1094 53.375Z" fill="#951BB9"/>
</svg>
