<svg width="49" height="49" viewBox="0 0 49 49" fill="none" xmlns="http://www.w3.org/2000/svg">
<path d="M36.0154 0H12.9852C10.4372 0 8.36426 2.06518 8.36426 4.60361V44.3878C8.36426 46.931 10.4333 49 12.9765 49H36.0241C38.5673 49 40.6363 46.931 40.6363 44.3878V4.60361C40.6363 2.06518 38.5634 0 36.0154 0V0ZM30.104 39.4458H18.8966V21.9893H30.1039V39.4458H30.104ZM31.061 20.0753H17.9395C17.4111 20.0753 16.9825 20.5038 16.9825 21.0323V39.4458H10.2782V14.0863C10.8966 14.4634 11.6084 14.6654 12.352 14.6654C13.5675 14.6654 14.6571 14.1192 15.3906 13.2601C16.1241 14.1191 17.2136 14.6654 18.4292 14.6654C19.6447 14.6654 20.7344 14.1191 21.4678 13.2601C22.2013 14.1191 23.291 14.6654 24.5064 14.6654C25.7218 14.6654 26.8116 14.1191 27.5451 13.2601C28.2785 14.1191 29.3682 14.6654 30.5837 14.6654C31.7991 14.6654 32.8889 14.1191 33.6223 13.2601C34.3558 14.1191 35.4455 14.6654 36.6609 14.6654C37.4003 14.6654 38.1075 14.4665 38.7222 14.0942V39.4459H32.018V21.0323C32.0181 20.5037 31.5895 20.0753 31.061 20.0753ZM10.2783 7.15668C10.2768 7.0003 10.3367 6.85301 10.4469 6.74181C10.5591 6.62859 10.7092 6.56629 10.8696 6.56629H14.4337V10.6697C14.4337 11.8174 13.4999 12.7512 12.3521 12.7512H12.352C11.7948 12.7512 11.2719 12.534 10.8795 12.1399C10.4893 11.7478 10.2756 11.2272 10.2783 10.6697V7.15668ZM16.3476 6.56629H20.5108V10.6697C20.5108 11.8174 19.5769 12.7512 18.4292 12.7512C17.2814 12.7512 16.3476 11.8174 16.3476 10.6697V6.56629ZM22.4249 6.56629H26.588V10.6697C26.588 11.8174 25.6542 12.7512 24.5064 12.7512C23.3586 12.7512 22.4249 11.8174 22.4249 10.6697V6.56629ZM28.5021 6.56629H32.6653V10.6697C32.6653 11.8174 31.7314 12.7512 30.5837 12.7512C29.4359 12.7512 28.5021 11.8174 28.5021 10.6697V6.56629ZM34.5794 6.56629H38.1433C38.3044 6.56629 38.4538 6.62849 38.5642 6.74162C38.6673 6.84718 38.7228 6.98547 38.7222 7.13218V10.6837C38.728 11.2314 38.5193 11.7477 38.134 12.1376C37.743 12.5334 37.2198 12.7512 36.6607 12.7512C35.5129 12.7512 34.5792 11.8174 34.5792 10.6697V6.56629H34.5794ZM12.9852 1.91406H36.0155C37.5081 1.91406 38.7223 3.1205 38.7223 4.60361V4.71941C38.5351 4.67558 38.3413 4.65232 38.1434 4.65232H10.8695C10.6675 4.65232 10.4695 4.67644 10.2782 4.72228V4.60361C10.2783 3.1205 11.4926 1.91406 12.9852 1.91406ZM38.7222 44.3878C38.7222 45.8756 37.5119 47.0859 36.0241 47.0859H12.9765C11.4887 47.0859 10.2783 45.8756 10.2783 44.3878V41.3598H38.7223V44.3878H38.7222Z" fill="#951BB9"/>
<path d="M25.1384 43.2659H23.8623C23.3338 43.2659 22.9053 43.6944 22.9053 44.2229C22.9053 44.7514 23.3338 45.1799 23.8623 45.1799H25.1384C25.6669 45.1799 26.0954 44.7514 26.0954 44.2229C26.0954 43.6944 25.6669 43.2659 25.1384 43.2659Z" fill="#951BB9"/>
</svg>
