<svg width="62" height="61" viewBox="0 0 62 61" fill="none" xmlns="http://www.w3.org/2000/svg">
<path d="M58.6406 43.8438H56.7344V22.875C56.7345 22.6823 56.6762 22.494 56.5671 22.3351C56.458 22.1761 56.3033 22.054 56.1234 21.9848L43.7328 17.2192C43.5124 17.1353 43.2689 17.1353 43.0485 17.2192L31.9531 21.4873V17.1563C31.9533 16.9635 31.8949 16.7752 31.7859 16.6163C31.6768 16.4574 31.5221 16.3353 31.3422 16.2661L18.9515 11.5004C18.7311 11.4165 18.4876 11.4165 18.2672 11.5004L5.87658 16.2661C5.69667 16.3353 5.54197 16.4574 5.43289 16.6163C5.32382 16.7752 5.2655 16.9635 5.26562 17.1563V43.8438H3.35938C3.10659 43.8438 2.86416 43.9442 2.68541 44.1229C2.50667 44.3017 2.40625 44.5441 2.40625 44.7969V48.6094C2.40625 48.8622 2.50667 49.1046 2.68541 49.2834C2.86416 49.4621 3.10659 49.5625 3.35938 49.5625H58.6406C58.8934 49.5625 59.1358 49.4621 59.3146 49.2834C59.4933 49.1046 59.5938 48.8622 59.5938 48.6094V44.7969C59.5938 44.5441 59.4933 44.3017 59.3146 44.1229C59.1358 43.9442 58.8934 43.8438 58.6406 43.8438ZM31.9531 23.5298L43.3906 19.1302L54.8281 23.5298V27.206L43.7328 22.9379C43.5124 22.854 43.2689 22.854 43.0485 22.9379L31.9531 27.206V23.5298ZM31.9531 29.2486L43.3906 24.8489L54.8281 29.2486V43.8438H31.9531V29.2486ZM7.17188 17.8111L18.6094 13.4114L30.0469 17.8111V21.4873L18.9515 17.2192C18.7311 17.1353 18.4876 17.1353 18.2672 17.2192L7.17188 21.4873V17.8111ZM7.17188 23.5298L18.6094 19.1302L30.0469 23.5298V43.8438H7.17188V23.5298ZM57.6875 47.6563H4.3125V45.75H57.6875V47.6563Z" fill="#951BB9"/>
<path d="M16.7031 30.5C16.7031 29.746 16.4795 29.0089 16.0606 28.3819C15.6417 27.7549 15.0463 27.2663 14.3496 26.9777C13.653 26.6892 12.8864 26.6137 12.1468 26.7608C11.4073 26.9079 10.728 27.271 10.1948 27.8042C9.66159 28.3374 9.29849 29.0167 9.15138 29.7562C9.00428 30.4958 9.07978 31.2624 9.36834 31.959C9.6569 32.6556 10.1456 33.2511 10.7725 33.67C11.3995 34.0889 12.1366 34.3125 12.8906 34.3125C13.9018 34.3125 14.8715 33.9108 15.5865 33.1959C16.3015 32.4809 16.7031 31.5112 16.7031 30.5V30.5ZM12.8906 32.4063C12.5136 32.4063 12.1451 32.2945 11.8316 32.085C11.5181 31.8755 11.2738 31.5778 11.1295 31.2295C10.9852 30.8812 10.9475 30.4979 11.021 30.1281C11.0946 29.7583 11.2761 29.4187 11.5427 29.1521C11.8093 28.8855 12.149 28.7039 12.5187 28.6304C12.8885 28.5568 13.2718 28.5946 13.6201 28.7389C13.9684 28.8831 14.2662 29.1275 14.4756 29.441C14.6851 29.7544 14.7969 30.123 14.7969 30.5C14.7969 31.0056 14.596 31.4904 14.2385 31.8479C13.8811 32.2054 13.3962 32.4063 12.8906 32.4063Z" fill="#951BB9"/>
<path d="M9.07812 36.2188V39.0781C9.07812 39.3309 9.17854 39.5733 9.35729 39.7521C9.53603 39.9308 9.77847 40.0312 10.0312 40.0312H15.75C16.0028 40.0312 16.2452 39.9308 16.424 39.7521C16.6027 39.5733 16.7031 39.3309 16.7031 39.0781V36.2188C16.7031 35.7132 16.5023 35.2283 16.1448 34.8708C15.7873 34.5133 15.3024 34.3125 14.7969 34.3125H10.9844C10.4788 34.3125 9.99394 34.5133 9.63645 34.8708C9.27896 35.2283 9.07812 35.7132 9.07812 36.2188ZM14.7969 36.2188V38.125H10.9844V36.2188H14.7969Z" fill="#951BB9"/>
<path d="M27.1875 28.5938H19.5625C19.3097 28.5938 19.0673 28.6942 18.8885 28.8729C18.7098 29.0517 18.6094 29.2941 18.6094 29.5469V35.2656C18.6094 35.5184 18.7098 35.7608 18.8885 35.9396C19.0673 36.1183 19.3097 36.2188 19.5625 36.2188H21.2009L20.5442 38.8465C20.509 38.9871 20.5063 39.1338 20.5363 39.2755C20.5663 39.4172 20.6282 39.5503 20.7174 39.6645C20.8065 39.7787 20.9205 39.8711 21.0507 39.9347C21.1809 39.9982 21.3239 40.0312 21.4688 40.0312H25.2812C25.4261 40.0312 25.5691 39.9982 25.6993 39.9347C25.8295 39.8711 25.9435 39.7787 26.0326 39.6645C26.1218 39.5503 26.1837 39.4172 26.2137 39.2755C26.2437 39.1338 26.241 38.9871 26.2058 38.8465L25.5491 36.2188H27.1875C27.4403 36.2188 27.6827 36.1183 27.8615 35.9396C28.0402 35.7608 28.1406 35.5184 28.1406 35.2656V29.5469C28.1406 29.2941 28.0402 29.0517 27.8615 28.8729C27.6827 28.6942 27.4403 28.5938 27.1875 28.5938ZM22.6897 38.125L23.1663 36.2188H23.5837L24.0603 38.125H22.6897ZM26.2344 34.3125H20.5156V30.5H26.2344V34.3125Z" fill="#951BB9"/>
<path d="M52.9219 32.4063C52.9219 31.6522 52.6983 30.9151 52.2794 30.2881C51.8604 29.6612 51.265 29.1725 50.5684 28.884C49.8717 28.5954 49.1052 28.5199 48.3656 28.667C47.626 28.8141 46.9467 29.1772 46.4135 29.7104C45.8803 30.2436 45.5172 30.9229 45.3701 31.6625C45.223 32.402 45.2985 33.1686 45.5871 33.8652C45.8756 34.5619 46.3643 35.1573 46.9913 35.5762C47.6182 35.9952 48.3553 36.2188 49.1094 36.2188C50.1205 36.2188 51.0903 35.8171 51.8052 35.1021C52.5202 34.3871 52.9219 33.4174 52.9219 32.4063ZM49.1094 34.3125C48.7324 34.3125 48.3638 34.2007 48.0503 33.9913C47.7368 33.7818 47.4925 33.4841 47.3482 33.1358C47.204 32.7874 47.1662 32.4041 47.2398 32.0344C47.3133 31.6646 47.4949 31.3249 47.7615 31.0583C48.0281 30.7917 48.3677 30.6102 48.7375 30.5366C49.1073 30.4631 49.4906 30.5008 49.8389 30.6451C50.1872 30.7894 50.4849 31.0337 50.6944 31.3472C50.9038 31.6607 51.0156 32.0292 51.0156 32.4063C51.0156 32.9118 50.8148 33.3967 50.4573 33.7542C50.0998 34.1117 49.615 34.3125 49.1094 34.3125Z" fill="#951BB9"/>
<path d="M45.2969 38.125V40.9844C45.2969 41.2372 45.3973 41.4796 45.576 41.6583C45.7548 41.8371 45.9972 41.9375 46.25 41.9375H51.9688C52.2215 41.9375 52.464 41.8371 52.6427 41.6583C52.8215 41.4796 52.9219 41.2372 52.9219 40.9844V38.125C52.9219 37.6194 52.721 37.1346 52.3635 36.7771C52.0061 36.4196 51.5212 36.2188 51.0156 36.2188H47.2031C46.6976 36.2188 46.2127 36.4196 45.8552 36.7771C45.4977 37.1346 45.2969 37.6194 45.2969 38.125ZM51.0156 38.125V40.0312H47.2031V38.125H51.0156Z" fill="#951BB9"/>
<path d="M42.4375 30.5H34.8125C34.5597 30.5 34.3173 30.6004 34.1385 30.7792C33.9598 30.9579 33.8594 31.2003 33.8594 31.4531V37.1719C33.8594 37.4247 33.9598 37.6671 34.1385 37.8458C34.3173 38.0246 34.5597 38.125 34.8125 38.125H36.4509L35.7942 40.7528C35.759 40.8933 35.7563 41.04 35.7863 41.1818C35.8163 41.3235 35.8782 41.4565 35.9674 41.5707C36.0565 41.685 36.1705 41.7774 36.3007 41.8409C36.4309 41.9045 36.5739 41.9375 36.7188 41.9375H40.5312C40.6761 41.9375 40.8191 41.9045 40.9493 41.8409C41.0795 41.7774 41.1935 41.685 41.2826 41.5707C41.3718 41.4565 41.4337 41.3235 41.4637 41.1818C41.4937 41.04 41.491 40.8933 41.4558 40.7528L40.7991 38.125H42.4375C42.6903 38.125 42.9327 38.0246 43.1115 37.8458C43.2902 37.6671 43.3906 37.4247 43.3906 37.1719V31.4531C43.3906 31.2003 43.2902 30.9579 43.1115 30.7792C42.9327 30.6004 42.6903 30.5 42.4375 30.5V30.5ZM37.9397 40.0312L38.4163 38.125H38.8337L39.3103 40.0312H37.9397ZM41.4844 36.2188H35.7656V32.4062H41.4844V36.2188Z" fill="#951BB9"/>
</svg>
