<svg width="55" height="55" viewBox="0 0 55 55" fill="none" xmlns="http://www.w3.org/2000/svg">
<g clip-path="url(#clip0)">
<path d="M7.62295 54.2803C7.47635 54.2803 7.33103 54.2394 7.20438 54.1606C7.02613 54.0495 6.89948 53.8725 6.85199 53.6676L1.09402 28.8883C0.994915 28.4625 1.25992 28.0373 1.68577 27.9382L3.81628 27.4433L28.0982 7.09947L26.694 5.82921C26.2146 6.12493 25.6507 6.29527 25.0476 6.29527C23.3119 6.29527 21.9001 4.88316 21.9001 3.14779C21.9001 1.41242 23.3119 0 25.0476 0C26.7833 0 28.1951 1.41211 28.1951 3.14748C28.1951 3.70662 28.0485 4.2322 27.792 4.6875L29.3235 6.07269L29.6771 5.77634C29.9627 5.53666 30.3769 5.52906 30.6716 5.75797L45.9581 17.6504L47.9177 17.1951C48.3442 17.0972 48.7687 17.3613 48.8678 17.7872L54.6261 42.5664C54.7252 42.9923 54.4602 43.4175 54.0344 43.5166L7.80215 54.26C7.74294 54.2736 7.68279 54.2803 7.62295 54.2803ZM2.81514 29.3012L8.2147 52.5389L52.9047 42.1539L47.5048 18.9165L45.96 19.2756C45.9531 19.2775 45.9458 19.279 45.9385 19.2806L4.37859 28.9377C4.36561 28.9412 4.35262 28.9444 4.33933 28.9469L2.81514 29.3012ZM29.2836 8.17153L7.22718 26.6508L43.9726 18.112L31.1744 8.1557C31.1624 8.32636 31.0952 8.49448 30.9718 8.63126C30.6789 8.95547 30.1783 8.9808 29.8538 8.68762L29.2836 8.17153ZM25.0476 1.58308C24.1848 1.58308 23.4832 2.28502 23.4832 3.14748C23.4832 4.00994 24.1851 4.71187 25.0476 4.71187C25.4785 4.71187 25.8695 4.53647 26.1529 4.25373C26.1611 4.24518 26.1693 4.23632 26.1779 4.22809C26.4467 3.94693 26.6123 3.56604 26.6123 3.14748C26.612 2.28502 25.9104 1.58308 25.0476 1.58308ZM13.4655 44.5747C13.1061 44.5747 12.7809 44.3284 12.6954 43.9634L10.6542 35.2552C10.5545 34.8296 10.8185 34.4038 11.2444 34.304C11.5069 34.2426 11.7697 34.3192 11.9558 34.4874C12.3355 34.1191 12.8088 33.8595 13.3369 33.7357C14.106 33.5556 14.9 33.6851 15.5716 34.1017C16.2431 34.5181 16.7123 35.1713 16.8928 35.9409C17.2652 37.5291 16.2757 39.1245 14.6876 39.4965C14.5654 39.5254 14.4428 39.5459 14.321 39.5586L18.3562 42.0611C18.7276 42.2919 18.8419 42.7798 18.6117 43.1509C18.3812 43.5226 17.8936 43.6363 17.5219 43.4067L13.6247 40.9894L14.237 43.6018C14.3368 44.0273 14.0724 44.4532 13.6469 44.5529C13.5861 44.5678 13.5253 44.5747 13.4655 44.5747ZM14.0151 35.2403C13.9097 35.2403 13.8036 35.2526 13.6985 35.277C13.3407 35.3612 13.0371 35.5791 12.8433 35.8912C12.6495 36.2034 12.5891 36.5723 12.673 36.93C12.8458 37.6681 13.5874 38.1262 14.3263 37.9556C15.0647 37.7821 15.5247 37.0406 15.3515 36.3019C15.2676 35.9441 15.0495 35.6405 14.7373 35.447C14.5169 35.3106 14.2684 35.2403 14.0151 35.2403ZM22.2018 42.115C21.8425 42.115 21.5173 41.8686 21.4318 41.5036L20.4918 37.4933C20.4908 37.4898 20.4902 37.4867 20.4893 37.4829C20.4886 37.4794 20.4877 37.4762 20.487 37.4724L19.4929 33.231C19.4929 33.2304 19.4926 33.2294 19.4922 33.2285C19.3925 32.803 19.6569 32.3771 20.0824 32.2774L24.7826 31.1759C25.2078 31.0761 25.6339 31.3405 25.7337 31.7657C25.8334 32.1909 25.569 32.6171 25.1435 32.7168L21.214 33.6379L21.8501 36.3506L24.2127 35.7969C24.6382 35.6968 25.0644 35.9615 25.1641 36.3867C25.2638 36.8123 24.9998 37.2381 24.5742 37.3379L22.2113 37.8919L22.7923 40.3713L26.7222 39.4506C27.1474 39.3509 27.5735 39.6153 27.6733 40.0405C27.773 40.4657 27.5086 40.8919 27.0831 40.9916L22.3852 42.0931C22.3845 42.0931 22.3836 42.0934 22.3829 42.0934C22.3225 42.1077 22.2617 42.115 22.2018 42.115ZM30.3202 40.2118C29.9608 40.2118 29.6357 39.9654 29.5502 39.6004L27.6106 31.3253C27.5412 31.0299 27.6473 30.7348 27.861 30.548C28.1552 30.2311 28.6507 30.2077 28.9723 30.499L34.9352 35.8881L33.5398 29.9354C33.4401 29.5098 33.7042 29.084 34.1297 28.9843C34.5559 28.8845 34.9814 29.1489 35.0811 29.5741L37.0207 37.8492C37.0897 38.1436 36.9843 38.4384 36.7719 38.6249C36.4783 38.9444 35.9819 38.9678 35.6589 38.6759L29.6964 33.2874L31.0915 39.2394C31.1912 39.665 30.9271 40.0908 30.5013 40.1906C30.4408 40.2045 30.38 40.2118 30.3202 40.2118ZM42.4985 37.3572C42.1391 37.3572 41.814 37.1108 41.7285 36.7458L39.9694 29.2414L37.7752 29.7555C37.3497 29.8546 36.9235 29.5909 36.8241 29.1657C36.7244 28.7402 36.9884 28.3143 37.4143 28.2146L43.3435 26.8246C43.7691 26.7246 44.1949 26.9893 44.2946 27.4145C44.3944 27.84 44.1303 28.2659 43.7045 28.3656L41.5106 28.8801L43.2698 36.3845C43.3695 36.8101 43.1054 37.2359 42.6799 37.3356C42.6191 37.3502 42.5583 37.3572 42.4985 37.3572Z" fill="#951BB9"/>
</g>
<defs>
<clipPath id="clip0">
<rect width="54.2803" height="54.2803" fill="white" transform="translate(0.719727)"/>
</clipPath>
</defs>
</svg>
