<svg width="48" height="48" viewBox="0 0 48 48" fill="none" xmlns="http://www.w3.org/2000/svg">
<path d="M36 16C39.3137 16 42 13.3137 42 10C42 6.68629 39.3137 4 36 4C32.6863 4 30 6.68629 30 10C30 13.3137 32.6863 16 36 16Z" stroke="#951BB9" stroke-width="2" stroke-linecap="round" stroke-linejoin="round"/>
<path d="M12 30C15.3137 30 18 27.3137 18 24C18 20.6863 15.3137 18 12 18C8.68629 18 6 20.6863 6 24C6 27.3137 8.68629 30 12 30Z" stroke="#951BB9" stroke-width="2" stroke-linecap="round" stroke-linejoin="round"/>
<path d="M36 44C39.3137 44 42 41.3137 42 38C42 34.6863 39.3137 32 36 32C32.6863 32 30 34.6863 30 38C30 41.3137 32.6863 44 36 44Z" stroke="#951BB9" stroke-width="2" stroke-linecap="round" stroke-linejoin="round"/>
<path d="M17.1797 27.02L30.8397 34.98" stroke="#951BB9" stroke-width="2" stroke-linecap="round" stroke-linejoin="round"/>
<path d="M30.8197 13.02L17.1797 20.98" stroke="#951BB9" stroke-width="2" stroke-linecap="round" stroke-linejoin="round"/>
</svg>
