<svg width="62" height="61" viewBox="0 0 62 61" fill="none" xmlns="http://www.w3.org/2000/svg">
<g clip-path="url(#clip0)">
<path d="M61.1831 13.009C61.1817 13.0076 61.1801 13.0061 61.1787 13.0047L48.9776 0.803482C48.7835 0.606356 48.5163 0.498579 48.2399 0.505569C47.9638 0.510526 47.7018 0.627708 47.514 0.830299L43.7369 4.89736C43.3684 5.29416 43.3754 5.91006 43.7528 6.29834L44.0391 6.59282L42.5394 8.09255L40.1702 7.50079C38.0453 6.98072 35.8034 7.61747 34.2691 9.17693L29.9474 14.2136L24.9256 9.1918C23.494 7.75206 21.369 7.25016 19.4446 7.89695C19.3297 7.93559 19.2225 7.99405 19.1278 8.06967L18.8518 8.29209L18.1825 7.62293L19.4972 6.30825C19.8942 5.91146 19.8944 5.26785 19.4976 4.87093C19.4974 4.8708 19.4973 4.87067 19.4972 4.87055L15.4301 0.803482C15.0333 0.406434 14.3897 0.406307 13.9928 0.8031C13.9927 0.803227 13.9925 0.803354 13.9924 0.803482L0.774443 14.0214C0.377396 14.4182 0.377269 15.0618 0.774062 15.4588C0.774189 15.4589 0.774316 15.459 0.774443 15.4591L4.84151 19.5262C5.2383 19.9233 5.88191 19.9234 6.27896 19.5266C6.27909 19.5265 6.27922 19.5263 6.27934 19.5262L6.73854 19.067L9.14789 21.4764L8.55614 23.8456C8.03708 25.9392 8.64714 28.1521 10.1657 29.6841L18.7784 38.5447V46.4934C18.7971 48.3158 19.8197 49.9792 21.4375 50.8186C22.305 51.2802 22.8467 52.1832 22.8455 53.1659V53.3774H21.8287C21.2675 53.377 20.8124 53.8318 20.812 54.393C20.812 54.3934 20.812 54.3938 20.812 54.3942V59.478C20.8116 60.0393 21.2663 60.4944 21.8276 60.4948C21.828 60.4948 21.8284 60.4948 21.8287 60.4948H41.1473C41.7086 60.4951 42.1637 60.0404 42.1641 59.4791C42.1641 59.4788 42.1641 59.4784 42.1641 59.478V54.3942C42.1645 53.8329 41.7097 53.3778 41.1485 53.3774C41.1481 53.3774 41.1477 53.3774 41.1473 53.3774H40.1305V52.3557L41.7421 50.8693C43.2843 49.7026 44.1926 47.8822 44.1976 45.9483V34.0374C45.4016 33.8927 46.5208 33.3437 47.3721 32.4801L52.7468 26.6436C54.0103 25.3893 54.4502 23.5255 53.8808 21.8387C53.7178 21.3484 54.5937 19.7437 55.6371 18.513C55.8233 18.6978 56.0739 18.8033 56.3363 18.8072H56.3462C56.6138 18.8072 56.8708 18.7016 57.0611 18.5133L61.1748 14.4462C61.574 14.0517 61.5777 13.4082 61.1831 13.009ZM5.56049 17.3697L2.93126 14.7403L14.7114 2.96004L17.3407 5.58927L5.56049 17.3697ZM18.8686 35.72L11.6134 28.2562C10.5927 27.229 10.1814 25.744 10.5282 24.3381L11.26 21.4109C11.347 21.0646 11.2455 20.698 10.9928 20.4458L8.17637 17.6293L16.7449 9.06077L18.0596 10.3754C18.4268 10.7424 19.0113 10.774 19.416 10.4489L20.251 9.7767C21.4048 9.45413 22.6429 9.78038 23.488 10.6296L29.0929 16.2346L29.0832 16.2418C28.6296 16.6586 28.2916 17.1857 28.1022 17.7719C27.4721 17.4304 26.754 17.2861 26.0408 17.3578C24.1953 17.5986 22.8221 19.1825 22.8455 21.0436V31.6769C20.8233 32.0945 19.2528 33.691 18.8686 35.72ZM40.1305 58.4612H22.8455V55.4109H40.1305V58.4612ZM42.1641 45.9483C42.1523 47.2772 41.5141 48.5226 40.4423 49.3084L38.4257 51.1612C38.2161 51.3538 38.0969 51.6254 38.097 51.91V53.3775H24.879V53.166C24.8813 51.4318 23.9251 49.8383 22.3937 49.0245C21.4396 48.5375 20.8316 47.5644 20.812 46.4935V36.6585C20.8159 35.3701 21.6302 34.2236 22.8455 33.7955V40.1596H24.879V21.0435C24.8479 20.2241 25.4336 19.5105 26.2433 19.3813C26.6747 19.3368 27.1047 19.4772 27.4269 19.7676C27.7484 20.0553 27.9313 20.467 27.9293 20.8985V36.0924H29.9629V18.8649C29.9622 18.0229 30.6444 17.3399 31.4864 17.3393C31.5334 17.3393 31.5803 17.3414 31.6271 17.3456C32.4505 17.4829 33.0439 18.2103 33.0132 19.0445V36.0923H35.0467V21.9152C35.0461 21.0732 35.7282 20.3902 36.5702 20.3896C36.6172 20.3896 36.6641 20.3917 36.7109 20.3959C37.5344 20.5332 38.1278 21.2606 38.097 22.0948V36.0923H40.1305V27.6947C41.3458 28.1227 42.1601 29.2692 42.1641 30.5576V45.9483ZM51.9524 22.4822C52.2753 23.453 52.0141 24.5229 51.2801 25.2356L45.9054 31.0721C45.4403 31.5421 44.8458 31.8625 44.1975 31.9925V30.5577C44.1943 28.1429 42.4957 26.0624 40.1304 25.5762V22.0949C40.1661 20.2049 38.7644 18.5951 36.8874 18.3704C36.2499 18.3168 35.6095 18.4333 35.0316 18.708C34.9119 16.9487 33.555 15.5247 31.8036 15.3201C31.7604 15.3164 31.7178 15.3246 31.6746 15.3225L35.7595 10.5581C36.7868 9.53776 38.2716 9.12647 39.6776 9.47281L42.6047 10.2046C42.9511 10.2914 43.3175 10.19 43.5699 9.93747L45.4566 8.05074L54.2173 17.0599C53.2789 18.1486 51.3509 20.6787 51.9524 22.4822ZM56.3602 16.3468L45.8845 5.57339L48.2855 2.98673L59.0181 13.7193L56.3602 16.3468Z" fill="#951BB9"/>
</g>
<defs>
<clipPath id="clip0">
<rect width="61" height="61" fill="white" transform="translate(0.476562)"/>
</clipPath>
</defs>
</svg>
