<svg width="572" height="525" viewBox="0 0 572 525" fill="none" xmlns="http://www.w3.org/2000/svg">
<g clip-path="url(#clip0)">
<path d="M285.9 524.193C443.798 524.193 571.8 449.019 571.8 356.287C571.8 263.556 443.798 188.382 285.9 188.382C128.002 188.382 0 263.556 0 356.287C0 449.019 128.002 524.193 285.9 524.193Z" fill="#F5F5F5"/>
<path d="M86.2563 356.415C102.765 366.013 102.765 381.499 86.2563 390.969C69.7473 400.439 42.8722 400.567 26.3632 390.969C9.8542 381.371 9.8542 365.886 26.3632 356.415C42.8722 346.817 69.6193 346.817 86.2563 356.415Z" fill="#E0E0E0"/>
<path d="M122.474 378.299L272.59 464.939C275.662 466.731 280.653 466.731 283.724 464.939L537.758 318.278C540.829 316.486 540.829 313.671 537.758 311.879L387.641 225.239C384.57 223.447 379.579 223.447 376.507 225.239L122.474 371.9C119.402 373.692 119.402 376.635 122.474 378.299Z" fill="#E0E0E0"/>
<path d="M501.285 287.308L490.791 281.293C490.791 281.293 484.52 255.442 487.08 232.15C490.535 199.388 508.196 185.182 520.226 189.918C528.288 193.117 530.848 202.203 517.282 221.784C509.348 233.174 499.494 257.105 501.285 287.308Z" fill="#951BB9"/>
<g opacity="0.3">
<path opacity="0.3" d="M501.285 287.308L490.791 281.293C490.791 281.293 484.52 255.442 487.08 232.15C490.535 199.388 508.196 185.182 520.226 189.918C528.288 193.117 530.848 202.203 517.282 221.784C509.348 233.174 499.494 257.105 501.285 287.308Z" fill="black"/>
</g>
<path d="M496.934 274.51C497.446 274.382 497.702 273.998 497.574 273.614C491.815 243.412 502.437 209.498 515.491 195.42C515.747 195.165 515.747 194.653 515.491 194.397C515.235 194.141 514.723 194.141 514.467 194.397C501.157 208.73 490.407 243.156 496.294 273.87C496.294 274.382 496.55 274.638 496.934 274.51Z" fill="white"/>
<path d="M528.672 303.049C530.335 303.945 534.687 300.106 535.966 299.21C538.014 297.674 539.678 295.498 540.83 293.067C542.109 290.251 542.237 287.308 541.725 284.364C541.469 282.829 540.958 281.293 540.446 279.885C539.934 278.477 539.422 276.942 538.91 275.534C538.398 274.126 537.886 272.591 538.014 271.055C538.27 267.983 540.83 265.68 543.261 263.76C545.821 261.585 548.508 258.769 548.38 255.058C548.252 252.242 546.589 249.683 544.797 247.507C542.877 245.331 540.702 243.54 539.038 241.236C537.758 239.573 536.862 237.653 536.862 235.605C536.862 234.325 537.374 233.174 537.886 232.022C539.038 229.59 540.702 227.287 541.469 224.727C542.237 222.168 541.981 218.968 539.806 217.177C538.142 215.769 535.582 215.641 533.407 215.897C531.359 216.153 529.44 217.177 527.648 218.2C522.017 221.784 519.073 228.822 512.931 231.638C510.627 232.662 507.939 233.046 505.508 233.814C503.076 234.581 500.645 235.989 499.621 238.293C497.573 242.9 502.053 248.275 500.773 253.138C499.621 257.489 495.526 259.281 493.35 263.248C492.454 264.912 492.326 266.96 492.582 268.879C492.966 272.207 493.606 274.51 495.398 278.221C496.806 281.165 501.029 286.796 501.029 286.796C501.029 286.796 528.416 302.921 528.672 303.049Z" fill="#951BB9"/>
<g opacity="0.15">
<path opacity="0.15" d="M528.672 303.049C530.335 303.945 534.687 300.106 535.966 299.21C538.014 297.674 539.678 295.498 540.83 293.067C542.109 290.251 542.237 287.308 541.725 284.364C541.469 282.829 540.958 281.293 540.446 279.885C539.934 278.477 539.422 276.942 538.91 275.534C538.398 274.126 537.886 272.591 538.014 271.055C538.27 267.983 540.83 265.68 543.261 263.76C545.821 261.585 548.508 258.769 548.38 255.058C548.252 252.242 546.589 249.683 544.797 247.507C542.877 245.331 540.702 243.54 539.038 241.236C537.758 239.573 536.862 237.653 536.862 235.605C536.862 234.325 537.374 233.174 537.886 232.022C539.038 229.59 540.702 227.287 541.469 224.727C542.237 222.168 541.981 218.968 539.806 217.177C538.142 215.769 535.582 215.641 533.407 215.897C531.359 216.153 529.44 217.177 527.648 218.2C522.017 221.784 519.073 228.822 512.931 231.638C510.627 232.662 507.939 233.046 505.508 233.814C503.076 234.581 500.645 235.989 499.621 238.293C497.573 242.9 502.053 248.275 500.773 253.138C499.621 257.489 495.526 259.281 493.35 263.248C492.454 264.912 492.326 266.96 492.582 268.879C492.966 272.207 493.606 274.51 495.398 278.221C496.806 281.165 501.029 286.796 501.029 286.796C501.029 286.796 528.416 302.921 528.672 303.049Z" fill="black"/>
</g>
<path d="M512.674 294.731C513.058 294.731 513.442 294.347 513.314 293.963C510.627 265.296 522.656 232.79 531.999 223.064C532.255 222.808 532.255 222.296 531.999 222.04C531.743 221.784 531.231 221.784 530.975 222.04C521.377 231.894 509.219 264.912 511.906 294.091C511.906 294.475 512.29 294.731 512.674 294.731Z" fill="white"/>
<path d="M515.49 259.409C515.618 259.409 515.618 259.409 515.746 259.409C524.832 256.081 536.35 255.058 536.478 254.93C536.862 254.93 537.118 254.546 537.118 254.162C537.118 253.778 536.734 253.522 536.35 253.522C536.222 253.522 524.576 254.674 515.234 258.001C514.85 258.129 514.722 258.513 514.85 258.897C514.85 259.153 515.234 259.409 515.49 259.409Z" fill="white"/>
<path d="M127.593 362.43C127.593 366.269 130.408 370.877 133.864 372.924L271.695 452.526C275.15 454.573 280.909 454.573 284.364 452.526L527.008 312.391C530.463 310.344 533.279 305.608 533.279 301.897C533.279 298.058 530.463 293.451 527.008 291.403L389.177 211.801C385.722 209.754 379.963 209.754 376.508 211.801L133.992 351.936C130.536 353.984 127.593 358.591 127.593 362.43Z" fill="#37474F"/>
<path d="M133.992 359.231L271.823 438.832C275.278 440.88 281.037 440.88 284.493 438.832L527.136 298.698C530.592 296.65 530.592 293.451 527.136 291.403L389.305 211.801C385.85 209.754 380.091 209.754 376.636 211.801L133.992 351.936C130.537 353.984 130.537 357.183 133.992 359.231Z" fill="#455A64"/>
<path d="M278.093 440.368V454.061C275.79 454.061 273.486 453.55 271.822 452.526L133.992 372.924C130.536 370.877 127.721 366.141 127.721 362.43C127.721 358.847 130.28 354.496 133.352 352.32C130.536 354.368 130.792 357.311 133.992 359.231L271.822 438.832C273.486 439.856 275.79 440.368 278.093 440.368Z" fill="#263238"/>
<path d="M121.706 352.192C118.378 350.272 118.634 347.073 118.634 343.106V152.804C118.634 148.709 121.45 143.846 124.905 141.798L367.677 1.53569C371.133 -0.511936 376.635 -0.639913 379.963 1.27974C383.29 3.19939 383.034 6.39881 383.034 10.3661V200.667C383.034 204.763 380.219 209.626 376.763 211.673L133.992 351.936C130.536 353.984 125.033 353.984 121.706 352.192Z" fill="#37474F"/>
<path d="M383.034 10.4941C383.034 6.52678 380.219 4.86309 376.763 6.78274L133.991 146.917C132.2 147.941 130.664 149.605 129.512 151.652L120.426 146.405C121.578 144.358 123.113 142.694 124.905 141.67L367.677 1.53569C371.132 -0.511936 376.635 -0.639913 379.963 1.27974C383.162 3.19939 383.034 6.39881 383.034 10.4941Z" fill="#455A64"/>
<path d="M133.224 352.32C129.768 353.984 124.777 353.984 121.706 352.192C118.378 350.272 118.634 347.073 118.634 343.106V152.676C118.634 150.629 119.274 148.453 120.554 146.405L129.64 151.652C128.489 153.7 127.721 155.876 127.721 157.923V348.353C127.593 352.064 130.152 353.728 133.224 352.32Z" fill="#263238"/>
<path d="M137.447 154.212L371.388 19.1964C373.436 18.0446 375.228 18.9405 375.228 21.372V187.486C375.228 189.917 373.564 192.861 371.388 194.013L137.447 329.156C135.399 330.308 133.607 329.412 133.607 326.98V160.867C133.607 158.435 135.271 155.492 137.447 154.212Z" fill="#FAFAFA"/>
<path d="M151.524 352.32L376.763 222.296C378.555 221.272 381.371 221.272 383.034 222.296L386.746 224.343C388.537 225.367 388.537 227.031 386.746 228.055L161.507 358.079C159.715 359.103 156.899 359.103 155.236 358.079L151.524 356.031C149.733 354.879 149.733 353.344 151.524 352.32Z" fill="#263238"/>
<path d="M169.185 362.814L394.424 232.79C396.216 231.766 398.776 231.638 400.183 232.534L458.797 266.447C460.204 267.343 459.948 268.751 458.285 269.775L233.302 399.543C231.51 400.567 228.95 400.695 227.543 399.927L168.673 366.269C167.138 365.246 167.394 363.838 169.185 362.814Z" fill="#263238"/>
<path d="M364.35 287.436L371.388 283.34C371.644 283.212 371.772 282.956 371.388 282.7L364.605 278.861C364.35 278.733 363.838 278.733 363.582 278.861L356.543 282.956C356.287 283.084 356.159 283.34 356.543 283.596L363.326 287.436C363.582 287.564 364.094 287.564 364.35 287.436ZM354.111 273.23L347.073 277.325C346.817 277.453 346.689 277.709 347.073 277.965L353.855 281.805C354.111 281.933 354.623 281.933 354.879 281.805L361.918 277.709C362.174 277.581 362.302 277.325 361.918 277.069L355.135 273.23C354.879 273.102 354.367 273.102 354.111 273.23ZM331.332 286.412L319.43 293.323C319.174 293.451 319.046 293.706 319.43 293.962L326.212 297.802C326.468 297.93 326.98 297.93 327.236 297.802L339.138 290.891C339.394 290.763 339.522 290.507 339.138 290.251L332.355 286.412C331.971 286.284 331.587 286.284 331.332 286.412ZM343.745 279.245L336.707 283.34C336.451 283.468 336.323 283.724 336.707 283.98L343.489 287.82C343.745 287.948 344.257 287.948 344.513 287.82L351.552 283.724C351.808 283.596 351.936 283.34 351.552 283.084L344.769 279.245C344.513 278.989 344.001 279.117 343.745 279.245ZM316.102 295.242L309.064 299.337C308.808 299.465 308.68 299.721 309.064 299.977L315.846 303.817C316.102 303.945 316.614 303.945 316.87 303.817L323.909 299.721C324.165 299.593 324.293 299.337 323.909 299.081L317.126 295.242C316.87 294.986 316.358 294.986 316.102 295.242ZM305.736 301.129L298.697 305.224C298.442 305.352 298.314 305.608 298.697 305.864L305.48 309.704C305.736 309.832 306.248 309.832 306.504 309.704L313.543 305.608C313.799 305.48 313.927 305.224 313.543 304.968L306.76 301.129C306.504 301.001 306.12 301.001 305.736 301.129ZM332.227 316.998L339.266 312.903C339.522 312.775 339.65 312.519 339.266 312.263L332.483 308.424C332.227 308.296 331.715 308.296 331.46 308.424L324.421 312.519C324.165 312.647 324.037 312.903 324.421 313.159L331.204 316.998C331.46 317.254 331.971 317.254 332.227 316.998ZM321.861 323.013L328.9 318.918C329.156 318.79 329.284 318.534 328.9 318.278L322.117 314.439C321.861 314.311 321.349 314.311 321.093 314.439L314.055 318.534C313.799 318.662 313.671 318.918 314.055 319.174L320.837 323.013C321.093 323.141 321.605 323.141 321.861 323.013ZM311.623 328.9L318.662 324.805C318.918 324.677 319.046 324.421 318.662 324.165L311.879 320.326C311.623 320.198 311.111 320.198 310.855 320.326L303.817 324.421C303.561 324.549 303.433 324.805 303.817 325.061L310.599 328.9C310.855 329.156 311.367 329.156 311.623 328.9ZM301.257 334.915L308.296 330.82C308.552 330.692 308.68 330.436 308.296 330.18L301.513 326.341C301.257 326.213 300.745 326.213 300.489 326.341L293.45 330.436C293.194 330.564 293.067 330.82 293.45 331.076L300.233 334.915C300.489 335.043 301.001 335.043 301.257 334.915ZM354.111 293.323L361.15 289.227C361.406 289.099 361.534 288.843 361.15 288.587L354.367 284.748C354.111 284.62 353.6 284.62 353.344 284.748L346.305 288.843C346.049 288.971 345.921 289.227 346.305 289.483L353.088 293.323C353.344 293.451 353.728 293.451 354.111 293.323ZM342.594 311.111L358.335 302.025C358.591 301.897 358.719 301.641 358.335 301.385L341.954 291.915C341.698 291.787 341.186 291.787 340.93 291.915L332.739 296.65C332.483 296.778 332.355 297.034 332.739 297.29L341.442 302.281C341.698 302.409 341.698 302.665 341.442 302.921L334.915 306.632C334.659 306.76 334.531 307.016 334.915 307.272L341.698 311.111C341.826 311.239 342.21 311.239 342.594 311.111ZM295.498 307.144L288.459 311.239C288.203 311.367 288.075 311.623 288.459 311.879L295.242 315.718C295.498 315.846 296.01 315.846 296.266 315.718L303.305 311.623C303.561 311.495 303.689 311.239 303.305 310.983L296.522 307.144C296.266 306.888 295.754 306.888 295.498 307.144ZM285.132 313.031L278.093 317.126C277.837 317.254 277.709 317.51 278.093 317.766L284.876 321.605C285.132 321.733 285.644 321.733 285.9 321.605L292.939 317.51C293.194 317.382 293.322 317.126 292.939 316.87L286.156 313.031C285.9 312.903 285.516 312.903 285.132 313.031ZM228.054 376.635C228.31 376.763 228.822 376.763 229.078 376.635L236.117 372.54C236.373 372.412 236.501 372.156 236.117 371.9L229.334 368.061C229.078 367.933 228.566 367.933 228.31 368.061L221.272 372.156C221.016 372.284 220.888 372.54 221.272 372.796L228.054 376.635ZM202.715 360.638L195.676 364.734C195.42 364.862 195.292 365.117 195.676 365.373L202.459 369.213C202.715 369.341 203.227 369.341 203.483 369.213L210.522 365.117C210.777 364.989 210.905 364.734 210.522 364.478L203.739 360.638C203.483 360.51 202.971 360.51 202.715 360.638ZM215.769 372.668C216.025 372.796 216.536 372.796 216.792 372.668L223.831 368.573C224.087 368.445 224.215 368.189 223.831 367.933L217.048 364.094C216.792 363.966 216.28 363.966 216.025 364.094L208.986 368.189C208.73 368.317 208.602 368.573 208.986 368.829L215.769 372.668ZM244.179 379.067L251.218 374.972C251.474 374.844 251.602 374.588 251.218 374.332L244.435 370.493C244.179 370.365 243.667 370.365 243.412 370.493L236.373 374.588C236.117 374.716 235.989 374.972 236.373 375.228L243.156 379.067C243.412 379.195 243.923 379.195 244.179 379.067ZM232.917 384.954C233.173 385.082 233.685 385.082 233.941 384.954L240.98 380.859C241.236 380.731 241.364 380.475 240.98 380.219L234.197 376.379C233.941 376.251 233.429 376.251 233.173 376.379L226.135 380.475C225.879 380.603 225.751 380.859 226.135 381.115L232.917 384.954ZM212.953 354.751L205.914 358.847C205.658 358.975 205.53 359.231 205.914 359.486L212.697 363.326C212.953 363.454 213.465 363.454 213.721 363.326L220.76 359.231C221.016 359.103 221.144 358.847 220.76 358.591L213.977 354.751C213.721 354.495 213.337 354.495 212.953 354.751ZM264.528 324.933L257.489 329.028C257.233 329.156 257.105 329.412 257.489 329.668L264.272 333.507C264.528 333.635 265.04 333.635 265.296 333.507L272.334 329.412C272.59 329.284 272.718 329.028 272.334 328.772L265.552 324.933C265.296 324.805 264.784 324.805 264.528 324.933ZM223.319 348.736L216.28 352.832C216.025 352.96 215.897 353.216 216.28 353.472L223.063 357.311C223.319 357.439 223.831 357.439 224.087 357.311L231.126 353.216C231.382 353.088 231.51 352.832 231.126 352.576L224.343 348.736C224.087 348.608 223.575 348.608 223.319 348.736ZM274.894 319.046L267.855 323.141C267.599 323.269 267.471 323.525 267.855 323.781L274.638 327.62C274.894 327.748 275.406 327.748 275.662 327.62L282.7 323.525C282.956 323.397 283.084 323.141 282.7 322.885L275.918 319.046C275.662 318.79 275.15 318.79 274.894 319.046ZM254.29 330.948L247.251 335.043C246.995 335.171 246.867 335.427 247.251 335.683L254.034 339.522C254.29 339.65 254.801 339.65 255.057 339.522L262.096 335.427C262.352 335.299 262.48 335.043 262.096 334.787L255.313 330.948C255.057 330.692 254.546 330.692 254.29 330.948ZM243.923 336.835L236.885 340.93C236.629 341.058 236.501 341.314 236.885 341.57L243.667 345.409C243.923 345.537 244.435 345.537 244.691 345.409L251.73 341.314C251.986 341.186 252.114 340.93 251.73 340.674L244.947 336.835C244.691 336.707 244.179 336.707 243.923 336.835ZM233.557 342.85L226.519 346.945C226.263 347.073 226.135 347.329 226.519 347.585L233.301 351.424C233.557 351.552 234.069 351.552 234.325 351.424L241.364 347.329C241.62 347.201 241.748 346.945 241.364 346.689L234.581 342.85C234.325 342.594 233.941 342.594 233.557 342.85ZM280.653 346.817L287.691 342.722C287.947 342.594 288.075 342.338 287.691 342.082L280.909 338.242C280.653 338.114 280.141 338.114 279.885 338.242L272.846 342.338C272.59 342.466 272.462 342.722 272.846 342.978L279.629 346.817C279.885 346.945 280.397 346.945 280.653 346.817ZM376.891 260.177L369.853 264.272C369.597 264.4 369.469 264.656 369.853 264.912L376.635 268.751C376.891 268.879 377.403 268.879 377.659 268.751L384.698 264.656C384.954 264.528 385.082 264.272 384.698 264.016L377.915 260.177C377.659 259.921 377.147 259.921 376.891 260.177ZM364.35 267.343L357.311 271.439C357.055 271.566 356.927 271.822 357.311 272.078L364.094 275.918C364.35 276.046 364.861 276.046 365.117 275.918L372.156 271.822C372.412 271.694 372.54 271.439 372.156 271.183L365.373 267.343C365.117 267.087 364.606 267.215 364.35 267.343ZM387.129 254.162L380.091 258.257C379.835 258.385 379.707 258.641 380.091 258.897L386.873 262.736C387.129 262.864 387.641 262.864 387.897 262.736L394.936 258.641C395.192 258.513 395.32 258.257 394.936 258.001L388.153 254.162C387.897 254.034 387.513 254.034 387.129 254.162ZM330.18 307.144L337.218 303.049C337.474 302.921 337.602 302.665 337.218 302.409L330.436 298.57C330.18 298.442 329.668 298.442 329.412 298.57L322.373 302.665C322.117 302.793 321.989 303.049 322.373 303.305L329.156 307.144C329.412 307.272 329.924 307.272 330.18 307.144ZM398.519 248.147C398.263 248.019 397.751 248.019 397.496 248.147L390.457 252.242C390.201 252.37 390.073 252.626 390.457 252.882L397.24 256.721C397.496 256.849 398.007 256.849 398.263 256.721L405.302 252.626C405.558 252.498 405.686 252.242 405.302 251.986L398.519 248.147ZM291.019 340.802L298.058 336.707C298.314 336.579 298.442 336.323 298.058 336.067L291.275 332.227C291.019 332.099 290.507 332.099 290.251 332.227L283.212 336.323C282.956 336.451 282.828 336.707 283.212 336.963L289.995 340.802C290.251 341.058 290.635 341.058 291.019 340.802ZM417.46 267.855L424.499 263.76C424.755 263.632 424.883 263.376 424.499 263.12L417.716 259.281C417.46 259.153 416.948 259.153 416.692 259.281L409.653 263.376C409.397 263.504 409.269 263.76 409.653 264.016L416.436 267.855C416.692 268.111 417.076 268.111 417.46 267.855ZM397.496 268.239L404.534 264.144C404.79 264.016 404.918 263.76 404.534 263.504L397.751 259.665C397.496 259.537 396.984 259.537 396.728 259.665L389.689 263.76C389.433 263.888 389.305 264.144 389.689 264.4L396.472 268.239C396.728 268.495 397.112 268.495 397.496 268.239ZM408.118 253.778C407.862 253.65 407.35 253.65 407.094 253.778L400.055 257.873C399.799 258.001 399.671 258.257 400.055 258.513L406.838 262.352C407.094 262.48 407.606 262.48 407.862 262.352L414.9 258.257C415.156 258.129 415.284 257.873 414.9 257.617L408.118 253.778ZM410.293 252.498L426.674 261.968C426.93 262.096 427.442 262.096 427.698 261.968L434.737 257.873C434.993 257.745 435.121 257.489 434.737 257.233L418.356 247.763C418.1 247.635 417.588 247.635 417.332 247.763L410.293 251.858C410.037 252.114 410.037 252.37 410.293 252.498ZM386.49 265.68L379.451 269.775C379.195 269.903 379.067 270.159 379.451 270.415L386.234 274.254C386.49 274.382 387.001 274.382 387.257 274.254L394.296 270.159C394.552 270.031 394.68 269.775 394.296 269.519L387.513 265.68C387.257 265.552 386.745 265.552 386.49 265.68ZM308.936 310.471L301.897 314.567C301.641 314.695 301.513 314.951 301.897 315.207L308.68 319.046C308.936 319.174 309.448 319.174 309.703 319.046L316.742 314.951C316.998 314.823 317.126 314.567 316.742 314.311L309.959 310.471C309.703 310.343 309.192 310.343 308.936 310.471ZM406.07 273.87C406.326 273.998 406.838 273.998 407.094 273.87L414.133 269.775C414.388 269.647 414.516 269.391 414.133 269.135L407.35 265.296C407.094 265.168 406.582 265.168 406.326 265.296L399.287 269.391C399.031 269.519 398.903 269.775 399.287 270.031L406.07 273.87ZM319.174 304.584L312.135 308.68C311.879 308.808 311.751 309.064 312.135 309.32L318.918 313.159C319.174 313.287 319.686 313.287 319.942 313.159L326.98 309.064C327.236 308.936 327.364 308.68 326.98 308.424L320.198 304.584C319.942 304.329 319.558 304.329 319.174 304.584ZM238.42 370.62C238.676 370.748 239.188 370.748 239.444 370.62L246.483 366.525C246.739 366.397 246.867 366.141 246.483 365.885L239.7 362.046C239.444 361.918 238.932 361.918 238.676 362.046L231.638 366.141C231.382 366.269 231.254 366.525 231.638 366.781L238.42 370.62ZM226.391 358.079L219.352 362.174C219.096 362.302 218.968 362.558 219.352 362.814L226.135 366.653C226.391 366.781 226.903 366.781 227.158 366.653L234.197 362.558C234.453 362.43 234.581 362.174 234.197 361.918L227.414 358.079C227.158 357.951 226.775 357.951 226.391 358.079ZM249.81 364.606L256.849 360.51C257.105 360.382 257.233 360.126 256.849 359.87L250.066 356.031C249.81 355.903 249.298 355.903 249.043 356.031L242.004 360.126C241.748 360.254 241.62 360.51 242.004 360.766L248.787 364.606C249.043 364.862 249.426 364.862 249.81 364.606ZM260.049 358.719L267.087 354.623C267.343 354.495 267.471 354.239 267.087 353.984L260.304 350.144C260.049 350.016 259.537 350.016 259.281 350.144L252.242 354.239C251.986 354.367 251.858 354.623 252.242 354.879L259.025 358.719C259.281 358.847 259.793 358.847 260.049 358.719ZM270.415 352.704L277.453 348.608C277.709 348.48 277.837 348.225 277.453 347.969L270.671 344.129C270.415 344.001 269.903 344.001 269.647 344.129L262.608 348.225C262.352 348.353 262.224 348.608 262.608 348.864L269.391 352.704C269.647 352.96 270.031 352.96 270.415 352.704ZM236.757 352.192L229.718 356.287C229.462 356.415 229.334 356.671 229.718 356.927L236.501 360.766C236.757 360.894 237.269 360.894 237.525 360.766L244.563 356.671C244.819 356.543 244.947 356.287 244.563 356.031L237.781 352.192C237.525 351.936 237.013 351.936 236.757 352.192ZM246.995 346.177L239.956 350.272C239.7 350.4 239.572 350.656 239.956 350.912L246.739 354.751C246.995 354.879 247.507 354.879 247.763 354.751L254.801 350.656C255.057 350.528 255.185 350.272 254.801 350.016L248.019 346.177C247.763 346.049 247.379 346.049 246.995 346.177ZM288.331 322.373L281.293 326.469C281.037 326.596 280.909 326.852 281.293 327.108L288.075 330.948C288.331 331.076 288.843 331.076 289.099 330.948L296.138 326.852C296.394 326.724 296.522 326.468 296.138 326.213L289.355 322.373C289.099 322.245 288.587 322.245 288.331 322.373ZM277.965 328.388L270.927 332.483C270.671 332.611 270.543 332.867 270.927 333.123L277.709 336.963C277.965 337.091 278.477 337.091 278.733 336.963L285.772 332.867C286.028 332.739 286.156 332.483 285.772 332.227L278.989 328.388C278.733 328.132 278.221 328.132 277.965 328.388ZM298.57 316.486L291.531 320.582C291.275 320.71 291.147 320.966 291.531 321.221L298.314 325.061C298.57 325.189 299.081 325.189 299.337 325.061L306.376 320.966C306.632 320.838 306.76 320.582 306.376 320.326L299.593 316.486C299.337 316.23 298.953 316.23 298.57 316.486ZM257.361 340.29L250.322 344.385C250.066 344.513 249.938 344.769 250.322 345.025L257.105 348.864C257.361 348.992 257.873 348.992 258.129 348.864L265.168 344.769C265.424 344.641 265.552 344.385 265.168 344.129L258.385 340.29C258.129 340.034 257.617 340.034 257.361 340.29ZM267.727 334.275L260.688 338.37C260.432 338.498 260.304 338.754 260.688 339.01L267.471 342.85C267.727 342.978 268.239 342.978 268.495 342.85L275.534 338.754C275.79 338.626 275.918 338.37 275.534 338.114L268.751 334.275C268.367 334.147 267.983 334.147 267.727 334.275ZM254.546 373.052L261.584 368.957C261.84 368.829 261.968 368.573 261.584 368.317L254.801 364.478C254.546 364.35 254.034 364.35 253.778 364.478L246.739 368.573C246.483 368.701 246.355 368.957 246.739 369.213L253.522 373.052C253.778 373.18 254.162 373.18 254.546 373.052ZM200.155 370.493L193.373 366.653C193.117 366.525 192.605 366.525 192.349 366.653L185.31 370.748C185.054 370.876 184.926 371.132 185.31 371.388L192.093 375.228C192.349 375.356 192.861 375.356 193.117 375.228L200.155 371.132C200.411 370.876 200.411 370.62 200.155 370.493ZM213.593 373.82L206.81 369.981C206.554 369.853 206.042 369.853 205.786 369.981L194.908 376.251C194.652 376.379 194.524 376.635 194.908 376.891L201.691 380.731C201.947 380.859 202.459 380.859 202.715 380.731L213.593 374.46C213.849 374.332 213.849 374.076 213.593 373.82ZM190.045 362.814L183.262 358.975C183.007 358.847 182.495 358.847 182.239 358.975L173.536 363.966C173.28 364.094 173.152 364.35 173.536 364.606L180.319 368.445C180.575 368.573 181.087 368.573 181.343 368.445L190.045 363.454C190.301 363.198 190.301 362.942 190.045 362.814ZM196.7 358.975C196.956 359.103 197.468 359.103 197.724 358.975L204.763 354.879C205.019 354.751 205.146 354.495 204.763 354.239L197.98 350.4C197.724 350.272 197.212 350.272 196.956 350.4L189.917 354.495C189.661 354.623 189.533 354.879 189.917 355.135L196.7 358.975ZM226.007 377.915L219.224 374.076C218.968 373.948 218.456 373.948 218.2 374.076L204.635 381.882C204.379 382.01 204.251 382.266 204.635 382.522L211.417 386.362C211.673 386.49 212.185 386.49 212.441 386.362L226.007 378.555C226.135 378.299 226.263 378.043 226.007 377.915ZM230.742 386.234L223.959 382.394C223.703 382.266 223.191 382.266 222.935 382.394L214.233 387.385C213.977 387.513 213.849 387.769 214.233 388.025L221.016 391.865C221.272 391.993 221.783 391.993 222.039 391.865L230.742 386.874C230.998 386.618 230.998 386.362 230.742 386.234ZM273.358 314.695C273.614 314.823 274.126 314.823 274.382 314.695L281.421 310.599C281.677 310.471 281.805 310.215 281.421 309.96L274.638 306.12C274.382 305.992 273.87 305.992 273.614 306.12L266.575 310.215C266.319 310.343 266.191 310.599 266.575 310.855L273.358 314.695ZM252.754 326.596C253.01 326.724 253.522 326.724 253.778 326.596L260.816 322.501C261.072 322.373 261.2 322.117 260.816 321.861L254.034 318.022C253.778 317.894 253.266 317.894 253.01 318.022L245.971 322.117C245.715 322.245 245.587 322.501 245.971 322.757L252.754 326.596ZM207.066 352.96C207.322 353.088 207.834 353.088 208.09 352.96L215.129 348.864C215.385 348.736 215.513 348.481 215.129 348.225L208.346 344.385C208.09 344.257 207.578 344.257 207.322 344.385L200.283 348.48C200.027 348.608 199.899 348.864 200.283 349.12L207.066 352.96ZM263.12 320.71C263.376 320.838 263.888 320.838 264.144 320.71L271.182 316.614C271.438 316.486 271.566 316.23 271.182 315.974L264.4 312.135C264.144 312.007 263.632 312.007 263.376 312.135L256.337 316.23C256.081 316.358 255.953 316.614 256.337 316.87L263.12 320.71ZM242.516 332.611C242.772 332.739 243.284 332.739 243.54 332.611L250.578 328.516C250.834 328.388 250.962 328.132 250.578 327.876L243.795 324.037C243.54 323.909 243.028 323.909 242.772 324.037L235.733 328.132C235.477 328.26 235.349 328.516 235.733 328.772L242.516 332.611ZM235.733 386.618C235.477 386.49 234.965 386.49 234.709 386.618L223.831 392.888C223.575 393.016 223.447 393.272 223.831 393.528L230.614 397.368C230.87 397.496 231.382 397.496 231.638 397.368L242.516 391.097C242.772 390.969 242.9 390.713 242.516 390.457L235.733 386.618ZM227.67 341.058C227.926 341.186 228.438 341.186 228.694 341.058L235.733 336.963C235.989 336.835 236.117 336.579 235.733 336.323L228.95 332.483C228.694 332.355 228.182 332.355 227.926 332.483L220.888 336.579C220.632 336.707 220.504 336.963 220.888 337.219L227.67 341.058ZM217.304 347.073C217.56 347.201 218.072 347.201 218.328 347.073L225.367 342.978C225.623 342.85 225.751 342.594 225.367 342.338L218.584 338.498C218.328 338.37 217.816 338.37 217.56 338.498L210.522 342.594C210.266 342.722 210.138 342.978 210.522 343.233L217.304 347.073ZM426.674 276.43C426.418 276.302 425.906 276.302 425.65 276.43L408.246 286.412C407.99 286.54 407.862 286.796 408.246 287.052L415.028 290.891C415.284 291.019 415.796 291.019 416.052 290.891L433.457 280.909C433.713 280.781 433.841 280.525 433.457 280.269L426.674 276.43ZM403.894 289.611C403.638 289.483 403.126 289.483 402.871 289.611L395.832 293.706C395.576 293.834 395.448 294.09 395.832 294.346L402.615 298.186C402.871 298.314 403.382 298.314 403.638 298.186L410.677 294.09C410.933 293.962 411.061 293.706 410.677 293.451L403.894 289.611ZM264.784 367.165L271.822 363.07C272.078 362.942 272.206 362.686 271.822 362.43L265.04 358.591C264.784 358.463 264.272 358.463 264.016 358.591L256.977 362.686C256.721 362.814 256.593 363.07 256.977 363.326L263.76 367.165C264.016 367.293 264.528 367.293 264.784 367.165ZM383.29 301.513C383.034 301.385 382.522 301.385 382.266 301.513L375.228 305.608C374.972 305.736 374.844 305.992 375.228 306.248L382.01 310.087C382.266 310.215 382.778 310.215 383.034 310.087L390.073 305.992C390.329 305.864 390.457 305.608 390.073 305.352L383.29 301.513ZM437.04 270.415C436.784 270.287 436.272 270.287 436.017 270.415L428.978 274.51C428.722 274.638 428.594 274.894 428.978 275.15L435.761 278.989C436.017 279.117 436.528 279.117 436.784 278.989L443.823 274.894C444.079 274.766 444.207 274.51 443.823 274.254L437.04 270.415ZM454.061 268.367L437.68 258.897C437.424 258.769 436.912 258.769 436.656 258.897L429.618 262.992C429.362 263.12 429.234 263.376 429.618 263.632L445.999 273.102C446.255 273.23 446.767 273.23 447.023 273.102L454.061 269.007C454.317 268.879 454.317 268.495 454.061 268.367ZM344.769 323.653C344.513 323.525 344.001 323.525 343.745 323.653L335.043 328.644C334.787 328.772 334.659 329.028 335.043 329.284L341.826 333.123C342.082 333.251 342.594 333.251 342.849 333.123L351.552 328.132C351.808 328.004 351.936 327.748 351.552 327.492L344.769 323.653ZM370.876 308.68C370.62 308.552 370.109 308.552 369.853 308.68L358.975 314.951C358.719 315.079 358.591 315.335 358.975 315.59L365.757 319.43C366.013 319.558 366.525 319.558 366.781 319.43L377.659 313.159C377.915 313.031 378.043 312.775 377.659 312.519L370.876 308.68ZM320.965 337.475C320.709 337.347 320.198 337.347 319.942 337.475L261.84 371.004C261.584 371.132 261.456 371.388 261.84 371.644L268.623 375.484C268.879 375.612 269.391 375.612 269.647 375.484L327.748 341.954C328.004 341.826 328.132 341.57 327.748 341.314L320.965 337.475ZM259.665 372.924C259.409 372.796 258.897 372.796 258.641 372.924L249.938 377.915C249.682 378.043 249.554 378.299 249.938 378.555L256.721 382.394C256.977 382.522 257.489 382.522 257.745 382.394L266.447 377.403C266.703 377.275 266.831 377.019 266.447 376.763L259.665 372.924ZM332.867 330.564C332.611 330.436 332.099 330.436 331.843 330.564L323.141 335.555C322.885 335.683 322.757 335.939 323.141 336.195L329.924 340.034C330.18 340.162 330.692 340.162 330.948 340.034L339.65 335.043C339.906 334.915 340.034 334.659 339.65 334.403L332.867 330.564ZM247.763 379.707C247.507 379.579 246.995 379.579 246.739 379.707L238.037 384.698C237.781 384.826 237.653 385.082 238.037 385.338L244.819 389.177C245.075 389.305 245.587 389.305 245.843 389.177L254.546 384.186C254.801 384.058 254.929 383.802 254.546 383.546L247.763 379.707ZM356.799 316.87C356.543 316.742 356.031 316.742 355.775 316.87L347.073 321.861C346.817 321.989 346.689 322.245 347.073 322.501L353.855 326.341C354.111 326.469 354.623 326.469 354.879 326.341L363.582 321.349C363.838 321.221 363.966 320.966 363.582 320.71L356.799 316.87ZM393.656 295.498C393.4 295.37 392.888 295.37 392.632 295.498L385.594 299.593C385.338 299.721 385.21 299.977 385.594 300.233L392.376 304.073C392.632 304.201 393.144 304.201 393.4 304.073L400.439 299.977C400.695 299.849 400.823 299.593 400.439 299.337L393.656 295.498ZM416.692 279.373L423.731 275.278C423.987 275.15 424.115 274.894 423.731 274.638L416.948 270.799C416.692 270.671 416.18 270.671 415.924 270.799L408.885 274.894C408.63 275.022 408.502 275.278 408.885 275.534L415.668 279.373C415.924 279.629 416.436 279.629 416.692 279.373ZM374.716 281.421L381.754 277.325C382.01 277.197 382.138 276.942 381.754 276.686L374.972 272.846C374.716 272.718 374.204 272.718 373.948 272.846L366.909 276.942C366.653 277.069 366.525 277.325 366.909 277.581L373.692 281.421C373.948 281.549 374.332 281.549 374.716 281.421ZM347.329 319.43L367.933 307.528C368.189 307.4 368.317 307.144 367.933 306.888L361.15 303.049C360.894 302.921 360.382 302.921 360.126 303.049L339.522 314.951C339.266 315.079 339.138 315.335 339.522 315.59L346.305 319.43C346.561 319.686 346.945 319.686 347.329 319.43ZM405.43 285.388C405.686 285.516 406.198 285.516 406.454 285.388L413.493 281.293C413.749 281.165 413.877 280.909 413.493 280.653L406.71 276.814C406.454 276.686 405.942 276.686 405.686 276.814L398.647 280.909C398.391 281.037 398.263 281.293 398.647 281.549L405.43 285.388ZM396.728 279.757L403.766 275.662C404.022 275.534 404.15 275.278 403.766 275.022L396.984 271.183C396.728 271.055 396.216 271.055 395.96 271.183L388.921 275.278C388.665 275.406 388.537 275.662 388.921 275.918L395.704 279.757C396.088 280.013 396.472 280.013 396.728 279.757ZM336.963 325.445L344.001 321.349C344.257 321.221 344.385 320.966 344.001 320.71L337.218 316.87C336.963 316.742 336.451 316.742 336.195 316.87L329.156 320.966C328.9 321.093 328.772 321.349 329.156 321.605L335.939 325.445C336.195 325.573 336.707 325.573 336.963 325.445ZM382.65 298.57C382.906 298.698 383.418 298.698 383.674 298.57L390.713 294.474C390.969 294.346 391.097 294.09 390.713 293.834L383.93 289.995C383.674 289.867 383.162 289.867 382.906 289.995L375.867 294.09C375.612 294.218 375.484 294.474 375.867 294.73L382.65 298.57ZM285.388 355.263L292.427 351.168C292.683 351.04 292.811 350.784 292.427 350.528L285.644 346.689C285.388 346.561 284.876 346.561 284.62 346.689L277.581 350.784C277.325 350.912 277.197 351.168 277.581 351.424L284.364 355.263C284.62 355.391 285.132 355.391 285.388 355.263ZM295.754 349.248L302.793 345.153C303.049 345.025 303.177 344.769 302.793 344.513L296.01 340.674C295.754 340.546 295.242 340.546 294.986 340.674L287.947 344.769C287.691 344.897 287.564 345.153 287.947 345.409L294.73 349.248C294.986 349.376 295.498 349.376 295.754 349.248ZM275.15 361.15L282.188 357.055C282.444 356.927 282.572 356.671 282.188 356.415L275.406 352.576C275.15 352.448 274.638 352.448 274.382 352.576L267.343 356.671C267.087 356.799 266.959 357.055 267.343 357.311L274.126 361.15C274.382 361.278 274.894 361.278 275.15 361.15ZM316.358 337.347L323.397 333.251C323.653 333.123 323.781 332.867 323.397 332.611L316.614 328.772C316.358 328.644 315.846 328.644 315.59 328.772L308.552 332.867C308.296 332.995 308.168 333.251 308.552 333.507L315.334 337.347C315.59 337.475 316.102 337.475 316.358 337.347ZM305.992 343.233L313.031 339.138C313.287 339.01 313.415 338.754 313.031 338.498L306.248 334.659C305.992 334.531 305.48 334.531 305.224 334.659L298.186 338.754C297.93 338.882 297.802 339.138 298.186 339.394L304.968 343.233C305.352 343.489 305.736 343.489 305.992 343.233ZM326.724 331.332L333.763 327.236C334.019 327.108 334.147 326.852 333.763 326.596L326.98 322.757C326.724 322.629 326.212 322.629 325.957 322.757L318.918 326.852C318.662 326.98 318.534 327.236 318.918 327.492L325.701 331.332C325.957 331.588 326.34 331.588 326.724 331.332ZM382.906 248.659C383.162 248.787 383.674 248.787 383.93 248.659L390.969 244.563C391.225 244.435 391.353 244.179 390.969 243.924L389.177 242.9C388.921 242.772 388.409 242.772 388.153 242.9L381.114 246.995C380.859 247.123 380.731 247.379 381.114 247.635L382.906 248.659ZM331.715 281.037C331.971 281.165 332.483 281.165 332.739 281.037L339.778 276.942C340.034 276.814 340.162 276.558 339.778 276.302L332.995 272.462C332.739 272.334 332.227 272.334 331.971 272.462L324.933 276.558C324.677 276.686 324.549 276.942 324.933 277.197L331.715 281.037ZM352.32 269.135C352.576 269.263 353.088 269.263 353.344 269.135L360.382 265.04C360.638 264.912 360.766 264.656 360.382 264.4L353.6 260.56C353.344 260.433 352.832 260.433 352.576 260.56L345.537 264.656C345.281 264.784 345.153 265.04 345.537 265.296L352.32 269.135ZM319.046 288.331C319.302 288.459 319.814 288.459 320.07 288.331L327.108 284.236C327.364 284.108 327.492 283.852 327.108 283.596L320.326 279.757C320.07 279.629 319.558 279.629 319.302 279.757L312.263 283.852C312.007 283.98 311.879 284.236 312.263 284.492L319.046 288.331ZM341.954 275.15C342.21 275.278 342.721 275.278 342.977 275.15L350.016 271.055C350.272 270.927 350.4 270.671 350.016 270.415L343.233 266.575C342.977 266.447 342.466 266.447 342.21 266.575L335.171 270.671C334.915 270.799 334.787 271.055 335.171 271.311L341.954 275.15ZM298.442 300.233C298.697 300.361 299.209 300.361 299.465 300.233L306.504 296.138C306.76 296.01 306.888 295.754 306.504 295.498L299.721 291.659C299.465 291.531 298.953 291.531 298.697 291.659L291.659 295.754C291.403 295.882 291.275 296.138 291.659 296.394L298.442 300.233ZM308.808 294.218C309.064 294.346 309.576 294.346 309.831 294.218L316.87 290.123C317.126 289.995 317.254 289.739 316.87 289.483L310.087 285.644C309.831 285.516 309.32 285.516 309.064 285.644L302.025 289.739C301.769 289.867 301.641 290.123 302.025 290.379L308.808 294.218ZM362.302 260.56C362.558 260.688 363.07 260.688 363.326 260.56L370.364 256.465C370.62 256.337 370.748 256.081 370.364 255.825L368.573 254.802C368.317 254.674 367.805 254.674 367.549 254.802L360.51 258.897C360.254 259.025 360.126 259.281 360.51 259.537L362.302 260.56ZM393.272 242.644C393.528 242.772 394.04 242.772 394.296 242.644L401.335 238.548C401.591 238.421 401.719 238.165 401.335 237.909L399.543 236.885C399.287 236.757 398.775 236.757 398.519 236.885L391.481 240.98C391.225 241.108 391.097 241.364 391.481 241.62L393.272 242.644ZM407.35 250.834C407.606 250.962 408.118 250.962 408.374 250.834L415.412 246.739C415.668 246.611 415.796 246.355 415.412 246.099L408.629 242.26C408.374 242.132 407.862 242.132 407.606 242.26L400.567 246.355C400.311 246.483 400.183 246.739 400.567 246.995L407.35 250.834ZM427.058 273.486L434.097 269.391C434.353 269.263 434.481 269.007 434.097 268.751L427.314 264.912C427.058 264.784 426.546 264.784 426.29 264.912L419.252 269.007C418.996 269.135 418.868 269.391 419.252 269.647L426.034 273.486C426.29 273.614 426.802 273.614 427.058 273.486ZM372.668 254.546C372.924 254.674 373.436 254.674 373.692 254.546L380.731 250.45C380.987 250.322 381.115 250.066 380.731 249.81L378.939 248.787C378.683 248.659 378.171 248.659 377.915 248.787L370.876 252.882C370.62 253.01 370.492 253.266 370.876 253.522L372.668 254.546ZM288.203 306.12C288.459 306.248 288.971 306.248 289.227 306.12L296.266 302.025C296.522 301.897 296.65 301.641 296.266 301.385L289.483 297.546C289.227 297.418 288.715 297.418 288.459 297.546L281.421 301.641C281.165 301.769 281.037 302.025 281.421 302.281L288.203 306.12Z" fill="#455A64"/>
<path d="M318.662 359.359L320.07 360.126L358.591 382.394L426.802 342.85L428.21 342.082L388.409 319.046L318.662 359.359Z" fill="#37474F"/>
<path d="M320.069 360.127L358.59 382.394L426.802 342.85L388.409 320.71L320.069 360.127Z" fill="#263238"/>
<path d="M103.021 186.59L87.4078 177.504C86.7679 177.12 86.256 176.992 85.872 177.12C85.4881 177.248 84.2083 178.016 83.9524 178.272C83.5685 178.4 83.5685 179.039 84.0804 179.935L87.9197 187.87L85.1042 190.429C83.8244 191.581 83.9524 193.373 85.4881 194.141L101.101 203.227L103.021 202.075V186.59Z" fill="#951BB9"/>
<path opacity="0.5" d="M103.021 186.59L87.4078 177.504C86.7679 177.12 86.256 176.992 85.872 177.12C85.4881 177.248 84.2083 178.016 83.9524 178.272C83.5685 178.4 83.5685 179.039 84.0804 179.935L87.9197 187.87L85.1042 190.429C83.8244 191.581 83.9524 193.373 85.4881 194.141L101.101 203.227L103.021 202.075V186.59Z" fill="white"/>
<path d="M85.361 178.656C83.8253 177.76 83.1854 178.4 83.9533 179.935L87.7926 187.87L84.9771 190.429C83.6973 191.581 83.8253 193.373 85.361 194.141L100.974 203.227V187.742L85.361 178.656Z" fill="#951BB9"/>
<path d="M102.894 236.373C101.87 236.373 101.103 235.605 101.103 234.581V182.623C101.103 181.599 101.87 180.831 102.894 180.831C103.918 180.831 104.686 181.599 104.686 182.623V234.581C104.686 235.605 103.918 236.373 102.894 236.373Z" fill="#455A64"/>
<path d="M35.5781 374.844V371.644H36.346C37.2418 369.725 39.0335 367.933 41.593 366.525C49.6556 361.918 62.8372 361.918 70.8997 366.525C73.4592 368.061 75.2509 369.853 76.1467 371.644H76.9146V374.844C77.0426 377.915 74.995 381.115 70.8997 383.418C62.8372 388.025 49.6556 388.025 41.593 383.418C37.6258 380.987 35.5781 377.915 35.5781 374.844Z" fill="#263238"/>
<path d="M56.3104 383.418C67.7604 383.418 77.0426 378.09 77.0426 371.516C77.0426 364.943 67.7604 359.615 56.3104 359.615C44.8603 359.615 35.5781 364.943 35.5781 371.516C35.5781 378.09 44.8603 383.418 56.3104 383.418Z" fill="#455A64"/>
<path d="M61.5576 259.025V370.237C61.5576 371.005 61.0457 371.772 60.0219 372.412C57.9743 373.564 54.5189 373.564 52.4713 372.412C51.4475 371.772 50.9355 371.005 50.9355 370.237V259.025H61.5576Z" fill="#37474F"/>
<path d="M50.9355 272.462V282.829L61.5576 288.971V278.605L50.9355 272.462Z" fill="#263238"/>
<path d="M89.5839 249.043L109.292 260.433C109.164 260.561 109.036 260.689 108.908 260.817L74.4826 280.781C74.2267 280.909 73.9707 280.781 73.9707 280.525V255.698C73.9707 251.346 74.9945 246.611 76.7862 241.748L89.5839 249.043Z" fill="#951BB9"/>
<path opacity="0.4" d="M89.5839 249.043L109.292 260.433C109.164 260.561 109.036 260.689 108.908 260.817L74.4826 280.781C74.2267 280.909 73.9707 280.781 73.9707 280.525V255.698C73.9707 251.346 74.9945 246.611 76.7862 241.748L89.5839 249.043Z" fill="black"/>
<path d="M109.42 232.662V260.433L76.7861 241.62C76.7861 241.492 76.9141 241.492 76.9141 241.364C80.3695 232.662 86.2564 225.239 92.6552 221.528C95.3428 219.992 97.7743 219.224 100.078 219.224C105.837 219.224 109.42 224.471 109.42 232.662Z" fill="#951BB9"/>
<path opacity="0.3" d="M109.42 232.662V260.433L76.7861 241.62C76.7861 241.492 76.9141 241.492 76.9141 241.364C80.3695 232.662 86.2564 225.239 92.6552 221.528C95.3428 219.992 97.7743 219.224 100.078 219.224C105.837 219.224 109.42 224.471 109.42 232.662Z" fill="black"/>
<path d="M144.869 291.531V289.099H144.614V289.483C144.486 288.843 144.23 288.076 143.974 287.436C142.694 284.364 139.878 281.421 135.783 279.117L112.491 265.68C111.468 265.168 109.932 265.168 109.036 265.68L73.3305 286.284C72.9466 285.9 72.5626 285.644 72.1787 285.004V287.564C72.1787 287.948 72.4347 288.332 72.9466 288.588L96.2383 302.025C102.509 305.608 110.7 307.4 118.506 307.272C125.289 307.144 131.944 305.736 137.063 302.793C142.31 299.594 144.869 295.626 144.869 291.531Z" fill="#951BB9"/>
<path opacity="0.4" d="M144.869 291.531V289.099H144.614V289.483C144.486 288.843 144.23 288.076 143.974 287.436C142.694 284.364 139.878 281.421 135.783 279.117L112.491 265.68C111.468 265.168 109.932 265.168 109.036 265.68L73.3305 286.284C72.9466 285.9 72.5626 285.644 72.1787 285.004V287.564C72.1787 287.948 72.4347 288.332 72.9466 288.588L96.2383 302.025C102.509 305.608 110.7 307.4 118.506 307.272C125.289 307.144 131.944 305.736 137.063 302.793C142.31 299.594 144.869 295.626 144.869 291.531Z" fill="black"/>
<path d="M143.974 287.436C142.694 284.364 139.879 281.421 135.784 279.117L112.492 265.68C111.468 265.168 109.932 265.168 109.037 265.68L73.3311 286.284L96.2389 299.466C102.51 303.049 110.7 304.841 118.507 304.713C125.29 304.585 131.944 303.177 137.063 300.233C141.799 297.546 144.358 293.963 144.87 290.379C144.742 289.355 144.486 288.332 143.974 287.436Z" fill="#951BB9"/>
<path opacity="0.2" d="M143.974 287.436C142.694 284.364 139.879 281.421 135.784 279.117L112.492 265.68C111.468 265.168 109.932 265.168 109.037 265.68L73.3311 286.284L96.2389 299.466C102.51 303.049 110.7 304.841 118.507 304.713C125.29 304.585 131.944 303.177 137.063 300.233C141.799 297.546 144.358 293.963 144.87 290.379C144.742 289.355 144.486 288.332 143.974 287.436Z" fill="black"/>
<path d="M144.868 290.251C144.74 289.227 144.485 288.332 144.101 287.308C142.821 284.236 140.005 281.293 135.91 278.989L112.618 265.552C111.595 265.04 110.059 265.04 109.163 265.552L73.4575 286.156L73.0735 285.9C72.0497 285.388 72.0497 284.492 73.0735 283.852L109.163 262.992C110.187 262.48 111.722 262.48 112.618 262.992L135.91 276.43C140.133 278.861 142.821 281.805 144.101 284.748C144.485 285.772 144.868 286.796 144.868 287.82C144.996 288.715 144.868 289.483 144.868 290.251Z" fill="#951BB9"/>
<path opacity="0.3" d="M144.868 290.251C144.74 289.227 144.485 288.332 144.101 287.308C142.821 284.236 140.005 281.293 135.91 278.989L112.618 265.552C111.595 265.04 110.059 265.04 109.163 265.552L73.4575 286.156L73.0735 285.9C72.0497 285.388 72.0497 284.492 73.0735 283.852L109.163 262.992C110.187 262.48 111.722 262.48 112.618 262.992L135.91 276.43C140.133 278.861 142.821 281.805 144.101 284.748C144.485 285.772 144.868 286.796 144.868 287.82C144.996 288.715 144.868 289.483 144.868 290.251Z" fill="black"/>
<path d="M73.5869 283.468L109.676 262.736L108.908 260.817L74.4828 280.781L73.5869 283.468Z" fill="#951BB9"/>
<path opacity="0.1" d="M73.5869 283.468L109.676 262.736L108.908 260.817L74.4828 280.781L73.5869 283.468Z" fill="black"/>
<path d="M106.221 230.998C106.221 230.486 105.837 229.846 105.325 229.462L61.4291 204.251C60.9171 203.995 60.1493 203.995 59.7654 204.251L58.7415 204.763C58.2296 205.019 57.8457 205.659 57.8457 206.298V239.956C57.8457 240.468 58.2296 241.108 58.7415 241.492L102.638 266.831C103.149 267.087 103.917 267.087 104.301 266.831L105.325 266.32C105.837 266.064 106.221 265.424 106.221 264.784V230.998Z" fill="#F5F5F5"/>
<path d="M105.965 230.23L103.533 231.638L58.1016 205.403C58.2295 205.147 58.4855 204.891 58.7414 204.763L59.7653 204.251C60.2772 203.995 61.045 203.995 61.429 204.251L105.325 229.59C105.709 229.718 105.837 229.974 105.965 230.23Z" fill="#E0E0E0"/>
<path d="M103.533 231.638L103.021 231.894C103.277 232.022 103.533 232.278 103.533 232.662V266.319C103.533 266.575 103.405 266.831 103.277 266.831C103.149 266.831 103.021 266.831 102.893 266.831C102.893 266.831 102.765 266.831 102.765 266.703L58.8695 241.364C58.3576 241.108 57.9736 240.468 57.9736 239.828V206.17C57.9736 205.914 58.1016 205.53 58.2296 205.275L103.533 231.638Z" fill="#EBEBEB"/>
<path opacity="0.2" d="M103.533 231.638L83.1851 239.188C81.7773 239.7 80.1137 239.188 79.2178 237.909L75.8904 232.918L57.8457 205.275L75.2505 233.045L57.8457 239.828C57.8457 240.084 57.9737 240.468 58.1017 240.724L75.3785 233.173L79.2178 239.188C80.1137 240.596 81.9053 241.108 83.3131 240.468L86.0006 239.316L103.277 266.831C103.405 266.703 103.533 266.575 103.533 266.319V265.808L86.1286 239.316L103.533 231.638Z" fill="black"/>
<path d="M95.8547 237.013C95.8547 236.501 95.4708 235.861 94.9589 235.477L51.0628 210.138C50.5509 209.882 49.7831 209.882 49.3991 210.138L48.3753 210.65C47.8634 210.906 47.4795 211.546 47.4795 212.185V245.843C47.4795 246.355 47.8634 246.995 48.3753 247.379L92.2713 272.718C92.7833 272.974 93.5511 272.974 93.935 272.718L94.9589 272.206C95.4708 271.951 95.8547 271.311 95.8547 270.671V237.013Z" fill="#F5F5F5"/>
<path d="M95.5986 236.117L93.1671 237.525L47.7354 211.29C47.8633 211.034 48.1193 210.778 48.3752 210.65L49.399 210.138C49.911 209.882 50.6788 209.882 51.0627 210.138L94.9588 235.477C95.2147 235.605 95.4707 235.861 95.5986 236.117Z" fill="#E0E0E0"/>
<path d="M93.1671 237.525L92.6552 237.781C92.9112 237.909 93.1671 238.165 93.1671 238.549V272.207C93.1671 272.462 93.0392 272.718 92.9112 272.718C92.7832 272.718 92.6552 272.846 92.5273 272.718C92.3993 272.718 92.3993 272.718 92.3993 272.59L48.5033 247.251C47.9914 246.995 47.6074 246.355 47.6074 245.715V212.057C47.6074 211.802 47.7354 211.418 47.8634 211.162L93.1671 237.525Z" fill="#EBEBEB"/>
<path opacity="0.2" d="M93.1672 237.525L72.8189 245.075C71.4111 245.587 69.7474 245.075 68.8516 243.796L65.5242 238.805L47.4795 211.162L64.8843 238.933L47.4795 245.715C47.4795 245.971 47.6075 246.355 47.7354 246.611L65.0123 239.061L68.8516 245.075C69.7474 246.483 71.5391 246.995 72.9469 246.355L75.6344 245.203L92.9112 272.718C93.0392 272.59 93.1672 272.462 93.1672 272.207V271.695L75.7623 245.331L93.1672 237.525Z" fill="black"/>
<path d="M85.4885 243.028C85.4885 242.516 85.1046 241.876 84.5926 241.492L40.6966 216.153C40.1847 215.897 39.4169 215.897 39.0329 216.153L38.0091 216.665C37.4972 216.921 37.1133 217.56 37.1133 218.2V251.858C37.1133 252.37 37.4972 253.01 38.0091 253.394L81.9051 278.733C82.417 278.989 83.1849 278.989 83.5688 278.733L84.5926 278.221C85.1046 277.965 85.4885 277.326 85.4885 276.686V243.028Z" fill="#F5F5F5"/>
<path d="M85.2324 242.132L82.8009 243.54L37.3691 217.304C37.4971 217.049 37.7531 216.793 38.009 216.665L39.0328 216.153C39.5447 215.897 40.3126 215.897 40.6965 216.153L84.5925 241.492C84.8485 241.62 85.1045 241.876 85.2324 242.132Z" fill="#E0E0E0"/>
<path d="M82.801 243.54L82.2891 243.796C82.545 243.924 82.801 244.18 82.801 244.563V278.221C82.801 278.477 82.673 278.733 82.545 278.733C82.417 278.733 82.2891 278.733 82.1611 278.733C82.1611 278.733 82.0331 278.733 82.0331 278.605L38.0091 253.394C37.4972 253.138 37.1133 252.498 37.1133 251.858V218.2C37.1133 217.944 37.2413 217.56 37.3692 217.304L82.801 243.54Z" fill="#EBEBEB"/>
<path opacity="0.2" d="M82.801 243.54L62.4527 251.09C61.0449 251.602 59.3812 251.09 58.4854 249.811L55.158 244.819L37.1133 217.177L54.5181 244.947L37.1133 251.858C37.1133 252.114 37.2413 252.498 37.3692 252.754L54.6461 245.203L58.4854 251.218C59.3812 252.626 61.1729 253.138 62.5807 252.498L65.2682 251.346L82.545 278.861C82.673 278.733 82.801 278.605 82.801 278.349V277.837L65.3961 251.474L82.801 243.54Z" fill="black"/>
<path d="M104.941 218.328C101.486 216.537 96.7508 216.793 91.7597 219.736C86.1287 223.063 80.8816 228.95 77.2983 235.733C76.4025 237.269 75.7626 238.933 74.9947 240.596C73.0751 245.587 71.7953 250.706 71.7953 255.57V283.98C71.1554 283.98 70.5155 283.852 70.0036 283.597L19.4528 254.418C18.429 253.906 17.6611 252.498 17.6611 251.346V224.343C17.6611 210.906 26.4915 194.909 37.4975 188.51C42.7446 185.566 47.3517 185.31 50.9351 187.23L104.941 218.328Z" fill="#951BB9"/>
<path opacity="0.2" d="M104.941 218.328C101.486 216.537 96.7508 216.793 91.7597 219.736C86.1287 223.063 80.8816 228.95 77.2983 235.733C76.4025 237.269 75.7626 238.933 74.9947 240.596C73.0751 245.587 71.7953 250.706 71.7953 255.57V283.98C71.1554 283.98 70.5155 283.852 70.0036 283.597L19.4528 254.418C18.429 253.906 17.6611 252.498 17.6611 251.346V224.343C17.6611 210.906 26.4915 194.909 37.4975 188.51C42.7446 185.566 47.3517 185.31 50.9351 187.23L104.941 218.328Z" fill="black"/>
<path opacity="0.1" d="M19.581 254.29L70.1318 283.469C70.6437 283.724 71.2836 283.852 71.9235 283.852V255.442C71.9235 252.882 72.3074 250.195 72.8193 247.507L18.8131 216.281C18.1732 218.968 17.9173 221.656 17.9173 224.215V251.218C17.7893 252.37 18.5572 253.778 19.581 254.29Z" fill="black"/>
<path d="M74.9946 240.596C73.0749 245.587 71.7952 250.706 71.7952 255.57V283.98C71.5392 283.98 71.4112 283.98 71.1553 283.852C71.1553 282.189 71.1553 273.102 71.1553 255.57C71.1553 234.709 87.2803 221.4 91.6315 219.736C86.0006 223.063 80.7535 228.95 77.1702 235.733C76.4023 237.397 75.6345 238.933 74.9946 240.596Z" fill="#951BB9"/>
<path opacity="0.4" d="M74.9946 240.596C73.0749 245.587 71.7952 250.706 71.7952 255.57V283.98C71.5392 283.98 71.4112 283.98 71.1553 283.852C71.1553 282.189 71.1553 273.102 71.1553 255.57C71.1553 234.709 87.2803 221.4 91.6315 219.736C86.0006 223.063 80.7535 228.95 77.1702 235.733C76.4023 237.397 75.6345 238.933 74.9946 240.596Z" fill="black"/>
<path d="M74.4834 280.781C74.2274 280.909 73.9715 280.781 73.9715 280.525V255.697C73.9715 251.346 74.9953 246.611 76.9149 241.748C76.9149 241.62 77.0429 241.62 77.0429 241.492C77.8108 239.7 78.5786 238.037 79.4745 236.373C82.9298 229.846 87.7929 224.599 92.912 221.656C95.5995 220.12 98.0311 219.352 100.335 219.352C101.742 219.352 103.022 219.736 104.174 220.248C107.629 222.04 109.677 226.519 109.677 232.79V259.921C109.677 260.305 109.421 260.689 109.165 260.817L109.933 262.736L110.061 262.608C110.317 262.48 110.573 262.224 110.829 261.968C111.341 261.328 111.725 260.433 111.725 259.793V232.79C111.725 225.623 109.165 220.504 105.07 218.456C101.614 216.665 97.0073 216.921 91.8882 219.864C86.2572 223.191 81.0102 229.078 77.4268 235.861C76.531 237.397 75.8911 239.061 75.1232 240.724C73.2036 245.715 71.9238 250.834 71.9238 255.697V284.108C72.0518 284.108 72.1798 284.108 72.1798 284.108C72.6917 284.108 73.2036 283.98 73.5875 283.724L74.4834 280.781Z" fill="#951BB9"/>
<path opacity="0.1" d="M74.4834 280.781C74.2274 280.909 73.9715 280.781 73.9715 280.525V255.697C73.9715 251.346 74.9953 246.611 76.9149 241.748C76.9149 241.62 77.0429 241.62 77.0429 241.492C77.8108 239.7 78.5786 238.037 79.4745 236.373C82.9298 229.846 87.7929 224.599 92.912 221.656C95.5995 220.12 98.0311 219.352 100.335 219.352C101.742 219.352 103.022 219.736 104.174 220.248C107.629 222.04 109.677 226.519 109.677 232.79V259.921C109.677 260.305 109.421 260.689 109.165 260.817L109.933 262.736L110.061 262.608C110.317 262.48 110.573 262.224 110.829 261.968C111.341 261.328 111.725 260.433 111.725 259.793V232.79C111.725 225.623 109.165 220.504 105.07 218.456C101.614 216.665 97.0073 216.921 91.8882 219.864C86.2572 223.191 81.0102 229.078 77.4268 235.861C76.531 237.397 75.8911 239.061 75.1232 240.724C73.2036 245.715 71.9238 250.834 71.9238 255.697V284.108C72.0518 284.108 72.1798 284.108 72.1798 284.108C72.6917 284.108 73.2036 283.98 73.5875 283.724L74.4834 280.781Z" fill="black"/>
<path d="M194.908 207.962C194.908 205.787 196.444 203.227 198.236 202.203L362.302 107.501C364.093 106.477 367.165 106.477 368.957 107.501L372.668 109.676C374.46 110.7 375.995 113.259 375.995 115.435V245.715C375.995 247.763 374.46 250.451 372.668 251.474L208.602 346.177C206.81 347.201 203.739 347.201 201.947 346.177L198.236 344.002C196.444 342.978 194.908 340.418 194.908 338.243V207.962Z" fill="#951BB9"/>
<g opacity="0.7">
<g opacity="0.7">
<path opacity="0.7" d="M194.908 207.962C194.908 205.787 196.444 203.227 198.236 202.203L362.302 107.501C364.093 106.477 367.165 106.477 368.957 107.501L372.668 109.676C374.46 110.7 375.995 113.259 375.995 115.435V245.715C375.995 247.763 374.46 250.451 372.668 251.474L208.602 346.177C206.81 347.201 203.739 347.201 201.947 346.177L198.236 344.002C196.444 342.978 194.908 340.418 194.908 338.243V207.962Z" fill="white"/>
</g>
</g>
<path d="M195.932 204.635L205.402 210.138L375.099 112.108C374.459 111.084 373.691 110.188 372.795 109.676L369.084 107.501C367.292 106.477 364.221 106.477 362.429 107.501L198.363 202.203C197.339 202.715 196.572 203.611 195.932 204.635Z" fill="#951BB9"/>
<path opacity="0.8" d="M195.932 204.635L205.402 210.138L375.099 112.108C374.459 111.084 373.691 110.188 372.795 109.676L369.084 107.501C367.292 106.477 364.221 106.477 362.429 107.501L198.363 202.203C197.339 202.715 196.572 203.611 195.932 204.635Z" fill="white"/>
<path opacity="0.1" d="M194.908 207.962V338.371C194.908 340.546 196.444 343.106 198.236 344.13L201.947 346.305C202.203 346.433 202.587 346.561 202.843 346.689C203.227 346.817 203.739 346.945 204.251 346.945C205.146 347.073 206.042 347.073 206.938 346.817C207.194 346.817 207.322 346.689 207.578 346.689C207.706 346.689 207.834 346.561 207.962 346.561C207.322 346.817 206.81 346.689 206.298 346.561C205.658 346.177 205.274 345.537 205.274 344.385V213.977C205.274 212.569 205.914 211.546 207.066 211.162L205.274 210.138L195.804 204.635C195.292 205.659 194.908 206.81 194.908 207.962Z" fill="#951BB9"/>
<path opacity="0.05" d="M194.908 207.962V338.371C194.908 340.546 196.444 343.106 198.236 344.13L201.947 346.305C202.203 346.433 202.587 346.561 202.843 346.689C203.227 346.817 203.739 346.945 204.251 346.945C205.146 347.073 206.042 347.073 206.938 346.817C207.194 346.817 207.322 346.689 207.578 346.689C207.706 346.689 207.834 346.561 207.962 346.561C207.322 346.817 206.81 346.689 206.298 346.561C205.658 346.177 205.274 345.537 205.274 344.385V213.977C205.274 212.569 205.914 211.546 207.066 211.162L205.274 210.138L195.804 204.635C195.292 205.659 194.908 206.81 194.908 207.962Z" fill="black"/>
<path opacity="0.2" d="M205.402 210.138L284.236 239.573C289.867 241.62 296.138 239.573 299.465 234.581L312.135 215.257L375.227 112.236L314.694 216.025L376.251 245.971C376.251 246.995 375.867 248.275 375.227 249.299L314.567 216.281L299.849 239.828C296.522 245.204 289.611 247.379 283.852 244.692L273.358 240.084L206.682 346.561C206.042 346.177 205.658 345.537 205.658 344.385V342.21L273.102 239.956L205.402 210.138Z" fill="#951BB9"/>
<path opacity="0.05" d="M205.402 210.138L284.236 239.573C289.867 241.62 296.138 239.573 299.465 234.581L312.135 215.257L375.227 112.236L314.694 216.025L376.251 245.971C376.251 246.995 375.867 248.275 375.227 249.299L314.567 216.281L299.849 239.828C296.522 245.204 289.611 247.379 283.852 244.692L273.358 240.084L206.682 346.561C206.042 346.177 205.658 345.537 205.658 344.385V342.21L273.102 239.956L205.402 210.138Z" fill="black"/>
<path d="M236.501 231.894C236.501 229.718 238.037 227.159 239.828 226.135L403.895 131.432C405.686 130.408 408.758 130.408 410.549 131.432L414.261 133.608C416.052 134.632 417.588 137.191 417.588 139.367V269.775C417.588 271.823 416.052 274.51 414.261 275.534L250.194 370.237C248.403 371.261 245.331 371.261 243.54 370.237L239.828 368.061C238.037 367.037 236.501 364.35 236.501 362.302V231.894Z" fill="#951BB9"/>
<g opacity="0.5">
<g opacity="0.5">
<path opacity="0.5" d="M236.501 231.894C236.501 229.718 238.037 227.159 239.828 226.135L403.895 131.432C405.686 130.408 408.758 130.408 410.549 131.432L414.261 133.608C416.052 134.632 417.588 137.191 417.588 139.367V269.775C417.588 271.823 416.052 274.51 414.261 275.534L250.194 370.237C248.403 371.261 245.331 371.261 243.54 370.237L239.828 368.061C238.037 367.037 236.501 364.35 236.501 362.302V231.894Z" fill="white"/>
</g>
</g>
<path d="M237.524 228.694L246.995 234.197L416.692 136.167C416.052 135.143 415.284 134.248 414.388 133.736L410.677 131.56C408.885 130.536 405.814 130.536 404.022 131.56L239.956 226.263C238.932 226.775 238.164 227.671 237.524 228.694Z" fill="#951BB9"/>
<path opacity="0.6" d="M237.524 228.694L246.995 234.197L416.692 136.167C416.052 135.143 415.284 134.248 414.388 133.736L410.677 131.56C408.885 130.536 405.814 130.536 404.022 131.56L239.956 226.263C238.932 226.775 238.164 227.671 237.524 228.694Z" fill="white"/>
<path opacity="0.1" d="M236.501 231.894V362.302C236.501 364.478 238.037 367.037 239.828 368.061L243.54 370.237C243.796 370.365 244.18 370.493 244.436 370.621C244.819 370.749 245.331 370.877 245.843 370.877C246.739 371.005 247.635 371.005 248.531 370.749C248.787 370.749 248.915 370.621 249.171 370.621C249.299 370.621 249.427 370.493 249.555 370.493C248.915 370.749 248.403 370.621 248.019 370.493C247.379 370.109 246.995 369.469 246.995 368.317V237.909C246.995 236.501 247.635 235.477 248.787 235.093L246.995 234.07L237.525 228.567C236.885 229.718 236.501 230.87 236.501 231.894Z" fill="black"/>
<path opacity="0.4" d="M246.995 234.069L325.829 263.504C331.46 265.552 337.731 263.504 341.058 258.513L353.728 239.188L416.82 136.167L356.287 239.956L417.844 269.903C417.844 270.927 417.46 272.207 416.82 273.23L356.159 240.212L341.442 263.76C338.115 269.135 331.204 271.311 325.445 268.623L314.951 264.016L248.275 370.493C247.635 370.109 247.251 369.469 247.251 368.317V366.141L314.695 263.888L246.995 234.069Z" fill="#951BB9"/>
<path opacity="0.05" d="M246.995 234.069L325.829 263.504C331.46 265.552 337.731 263.504 341.058 258.513L353.728 239.188L416.82 136.167L356.287 239.956L417.844 269.903C417.844 270.927 417.46 272.207 416.82 273.23L356.159 240.212L341.442 263.76C338.115 269.135 331.204 271.311 325.445 268.623L314.951 264.016L248.275 370.493C247.635 370.109 247.251 369.469 247.251 368.317V366.141L314.695 263.888L246.995 234.069Z" fill="black"/>
<path d="M278.478 256.977L449.199 158.435L455.981 162.402C457.773 163.426 459.181 165.986 459.181 167.905V293.835C459.181 295.882 457.773 298.314 455.981 299.338L291.787 394.296C289.995 395.32 287.18 395.32 285.388 394.296L281.805 392.249C280.013 391.225 278.606 388.665 278.606 386.746L278.478 256.977Z" fill="#951BB9"/>
<path opacity="0.2" d="M278.478 256.977L449.199 158.435L455.981 162.402C457.773 163.426 459.181 165.986 459.181 167.905V293.835C459.181 295.882 457.773 298.314 455.981 299.338L291.787 394.296C289.995 395.32 287.18 395.32 285.388 394.296L281.805 392.249C280.013 391.225 278.606 388.665 278.606 386.746L278.478 256.977Z" fill="black"/>
<path d="M448.175 147.429L448.815 147.045L446.127 145.51C445.871 145.382 445.615 145.254 445.359 145.126L370.237 117.227C368.189 116.459 365.63 117.355 364.478 119.018L280.653 241.876C279.501 243.668 278.478 246.739 278.478 248.915C278.478 252.37 278.478 257.105 278.478 257.105L281.037 258.641L449.198 158.435V150.245C449.198 149.349 448.815 148.325 448.175 147.429Z" fill="#951BB9"/>
<path opacity="0.1" d="M368.189 119.786C367.805 120.042 367.549 120.298 367.293 120.682L283.212 243.412C282.573 244.308 282.061 245.587 281.677 246.867L279.117 245.331C279.245 244.691 279.501 244.052 279.757 243.54C279.885 243.284 280.013 243.028 280.141 242.772C280.141 242.772 280.141 242.644 280.269 242.644C280.397 242.388 280.525 242.132 280.653 241.876L364.734 119.146C364.862 119.018 364.99 118.762 365.118 118.634C365.245 118.506 365.374 118.378 365.629 118.25L368.189 119.786Z" fill="black"/>
<path opacity="0.35" d="M448.943 147.045C448.687 146.917 448.431 146.789 448.175 146.661L373.053 118.762C371.517 118.123 369.469 118.634 368.189 119.658L365.63 118.123C366.91 116.971 368.957 116.587 370.493 117.227L445.615 145.126C445.871 145.254 446.127 145.382 446.255 145.51L448.943 147.045Z" fill="white"/>
<path d="M280.142 242.644C280.27 242.388 280.398 242.132 280.654 241.876C280.526 242.132 280.398 242.388 280.142 242.644Z" fill="#951BB9"/>
<path d="M365.117 118.634C365.245 118.506 365.373 118.378 365.629 118.25C365.373 118.378 365.245 118.506 365.117 118.634Z" fill="#951BB9"/>
<path d="M279.117 245.331C279.373 244.692 279.501 244.052 279.757 243.412C279.501 244.052 279.245 244.692 279.117 245.331Z" fill="#951BB9"/>
<path d="M279.757 243.412C279.885 243.156 280.013 242.9 280.141 242.644C280.013 243.028 279.885 243.156 279.757 243.412Z" fill="#951BB9"/>
<path opacity="0.2" d="M364.733 119.146C364.861 119.018 364.989 118.762 365.117 118.634C364.989 118.762 364.861 119.018 364.733 119.146Z" fill="black"/>
<path d="M367.293 120.682L283.213 243.412C282.061 245.203 281.037 248.275 281.037 250.45C281.037 253.906 281.037 258.641 281.037 258.641L451.758 159.971V151.78C451.758 149.605 450.094 147.301 448.175 146.661L373.052 118.762C371.133 118.123 368.445 118.89 367.293 120.682Z" fill="#951BB9"/>
<path opacity="0.05" d="M451.758 151.78C451.758 150.757 451.374 149.733 450.862 148.965L281.677 246.867C281.293 248.019 281.037 249.299 281.037 250.323C281.037 253.778 281.037 258.513 281.037 258.513L451.758 159.971V151.78Z" fill="black"/>
<path d="M444.464 117.227C444.464 116.331 444.208 115.691 443.696 115.435C443.184 115.179 438.961 112.747 438.449 112.364C437.937 112.108 437.297 112.108 436.529 112.62L296.523 193.501C294.987 194.397 293.707 196.572 293.707 198.364V366.013C293.707 366.909 293.963 367.549 294.475 367.805C294.987 368.061 299.21 370.493 299.722 370.749C300.234 371.005 300.874 371.005 301.642 370.493L441.648 289.611C443.184 288.715 444.464 286.54 444.464 284.876V117.227Z" fill="#F0F0F0"/>
<path d="M301.77 370.621L441.776 289.739C443.312 288.843 444.592 286.668 444.592 284.876V117.227C444.592 115.435 443.312 114.795 441.776 115.691L301.77 196.572C300.234 197.468 298.954 199.644 298.954 201.435V369.085C298.954 370.749 300.234 371.388 301.77 370.621Z" fill="#FAFAFA"/>
<path d="M391.482 211.929C391.354 213.977 390.97 215.769 390.458 217.56C389.946 219.352 389.178 220.888 388.41 222.296C387.642 223.703 386.746 224.855 385.723 225.879C384.699 226.903 383.803 227.671 382.779 228.183C380.987 229.078 379.708 229.462 378.684 229.206C377.788 228.95 377.02 228.566 376.636 227.927C376.38 228.566 375.996 229.206 375.74 229.974C375.356 230.614 374.973 231.254 374.461 232.022C373.949 232.662 373.309 233.302 372.541 233.941C371.773 234.581 370.877 235.221 369.725 235.733C368.446 236.373 367.294 236.629 366.27 236.373C365.246 236.117 364.351 235.605 363.711 234.581C363.071 233.558 362.559 232.278 362.175 230.486C361.791 228.822 361.791 226.775 361.791 224.343C361.919 222.04 362.175 219.736 362.687 217.688C363.199 215.513 363.711 213.593 364.478 211.929C365.246 210.138 366.142 208.602 367.166 207.322C368.19 206.043 369.47 205.019 370.749 204.379C372.157 203.611 373.181 203.355 373.949 203.739C374.589 203.995 375.229 204.507 375.612 205.275V204.635C375.612 204.123 375.74 203.483 376.124 202.971C376.38 202.459 376.764 202.075 377.148 201.819L379.836 200.412C380.22 200.156 380.604 200.284 380.859 200.54C381.115 200.795 381.243 201.179 381.243 201.819L380.604 218.2C380.604 219.48 380.731 220.248 381.243 220.632C381.755 221.016 382.395 221.016 383.035 220.632C383.675 220.248 384.315 219.608 384.955 218.712C385.467 217.816 385.851 216.409 385.979 214.745C386.107 213.337 386.234 211.801 386.234 210.394C386.234 208.858 386.362 207.45 386.234 206.171C386.106 203.483 385.851 201.179 385.211 199.388C384.571 197.596 383.803 196.316 382.651 195.42C381.499 194.653 380.092 194.269 378.3 194.525C376.508 194.653 374.461 195.42 372.029 196.7C369.981 197.724 368.19 199.132 366.526 200.795C364.862 202.459 363.455 204.379 362.175 206.426C360.895 208.474 359.999 210.778 359.231 213.209C358.464 215.641 357.952 218.2 357.568 220.76C357.44 221.4 357.44 222.424 357.312 223.447C357.312 224.599 357.184 225.751 357.184 226.903C357.184 228.055 357.056 229.206 357.056 230.358C357.056 231.51 357.056 232.406 357.056 233.046C357.184 235.349 357.568 237.397 358.208 239.061C358.847 240.724 359.743 242.004 360.767 243.028C361.919 243.924 363.199 244.436 364.734 244.436C366.27 244.436 368.062 243.924 370.109 242.9C371.517 242.132 372.797 241.364 373.821 240.724C374.845 239.956 375.868 239.189 376.636 238.421C377.404 237.653 378.172 236.885 378.684 236.245C379.324 235.477 379.836 234.837 380.22 234.069C380.604 233.43 380.987 233.046 381.115 232.662C381.371 232.406 381.627 232.15 382.011 231.894L385.851 229.846C386.234 229.59 386.618 229.718 386.874 229.846C387.13 230.102 387.258 230.486 387.258 231.254C387.258 231.638 387.13 232.15 386.874 232.534C386.106 233.941 385.211 235.477 384.187 237.141C383.163 238.805 382.011 240.34 380.731 241.876C379.452 243.412 377.788 244.947 375.996 246.355C374.205 247.891 372.029 249.171 369.598 250.45C366.526 251.986 363.839 252.754 361.663 252.626C359.359 252.498 357.568 251.73 356.032 250.323C354.496 248.915 353.345 246.995 352.577 244.436C351.809 242.004 351.297 239.189 351.297 235.989C351.297 235.349 351.297 234.325 351.297 233.174C351.297 232.022 351.425 230.742 351.425 229.462C351.425 228.183 351.553 226.903 351.553 225.751C351.553 224.599 351.681 223.575 351.681 222.935C351.937 219.608 352.577 216.281 353.6 212.953C354.624 209.498 356.032 206.299 357.696 203.227C359.359 200.156 361.407 197.34 363.839 194.781C366.27 192.221 368.958 190.173 372.029 188.638C375.612 186.846 378.556 185.95 381.115 185.95C383.547 185.95 385.467 186.59 387.002 187.998C388.538 189.406 389.562 191.325 390.33 193.885C390.97 196.444 391.354 199.388 391.482 202.587C391.482 203.867 391.482 205.403 391.354 207.194C391.609 208.858 391.609 210.394 391.482 211.929ZM367.422 221.272C367.294 223.831 367.55 225.623 368.19 226.647C368.83 227.671 369.725 227.927 371.005 227.287C372.285 226.647 373.309 225.495 373.949 223.703C374.589 222.04 375.101 219.864 375.101 217.305C375.229 214.745 374.973 212.953 374.333 211.929C373.693 210.906 372.797 210.65 371.517 211.29C370.237 211.929 369.342 213.081 368.574 214.873C367.934 216.537 367.55 218.712 367.422 221.272Z" fill="#951BB9"/>
<path d="M298.954 368.957C298.954 369.725 299.21 370.365 299.594 370.621C298.698 370.109 294.987 367.933 294.603 367.677C294.091 367.421 293.835 366.781 293.835 365.885V198.236C293.835 197.34 294.091 196.444 294.603 195.548L299.85 198.492C299.338 199.388 299.082 200.284 299.082 201.179V368.957H298.954Z" fill="#E0E0E0"/>
<path d="M454.829 295.626C454.829 295.754 454.701 295.754 454.701 295.882L383.546 273.358C377.915 270.927 371.388 272.846 368.189 278.094L292.171 391.097L289.355 392.761C288.459 393.273 287.692 393.273 287.18 393.017L365.373 276.558C368.573 271.311 375.228 269.391 380.731 271.823L454.829 295.626Z" fill="#951BB9"/>
<path opacity="0.4" d="M361.15 289.099L361.278 288.971L292.043 391.097L289.227 392.761C288.332 393.273 287.564 393.273 287.052 393.017L358.335 287.564L361.15 289.099Z" fill="white"/>
<path opacity="0.4" d="M454.958 295.626C454.958 295.754 454.83 295.754 454.83 295.882L383.675 273.358C378.044 270.927 371.517 272.846 368.317 278.094L365.502 276.43C368.701 271.311 375.228 269.263 380.859 271.695L454.958 295.626Z" fill="white"/>
<path d="M459.18 167.138C459.052 166.242 458.54 165.986 457.901 166.37C457.645 166.498 457.389 166.882 457.133 167.266L456.749 167.778L386.49 274.51L375.995 289.099C374.844 290.763 372.284 291.787 370.236 291.275L361.15 289.099L292.043 263.632C291.531 263.504 291.019 263.504 290.635 263.632C290.507 263.632 290.251 263.76 290.123 263.76L292.683 262.224L358.847 286.54L367.549 289.611C369.597 290.123 372.156 289.099 373.308 287.436L383.802 272.846L454.317 165.602C454.573 165.346 454.829 165.09 455.085 164.834L448.942 161.379L451.502 159.843L455.725 162.275C457.517 163.298 458.796 165.346 459.18 167.138Z" fill="#951BB9"/>
<path opacity="0.4" d="M386.49 274.51L375.996 289.099C374.844 290.763 372.284 291.787 370.237 291.275L361.15 289.099L361.278 288.972L361.662 288.332L367.549 289.739C369.597 290.251 372.156 289.227 373.308 287.564L383.674 273.102L386.49 274.51Z" fill="white"/>
<path opacity="0.1" d="M455.982 162.403L451.758 159.971L449.199 161.507L455.342 165.09C455.086 165.346 454.702 165.474 454.574 165.858L384.059 273.102L383.931 273.23L386.49 274.638L456.749 167.905L457.133 167.394C457.389 167.01 457.645 166.754 457.901 166.498C458.541 166.114 459.053 166.37 459.181 167.266C458.797 165.346 457.517 163.298 455.982 162.403Z" fill="black"/>
<path d="M293.579 265.68L278.478 256.977V386.618C278.478 388.665 279.885 391.097 281.677 392.121L285.26 394.168C287.052 395.192 289.867 395.192 291.659 394.168L293.451 393.145V265.68H293.579Z" fill="#951BB9"/>
<path opacity="0.15" d="M293.579 265.68L278.478 256.977V386.618C278.478 388.665 279.885 391.097 281.677 392.121L285.26 394.168C287.052 395.192 289.867 395.192 291.659 394.168L293.451 393.145V265.68H293.579Z" fill="black"/>
<path d="M459.181 168.034V293.963C459.181 294.986 458.797 296.138 458.157 297.162C457.645 298.058 457.005 298.698 456.237 299.338H456.109C455.981 299.338 455.981 299.466 455.853 299.466L291.787 394.296C290.891 394.808 290.124 394.808 289.612 394.552C289.1 394.296 288.716 393.785 288.588 393.017C288.588 392.889 288.588 392.633 288.588 392.505V266.576C288.588 264.528 290.124 263.248 292.171 263.76L361.279 289.228L370.365 291.403C372.413 291.915 374.972 290.891 376.124 289.228L386.618 274.638L456.749 167.906L457.133 167.394C458.285 165.602 459.181 165.986 459.181 168.034Z" fill="#951BB9"/>
<path d="M455.982 299.466C456.11 299.466 456.11 299.338 456.238 299.338L456.366 299.21C457.133 298.698 457.773 297.93 458.285 297.162C458.925 296.138 459.309 294.986 459.309 293.963L386.49 274.51L435.121 311.495L455.982 299.466Z" fill="#951BB9"/>
<path opacity="0.2" d="M455.982 299.466C456.11 299.466 456.11 299.338 456.238 299.338L456.366 299.21C457.133 298.698 457.773 297.93 458.285 297.162C458.925 296.138 459.309 294.986 459.309 293.963L386.49 274.51L435.121 311.495L455.982 299.466Z" fill="black"/>
<path d="M288.588 392.505C288.588 393.529 288.972 394.296 289.612 394.68C290.124 394.936 290.891 394.936 291.787 394.424L348.353 361.79L361.279 289.228L288.588 390.329V392.505Z" fill="#951BB9"/>
<path opacity="0.15" d="M368.189 277.965L289.484 394.552C288.844 394.296 288.46 393.528 288.46 392.505V390.457L365.246 276.558L368.189 277.965Z" fill="black"/>
<path d="M458.285 297.162C457.773 298.058 457.133 298.698 456.365 299.21L456.237 299.338L291.787 394.296C290.891 394.808 290.123 394.808 289.611 394.552L368.317 277.966C371.516 272.718 378.171 270.799 383.802 273.23L458.285 297.162Z" fill="#951BB9"/>
<path opacity="0.15" d="M279.117 245.331L281.677 246.867C281.293 248.147 281.037 249.299 281.037 250.323C281.037 253.778 281.037 258.513 281.037 258.513L278.478 256.977C278.478 256.977 278.478 252.37 278.478 248.787C278.478 247.891 278.733 246.611 279.117 245.331Z" fill="black"/>
<path d="M292.811 262.352L290.251 263.76L287.564 262.224L281.037 258.513L283.597 257.105L292.811 262.352Z" fill="#951BB9"/>
<path opacity="0.1" d="M292.939 262.352L283.597 257.105L281.037 258.641L287.564 262.352L290.251 263.888C290.379 263.76 290.635 263.76 290.763 263.76C291.147 263.632 291.659 263.632 292.171 263.76L297.418 265.68L357.695 287.82L358.591 286.412L292.939 262.352Z" fill="black"/>
<path d="M151.525 44.4079L141.799 50.0389C141.799 49.655 141.927 49.1431 141.927 48.7591V45.9437C141.927 40.9526 138.343 38.9049 133.992 41.3365C132.2 42.3603 130.665 44.024 129.257 45.8157C128.489 39.5448 123.626 37.1133 117.611 40.5686C111.084 44.28 105.837 53.4943 105.837 61.0449V65.2681C105.837 67.1878 106.221 68.8515 106.861 70.1312L98.7985 74.8664C96.3669 76.2741 94.4473 79.6015 94.4473 82.417C94.4473 85.2325 96.3669 86.3843 98.7985 84.9766L151.653 54.5181C154.084 53.1103 156.004 49.783 156.004 46.9675C155.876 44.152 153.956 43.0002 151.525 44.4079Z" fill="#F0F0F0"/>
<path d="M104.301 12.1578L92.3993 19.1965C92.3993 18.6846 92.5273 18.1727 92.5273 17.6608V14.0775C92.5273 7.93458 88.1761 5.37505 82.8011 8.44649C80.6255 9.72626 78.5778 11.6459 77.0421 13.9495C76.1463 6.14291 70.0034 3.32742 62.7087 7.55065C54.6462 12.1578 48.2474 23.4198 48.2474 32.6341V37.8811C48.2474 40.3127 48.6313 42.3603 49.5271 43.896L39.5449 49.655C36.6015 51.3187 34.1699 55.5419 34.1699 58.9973C34.1699 62.4527 36.6015 63.8604 39.5449 62.0687L104.557 24.5716C107.501 22.9079 109.932 18.6846 109.932 15.2293C109.804 11.9019 107.373 10.4941 104.301 12.1578Z" fill="#F0F0F0"/>
<path d="M484.264 124.521L529.44 95.5986L549.404 101.997L484.264 124.521Z" fill="#951BB9"/>
<path d="M484.264 124.521L523.297 91.8873L514.594 81.9052L484.264 124.521Z" fill="#951BB9"/>
<path d="M523.297 91.8873V99.4379L484.264 124.521L523.297 91.8873Z" fill="#951BB9"/>
<path opacity="0.25" d="M523.297 91.8873V99.4379L484.264 124.521L523.297 91.8873Z" fill="black"/>
<path d="M529.824 91.2475C529.568 91.2475 529.312 91.1195 529.056 90.9915C528.672 90.6076 528.672 89.9677 529.056 89.5838C530.463 88.304 531.615 87.0242 532.767 85.4885C533.151 85.1046 533.663 84.9766 534.175 85.3605C534.559 85.7445 534.687 86.2564 534.303 86.7683C533.151 88.304 531.871 89.7117 530.335 90.9915C530.335 91.2475 530.079 91.2475 529.824 91.2475ZM537.118 81.6492C536.99 81.6492 536.862 81.6492 536.734 81.5212C536.222 81.2653 536.094 80.7534 536.35 80.2415C537.502 78.0658 538.27 75.6343 538.91 73.2027C539.038 72.6908 539.55 72.3069 540.062 72.4349C540.574 72.5629 540.958 73.0748 540.83 73.5867C540.19 76.1462 539.294 78.7057 538.142 81.0093C537.758 81.5212 537.374 81.6492 537.118 81.6492ZM540.574 68.2116C540.062 68.2116 539.55 67.6997 539.55 67.1878C539.55 66.6759 539.55 66.164 539.55 65.6521C539.55 63.7325 539.422 61.6848 539.038 59.7652C538.91 59.2533 539.294 58.7414 539.806 58.6134C540.318 58.4854 540.83 58.8693 540.958 59.3813C541.341 61.4289 541.469 63.4765 541.469 65.6521C541.469 66.164 541.469 66.8039 541.469 67.3158C541.469 67.8277 541.085 68.2116 540.574 68.2116ZM538.526 54.3902C538.142 54.3902 537.758 54.1342 537.63 53.7503C536.862 51.4467 535.838 49.1431 534.559 46.9675C534.303 46.4556 534.431 45.9437 534.943 45.6877C535.455 45.4318 535.966 45.5598 536.222 46.0717C537.502 48.3753 538.654 50.8068 539.422 53.2384C539.55 53.7503 539.294 54.2622 538.782 54.5181C538.654 54.3902 538.654 54.3902 538.526 54.3902ZM531.743 42.1044C531.487 42.1044 531.231 41.9764 530.975 41.7205C529.44 39.8008 527.776 37.8812 525.984 36.0895C525.6 35.7056 525.6 35.0657 525.984 34.6817C526.368 34.2978 527.008 34.2978 527.392 34.6817C529.312 36.4734 531.103 38.521 532.639 40.4407C533.023 40.8246 532.895 41.4645 532.511 41.8484C532.127 41.9764 531.999 42.1044 531.743 42.1044ZM521.761 32.2502C521.505 32.2502 521.377 32.2502 521.121 31.9942C519.201 30.4585 517.026 29.0508 514.85 27.771C514.338 27.515 514.21 26.8752 514.466 26.4912C514.722 25.9793 515.362 25.8513 515.746 26.1073C518.05 27.3871 520.225 28.9228 522.273 30.4585C522.657 30.7145 522.785 31.3543 522.401 31.8663C522.273 32.1222 522.017 32.2502 521.761 32.2502ZM421.171 28.5389C420.787 28.5389 420.531 28.4109 420.275 28.0269C420.019 27.515 420.147 27.0031 420.659 26.7472C422.835 25.4674 425.139 24.3156 427.57 23.1638C428.082 22.9079 428.594 23.1638 428.85 23.6757C429.106 24.1876 428.85 24.6996 428.338 24.9555C426.034 25.9793 423.731 27.2591 421.555 28.5389C421.555 28.4109 421.299 28.5389 421.171 28.5389ZM509.731 24.9555C509.603 24.9555 509.475 24.9555 509.347 24.8275C507.044 23.6757 504.74 22.6519 502.437 21.7561C501.925 21.6281 501.669 20.9882 501.925 20.4763C502.053 19.9644 502.692 19.7085 503.204 19.9644C505.636 20.8603 507.939 21.8841 510.371 23.0359C510.883 23.2918 511.011 23.8037 510.755 24.3156C510.371 24.8275 510.115 24.9555 509.731 24.9555ZM433.841 22.396C433.457 22.396 433.073 22.14 432.945 21.7561C432.689 21.2442 432.945 20.7323 433.457 20.4763C435.889 19.5805 438.32 18.6846 440.752 17.9168C441.264 17.7888 441.776 18.0448 441.903 18.5567C442.031 19.0686 441.776 19.5805 441.264 19.7085C438.832 20.4763 436.401 21.2442 434.097 22.14C434.097 22.396 433.969 22.396 433.841 22.396ZM496.55 19.8364C496.422 19.8364 496.422 19.8364 496.294 19.8364C493.862 19.0686 491.431 18.4287 488.999 17.9168C488.487 17.7888 488.103 17.2769 488.231 16.765C488.359 16.2531 488.871 15.8692 489.383 15.9971C491.942 16.509 494.374 17.1489 496.933 17.9168C497.445 18.0448 497.701 18.5567 497.573 19.0686C497.445 19.5805 497.061 19.8364 496.55 19.8364ZM447.279 18.3007C446.895 18.3007 446.383 18.0448 446.383 17.5329C446.255 17.021 446.639 16.509 447.151 16.3811C449.71 15.7412 452.27 15.3573 454.829 14.9733C455.341 14.8453 455.853 15.2293 455.981 15.7412C456.109 16.2531 455.725 16.765 455.213 16.893C452.654 17.2769 450.222 17.7888 447.79 18.3007C447.406 18.3007 447.407 18.3007 447.279 18.3007ZM482.856 16.765H482.728C480.297 16.3811 477.737 16.1251 475.177 15.9971C474.666 15.9971 474.282 15.4852 474.282 14.9733C474.282 14.4614 474.794 14.0775 475.305 14.0775C477.865 14.2055 480.424 14.4614 482.984 14.8453C483.496 14.9733 483.88 15.3573 483.752 15.9971C483.752 16.509 483.368 16.765 482.856 16.765ZM461.228 16.1251C460.716 16.1251 460.332 15.7412 460.332 15.2293C460.332 14.7174 460.716 14.2055 461.228 14.2055C463.788 13.9495 466.347 13.9495 469.035 13.8215C469.546 13.8215 469.93 14.2055 470.058 14.7174C470.058 15.2293 469.674 15.7412 469.163 15.7412C466.347 15.8692 463.788 15.8692 461.228 16.1251Z" fill="#E0E0E0"/>
</g>
<defs>
<clipPath id="clip0">
<rect width="571.8" height="524.193" fill="white"/>
</clipPath>
</defs>
</svg>
