<svg width="741" height="552" viewBox="0 0 741 552" fill="none" xmlns="http://www.w3.org/2000/svg">
<g clip-path="url(#clip0)">
<path d="M740.741 485.037H0V485.333H740.741V485.037Z" fill="#E0E0E0"/>
<path d="M559.556 500.741H508.593V501.037H559.556V500.741Z" fill="#E0E0E0"/>
<path d="M164.592 501.037H135.852V501.333H164.592V501.037Z" fill="#E0E0E0"/>
<path d="M371.851 500.148H313.777V500.444H371.851V500.148Z" fill="#E0E0E0"/>
<path d="M312.149 494.815H286.223V495.111H312.149V494.815Z" fill="#E0E0E0"/>
<path d="M629.037 494.963H550.519V495.259H629.037V494.963Z" fill="#E0E0E0"/>
<path d="M650.814 299.704C632.592 272 649.185 242.074 646.518 211.259C643.703 180.444 614.37 173.63 619.999 147.555C626.37 117.185 609.333 88.1481 589.925 88.1481C570.518 88.1481 553.333 117.333 559.851 147.555C565.333 173.778 535.999 180.444 533.333 211.259C530.518 242.074 547.259 272 529.036 299.704C510.814 327.407 515.555 364.148 525.925 382.37C528.74 387.407 532.148 391.852 535.703 395.704C564.888 427.259 615.407 427.259 644.592 395.704C648.296 391.704 651.555 387.259 654.37 382.37C664.296 364.148 669.036 327.407 650.814 299.704Z" fill="#E0E0E0"/>
<path d="M598.962 485.037H580.592V329.926C580.592 324.889 584.74 320.741 589.777 320.741C594.814 320.741 598.962 324.889 598.962 329.926V485.037Z" fill="#F0F0F0"/>
<path d="M473.926 485.037H448.889V329.926C448.889 322.963 454.518 317.333 461.481 317.333C468.444 317.333 474.074 322.963 474.074 329.926V485.037H473.926Z" fill="#E0E0E0"/>
<path d="M461.333 443.259C504.043 443.259 538.667 408.636 538.667 365.926C538.667 323.216 504.043 288.593 461.333 288.593C418.623 288.593 384 323.216 384 365.926C384 408.636 418.623 443.259 461.333 443.259Z" fill="#F0F0F0"/>
<path d="M552.246 342.784C556.31 326.426 546.343 309.871 529.986 305.807C513.628 301.744 497.073 311.71 493.009 328.067C488.946 344.425 498.912 360.98 515.27 365.044C531.627 369.107 548.182 359.141 552.246 342.784Z" fill="#F0F0F0"/>
<path d="M416.823 320.256C418.428 310.404 411.742 301.116 401.89 299.511C392.038 297.906 382.75 304.592 381.145 314.444C379.539 324.296 386.225 333.584 396.077 335.189C405.93 336.794 415.218 330.109 416.823 320.256Z" fill="#F0F0F0"/>
<path d="M418.518 320.593C425.473 320.593 431.111 314.955 431.111 308C431.111 301.045 425.473 295.407 418.518 295.407C411.564 295.407 405.926 301.045 405.926 308C405.926 314.955 411.564 320.593 418.518 320.593Z" fill="#F0F0F0"/>
<path d="M302.222 392.444C289.333 394.37 278.222 398.963 268.592 405.333C268.444 393.63 266.37 382.518 260.889 373.481C252.444 381.63 245.777 392.296 240.148 403.556C238.074 382.222 232.444 361.481 220 348.296C201.333 360 191.703 379.556 187.259 400.148C179.851 386.963 169.629 374.667 155.407 365.778C144 377.778 140.444 394.37 140.74 411.407C127.851 396.296 113.481 384.593 99.407 383.259C95.9996 407.111 103.259 429.63 112.592 447.407C124.889 470.667 149.185 485.037 175.555 485.037H236.444C262.37 485.037 286.666 471.259 298.814 448.296C306.518 433.778 310.222 415.111 302.222 392.444Z" fill="#E0E0E0"/>
<path d="M284.888 84.7407C292.444 62.6666 286.37 46.9629 268 46.9629C256.444 46.9629 242.222 53.1851 228.296 63.2592C226.666 57.4814 222.222 54.074 215.111 54.074C202.518 54.074 185.333 64.7407 171.703 79.7036C168.444 76.2962 163.703 74.3703 157.629 73.9259C145.629 73.1851 131.111 79.4073 118.518 89.3333C117.481 87.7036 115.555 86.6666 112.888 86.5184C105.925 86.074 96.5921 92.2962 91.9995 100.296C91.7032 100.741 91.4069 101.333 91.2588 101.778H105.629H117.037H156.74H176.296H191.555H214.814H219.111H277.037H288.444C289.037 94.6666 287.851 88.8888 284.888 84.7407Z" fill="#F0F0F0"/>
<path d="M285.481 218.518C289.185 207.704 286.222 200.148 277.185 200.148C271.555 200.148 264.592 203.111 257.777 208C257.037 205.185 254.814 203.555 251.407 203.555C245.333 203.555 236.889 208.741 230.222 216C228.592 214.37 226.37 213.333 223.259 213.185C217.333 212.889 210.222 215.852 204.148 220.741C203.555 220 202.666 219.407 201.481 219.407C198.074 219.259 193.481 222.222 191.259 226.074C191.111 226.37 190.963 226.518 190.814 226.815H197.777H203.407H222.814H232.296H239.703H251.111H253.185H281.481H287.111C287.555 223.407 286.963 220.444 285.481 218.518Z" fill="#F0F0F0"/>
<path d="M507.851 137.037C507.11 136.889 506.37 136.889 505.629 136.889C506.37 126.074 502.221 119.259 493.481 119.259C487.11 119.259 479.407 122.815 471.407 128.889C473.629 108 466.37 94.5184 449.925 94.5184C436.74 94.5184 419.851 103.407 403.259 117.778C401.777 109.63 396.888 104.741 388.74 104.741C374.37 104.741 353.777 119.852 337.481 141.333C333.925 136.593 328.592 133.63 321.629 133.185C307.851 132.148 290.814 140.889 275.703 155.111C274.518 152.741 272.444 151.259 269.481 150.963C261.925 150.37 251.555 158.222 245.629 168.741H263.11H274.962H320.592H341.925H361.036H388.147H439.259H459.11H466.222H494.518H519.999C526.37 152.741 521.184 138.963 507.851 137.037Z" fill="#F0F0F0"/>
<path d="M370.371 552C529.019 552 657.63 544.505 657.63 535.259C657.63 526.014 529.019 518.519 370.371 518.519C211.722 518.519 83.1113 526.014 83.1113 535.259C83.1113 544.505 211.722 552 370.371 552Z" fill="#F5F5F5"/>
<path d="M72.4443 141.63L410.074 190.222L455.407 236L72.4443 141.63Z" fill="#9C2BAE"/>
<path opacity="0.6" d="M72.4443 141.63L410.074 190.222L455.407 236L72.4443 141.63Z" fill="white"/>
<path d="M72.4443 141.63L410.074 190.222L394.37 256.444L72.4443 141.63Z" fill="#9C2BAE"/>
<path opacity="0.2" d="M72.4443 141.63L410.074 190.222L394.37 256.444L72.4443 141.63Z" fill="black"/>
<path d="M387.555 65.037L407.111 156.889C408.148 161.926 405.037 166.815 400 167.852L225.037 205.185C220 206.222 215.111 203.111 214.074 198.074L194.518 106.222C193.926 103.556 194.518 101.037 196 98.9629C197.333 97.1852 199.259 95.7037 201.629 95.2592L376.592 57.9259C378.963 57.4814 381.333 57.9259 383.259 59.1111C385.333 60.2963 386.963 62.5185 387.555 65.037Z" fill="#9C2BAE"/>
<path opacity="0.4" d="M387.555 65.037L407.111 156.889C408.148 161.926 405.037 166.815 400 167.852L225.037 205.185C220 206.222 215.111 203.111 214.074 198.074L194.518 106.222C193.926 103.556 194.518 101.037 196 98.9629C197.333 97.1852 199.259 95.7037 201.629 95.2592L376.592 57.9259C378.963 57.4814 381.333 57.9259 383.259 59.1111C385.333 60.2963 386.963 62.5185 387.555 65.037Z" fill="black"/>
<path d="M383.259 59.1111L324.741 130.815C313.63 144.444 294.37 148.593 278.667 140.593L196 98.9629C197.333 97.1852 199.259 95.7037 201.63 95.2592L376.593 57.9259C378.963 57.4814 381.333 57.9259 383.259 59.1111Z" fill="#9C2BAE"/>
<path d="M72.4443 141.63L350.963 207.852L394.37 256.444L72.4443 141.63Z" fill="#9C2BAE"/>
<path opacity="0.6" d="M72.4443 141.63L350.963 207.852L394.37 256.444L72.4443 141.63Z" fill="white"/>
<path d="M173.996 205.403L173.247 206.681L204.18 224.804L204.929 223.526L173.996 205.403Z" fill="#9C2BAE"/>
<path d="M218.62 231.656L217.871 232.934L228.992 239.449L229.741 238.171L218.62 231.656Z" fill="#9C2BAE"/>
<path d="M72.4443 141.63L350.963 207.852L296.741 273.185L72.4443 141.63Z" fill="#9C2BAE"/>
<path d="M445.037 296.741C444.741 296.741 444.297 296.741 444 296.593L398.519 278.518C397.037 277.926 396.297 276.148 396.889 274.667C397.482 273.185 399.26 272.444 400.741 273.037L446.074 290.963C447.556 291.555 448.297 293.333 447.704 294.815C447.26 296 446.222 296.741 445.037 296.741Z" fill="#9C2BAE"/>
<path opacity="0.3" d="M445.037 296.741C444.741 296.741 444.297 296.741 444 296.593L398.519 278.518C397.037 277.926 396.297 276.148 396.889 274.667C397.482 273.185 399.26 272.444 400.741 273.037L446.074 290.963C447.556 291.555 448.297 293.333 447.704 294.815C447.26 296 446.222 296.741 445.037 296.741Z" fill="black"/>
<path d="M442.37 270.667C442.074 270.667 441.63 270.667 441.333 270.518L416.889 260.889C415.407 260.296 414.667 258.518 415.259 257.037C415.852 255.555 417.63 254.815 419.111 255.407L443.556 265.037C445.037 265.63 445.778 267.407 445.185 268.889C444.593 270.074 443.556 270.667 442.37 270.667Z" fill="#9C2BAE"/>
<path opacity="0.5" d="M442.37 270.667C442.074 270.667 441.63 270.667 441.333 270.518L416.889 260.889C415.407 260.296 414.667 258.518 415.259 257.037C415.852 255.555 417.63 254.815 419.111 255.407L443.556 265.037C445.037 265.63 445.778 267.407 445.185 268.889C444.593 270.074 443.556 270.667 442.37 270.667Z" fill="white"/>
<path d="M391.408 296.296C391.111 296.296 390.667 296.296 390.371 296.148L346.074 278.518C344.593 277.926 343.852 276.148 344.445 274.667C345.037 273.185 346.815 272.444 348.297 273.037L392.593 290.518C394.074 291.111 394.815 292.889 394.223 294.37C393.63 295.555 392.593 296.296 391.408 296.296Z" fill="#9C2BAE"/>
<path opacity="0.3" d="M391.408 296.296C391.111 296.296 390.667 296.296 390.371 296.148L346.074 278.518C344.593 277.926 343.852 276.148 344.445 274.667C345.037 273.185 346.815 272.444 348.297 273.037L392.593 290.518C394.074 291.111 394.815 292.889 394.223 294.37C393.63 295.555 392.593 296.296 391.408 296.296Z" fill="black"/>
<path d="M551.556 162.815C555.408 170.519 559.112 178.074 562.519 186.074C565.926 193.926 569.186 201.926 571.852 210.222L572.889 213.333C573.038 213.926 573.334 214.815 573.482 215.407C573.63 216.148 573.778 216.741 573.778 217.481C574.223 220 574.223 222.37 574.223 224.741C574.223 229.333 573.926 233.63 573.63 237.926C572.741 246.519 571.408 254.963 569.63 263.407L561.482 262.519C561.334 254.222 561.334 245.778 561.038 237.481C560.889 233.333 560.593 229.333 560.297 225.481C560.149 223.556 559.704 221.63 559.408 220.148C559.26 219.704 559.26 219.407 559.112 219.111C558.963 218.815 558.963 218.667 558.815 218.222L557.63 215.407C554.519 207.852 551.112 200.296 547.556 192.889L536.741 170.37L551.556 162.815Z" fill="#E4897B"/>
<path d="M561.63 260L557.778 267.111L569.926 270.519C569.926 270.519 572.297 264.741 569.482 260.296L561.63 260Z" fill="#E4897B"/>
<path d="M553.186 277.333L564.445 278.222L570.074 270.37L557.926 267.111L553.186 277.333Z" fill="#E4897B"/>
<path d="M500.593 111.556C500.445 112.444 499.853 113.037 499.26 112.889C498.667 112.741 498.371 112 498.519 111.111C498.667 110.222 499.26 109.63 499.853 109.778C500.445 109.926 500.741 110.667 500.593 111.556Z" fill="#263238"/>
<path d="M499.852 113.037C499.852 113.037 496.889 117.63 494.223 119.556C495.408 121.333 498.223 121.185 498.223 121.185L499.852 113.037Z" fill="#DE5753"/>
<path d="M504.741 107.407C504.593 107.407 504.445 107.407 504.297 107.259C502.815 105.63 500.889 105.926 500.889 105.926C500.593 105.926 500.297 105.778 500.297 105.481C500.297 105.185 500.445 104.889 500.741 104.889C500.889 104.889 503.26 104.444 505.186 106.667C505.334 106.815 505.334 107.259 505.186 107.407C504.889 107.407 504.741 107.407 504.741 107.407Z" fill="#263238"/>
<path d="M525.038 123.704C523.408 131.704 521.927 146.222 527.556 151.556C527.556 151.556 525.334 159.704 510.519 159.704C494.223 159.704 502.815 151.556 502.815 151.556C511.704 149.482 511.408 142.815 509.927 136.593L525.038 123.704Z" fill="#E4897B"/>
<path d="M529.779 156.593C530.964 152.741 532.297 148.296 529.63 146.815C526.667 145.333 510.519 143.704 505.038 146.667C499.556 149.481 501.038 157.481 501.038 157.481L529.779 156.593Z" fill="#263238"/>
<path d="M563.852 526.074C562.667 526.074 561.63 525.926 561.186 525.333C561.038 525.037 560.889 524.741 561.186 524.148C561.334 523.852 561.63 523.704 561.926 523.556C563.556 523.259 566.519 525.185 566.667 525.333C566.815 525.333 566.815 525.482 566.815 525.63C566.815 525.778 566.667 525.778 566.667 525.778C566.223 525.926 565.038 526.074 563.852 526.074ZM562.519 524C562.371 524 562.371 524 562.223 524C562.075 524 561.778 524.148 561.778 524.296C561.482 524.741 561.63 524.889 561.778 524.889C562.223 525.482 564.445 525.482 566.075 525.185C565.038 524.741 563.556 524 562.519 524Z" fill="#9C2BAE"/>
<path d="M566.667 525.778C565.482 525.185 563.259 522.815 563.407 521.481C563.407 521.333 563.556 520.889 564.296 520.741C564.741 520.741 565.037 520.741 565.333 521.037C566.667 522.074 566.815 525.185 566.815 525.333C566.963 525.481 566.963 525.63 566.667 525.778C566.815 525.778 566.815 525.778 566.667 525.778ZM564.445 521.333C564 521.333 564 521.481 564 521.63C563.852 522.37 565.185 524.148 566.37 525.037C566.222 524.148 565.926 522.222 565.037 521.63C564.889 521.333 564.741 521.333 564.445 521.333Z" fill="#9C2BAE"/>
<path d="M498.519 526.074C497.186 526.074 495.704 525.926 495.26 525.185C495.112 525.037 494.964 524.593 495.26 524C495.408 523.704 495.704 523.556 496.149 523.408C497.927 522.963 501.778 525.037 501.927 525.185C502.075 525.185 502.075 525.333 502.075 525.482C502.075 525.63 501.927 525.63 501.927 525.63C501.186 525.926 499.853 526.074 498.519 526.074ZM496.89 523.852C496.741 523.852 496.593 523.852 496.445 523.852C496.149 523.852 496.001 524 496.001 524.148C495.853 524.445 495.853 524.593 496.001 524.741C496.445 525.482 499.26 525.482 501.334 525.185C500.001 524.889 498.075 523.852 496.89 523.852Z" fill="#9C2BAE"/>
<path d="M501.778 525.778C500.297 525.185 497.778 522.815 497.926 521.63C497.926 521.333 498.222 521.037 498.815 520.889C499.408 520.889 499.852 521.037 500.297 521.333C501.63 522.519 501.926 525.333 501.926 525.482C501.926 525.63 501.926 525.63 501.778 525.778C501.926 525.778 501.926 525.778 501.778 525.778ZM499.26 521.333H499.111C498.667 521.333 498.667 521.63 498.667 521.63C498.519 522.37 500.297 524.148 501.63 525.037C501.482 524.148 501.037 522.37 500.148 521.63C499.852 521.482 499.556 521.333 499.26 521.333Z" fill="#9C2BAE"/>
<path d="M513.778 525.482H502.963L501.778 500.296H512.741L513.778 525.482Z" fill="#E4897B"/>
<path d="M579.112 525.482H568.297L562.815 500.296H573.63L579.112 525.482Z" fill="#E4897B"/>
<path d="M567.556 524.148H579.852C580.297 524.148 580.741 524.444 580.741 524.889L582.963 534.519C583.26 535.556 582.371 536.445 581.334 536.445C577.037 536.445 574.963 536.148 569.63 536.148C566.371 536.148 559.556 536.445 554.963 536.445C550.519 536.445 549.778 532 551.704 531.556C560.148 529.778 563.26 527.259 565.926 524.741C566.223 524.445 566.815 524.148 567.556 524.148Z" fill="#263238"/>
<path d="M502.964 524.148H514.816C515.26 524.148 515.705 524.444 515.705 524.889L517.927 534.519C518.223 535.556 517.334 536.445 516.297 536.445C512.001 536.445 505.779 536.148 500.445 536.148C494.075 536.148 488.742 536.445 481.334 536.445C476.89 536.445 475.556 532 477.482 531.556C485.927 529.63 492.89 529.482 500.297 524.889C501.186 524.593 502.075 524.148 502.964 524.148Z" fill="#263238"/>
<path d="M497.778 170.667C488.593 169.926 479.704 168.741 470.667 167.111C466.223 166.222 461.63 165.333 457.186 164C452.741 162.815 448.149 161.482 443.556 159.556C442.371 159.111 441.334 158.519 440.149 158.074C438.667 157.333 437.482 156.593 436.445 155.852C434.371 154.37 432.445 153.037 430.667 151.556C427.112 148.593 423.704 145.63 420.297 142.519C413.63 136.444 407.408 130.074 401.334 123.407L406.815 117.333L428.297 132.741C431.853 135.259 435.408 137.778 438.964 140.148C440.741 141.333 442.519 142.37 444.149 143.407C445.038 143.852 445.778 144.296 446.223 144.444C447.112 144.741 448.001 145.185 448.89 145.482C456.445 148 464.89 149.63 473.334 150.963C481.778 152.296 490.519 153.333 498.964 154.222L497.778 170.667Z" fill="#E4897B"/>
<path d="M546.963 153.926C557.185 156.296 567.408 186.074 567.408 186.074L546.37 201.185C546.37 201.185 540.445 187.259 534.667 175.111C528.889 162.518 536.593 151.555 546.963 153.926Z" fill="#9C2BAE"/>
<path opacity="0.4" d="M546.963 153.926C557.185 156.296 567.408 186.074 567.408 186.074L546.37 201.185C546.37 201.185 540.445 187.259 534.667 175.111C528.889 162.518 536.593 151.555 546.963 153.926Z" fill="black"/>
<path d="M541.038 170.222L536.89 179.555C541.186 188.889 545.186 198.074 546.223 200.593C546.075 189.63 544.001 175.852 541.038 170.222Z" fill="#9C2BAE"/>
<path opacity="0.6" d="M541.038 170.222L536.89 179.555C541.186 188.889 545.186 198.074 546.223 200.593C546.075 189.63 544.001 175.852 541.038 170.222Z" fill="black"/>
<path d="M486.075 154.519C486.075 154.519 474.519 167.556 485.482 248.593C502.964 248.593 535.112 248.593 543.704 248.593C544.149 239.704 538.519 196 547.112 153.926C547.112 153.926 537.186 151.852 527.556 151.407C520.149 151.111 509.334 150.815 502.815 151.407C494.075 152.296 486.075 154.519 486.075 154.519Z" fill="#9C2BAE"/>
<path opacity="0.4" d="M486.075 154.519C486.075 154.519 474.519 167.556 485.482 248.593C502.964 248.593 535.112 248.593 543.704 248.593C544.149 239.704 538.519 196 547.112 153.926C547.112 153.926 537.186 151.852 527.556 151.407C520.149 151.111 509.334 150.815 502.815 151.407C494.075 152.296 486.075 154.519 486.075 154.519Z" fill="black"/>
<path d="M481.779 170.222C481.334 173.333 481.038 176.889 480.89 181.185C485.63 179.704 491.704 177.333 497.038 173.63L481.779 170.222Z" fill="#9C2BAE"/>
<path opacity="0.6" d="M481.779 170.222C481.334 173.333 481.038 176.889 480.89 181.185C485.63 179.704 491.704 177.333 497.038 173.63L481.779 170.222Z" fill="black"/>
<path d="M506.667 171.852C498.815 178.815 469.185 178.074 469.185 178.074L468.148 149.333C468.148 149.333 485.037 151.852 498.519 151.556C515.111 151.259 515.111 164.296 506.667 171.852Z" fill="#9C2BAE"/>
<path opacity="0.4" d="M506.667 171.852C498.815 178.815 469.185 178.074 469.185 178.074L468.148 149.333C468.148 149.333 485.037 151.852 498.519 151.556C515.111 151.259 515.111 164.296 506.667 171.852Z" fill="black"/>
<path d="M407.111 117.481L399.704 108.741L391.704 117.63C391.704 117.63 396.593 125.926 404.445 124.593L407.111 117.481Z" fill="#E4897B"/>
<path d="M389.037 98.5186L386.223 109.926L391.556 117.63L399.556 108.741L389.037 98.5186Z" fill="#E4897B"/>
<path d="M501.926 500.296L502.37 513.333H513.333L512.741 500.296H501.926Z" fill="#CE6F64"/>
<path d="M573.629 500.296H562.814L565.629 513.333H576.592L573.629 500.296Z" fill="#CE6F64"/>
<path d="M508.445 100.741C498.667 96.2963 495.556 76.5926 523.704 81.4815C523.704 81.4815 519.408 86.2222 528 89.1852C536.593 92 529.482 110.519 508.445 100.741Z" fill="#263238"/>
<path d="M529.63 115.556C526.815 125.926 525.778 132.296 519.259 136.593C509.63 143.111 497.482 135.556 497.185 124.593C496.889 114.667 501.482 99.2593 512.741 97.1852C523.704 95.1111 532.445 105.185 529.63 115.556Z" fill="#E4897B"/>
<path d="M523.26 86.6666C529.926 90.3703 538.963 92.5926 538.074 97.9259C537.037 104.296 543.556 100.296 541.926 109.926C540.889 116.148 529.334 135.111 521.185 134.222C508.889 132.889 510.519 114.074 510.519 104.296C510.519 98.5185 510.223 79.4074 523.26 86.6666Z" fill="#263238"/>
<path d="M509.037 95.1111C506.074 95.8518 502.074 112.889 513.63 114.518C526.815 116.148 509.037 95.1111 509.037 95.1111Z" fill="#263238"/>
<path d="M509.334 101.185C505.63 101.482 497.482 97.1852 498.519 90.5186C498.519 90.5186 503.704 98.2223 509.334 101.185Z" fill="#263238"/>
<path d="M514.666 115.704C513.481 118.222 511.407 120.296 509.333 121.481C506.222 123.111 504.444 120.741 505.185 117.63C505.778 114.815 508.148 110.519 511.407 110.222C514.666 109.778 516 112.741 514.666 115.704Z" fill="#E4897B"/>
<path d="M530.964 103.704C533.186 102.519 538.223 100 539.556 92.8889C539.556 92.8889 544.445 106.519 530.964 103.704Z" fill="#263238"/>
<path d="M543.408 103.556C542.371 102.963 539.852 101.481 536.297 102.815C536.297 102.815 540.889 96.8889 543.408 103.556Z" fill="#263238"/>
<path d="M506.074 248.593C506.074 248.593 518.371 331.704 525.185 362.963C532.593 397.037 560.593 510.815 560.593 510.815H580.593C580.593 510.815 562.074 399.852 557.926 366.074C553.333 329.333 543.704 248.593 543.704 248.593H506.074Z" fill="#9C2BAE"/>
<path opacity="0.5" d="M506.074 248.593C506.074 248.593 518.371 331.704 525.185 362.963C532.593 397.037 560.593 510.815 560.593 510.815H580.593C580.593 510.815 562.074 399.852 557.926 366.074C553.333 329.333 543.704 248.593 543.704 248.593H506.074Z" fill="white"/>
<path d="M557.333 503.407C557.185 503.407 559.407 511.111 559.407 511.111H581.778L581.333 504.296L557.333 503.407Z" fill="#9C2BAE"/>
<path opacity="0.1" d="M557.333 503.407C557.185 503.407 559.407 511.111 559.407 511.111H581.778L581.333 504.296L557.333 503.407Z" fill="black"/>
<path d="M513.778 278.222C528 281.037 526.519 334.222 524.889 361.63C520.741 342.222 514.815 305.037 510.667 278.519C511.556 278.222 512.593 278.074 513.778 278.222Z" fill="#9C2BAE"/>
<path opacity="0.4" d="M513.778 278.222C528 281.037 526.519 334.222 524.889 361.63C520.741 342.222 514.815 305.037 510.667 278.519C511.556 278.222 512.593 278.074 513.778 278.222Z" fill="white"/>
<path d="M485.334 248.593C485.334 248.593 483.852 329.926 485.038 363.111C486.223 397.63 498.371 510.667 498.371 510.667H516.741C516.741 510.667 517.482 399.704 518.223 365.778C519.112 328.889 523.556 248.593 523.556 248.593H485.334Z" fill="#9C2BAE"/>
<path opacity="0.5" d="M485.334 248.593C485.334 248.593 483.852 329.926 485.038 363.111C486.223 397.63 498.371 510.667 498.371 510.667H516.741C516.741 510.667 517.482 399.704 518.223 365.778C519.112 328.889 523.556 248.593 523.556 248.593H485.334Z" fill="white"/>
<path d="M502.222 497.481C502.074 497.481 502.074 497.481 502.074 497.333C498.815 466.074 491.111 390.37 490.222 363.259C489.185 335.556 490.074 273.333 490.371 254.963C490.371 254.815 490.519 254.815 490.519 254.815C490.667 254.815 490.667 254.963 490.667 254.963C490.371 273.333 489.482 335.556 490.519 363.259C491.556 390.37 499.111 466.074 502.371 497.333C502.371 497.333 502.371 497.481 502.222 497.481Z" fill="#9C2BAE"/>
<path opacity="0.4" d="M502.222 497.481C502.074 497.481 502.074 497.481 502.074 497.333C498.815 466.074 491.111 390.37 490.222 363.259C489.185 335.556 490.074 273.333 490.371 254.963C490.371 254.815 490.519 254.815 490.519 254.815C490.667 254.815 490.667 254.963 490.667 254.963C490.371 273.333 489.482 335.556 490.519 363.259C491.556 390.37 499.111 466.074 502.371 497.333C502.371 497.333 502.371 497.481 502.222 497.481Z" fill="white"/>
<path d="M494.816 503.407C494.667 503.407 495.853 511.111 495.853 511.111H518.223L518.816 504.296L494.816 503.407Z" fill="#9C2BAE"/>
<path opacity="0.1" d="M494.816 503.407C494.667 503.407 495.853 511.111 495.853 511.111H518.223L518.816 504.296L494.816 503.407Z" fill="black"/>
</g>
<defs>
<clipPath id="clip0">
<rect width="740.741" height="552" fill="white"/>
</clipPath>
</defs>
</svg>
