<svg width="1234" height="344" viewBox="0 0 1234 344" fill="none" xmlns="http://www.w3.org/2000/svg">
<g clip-path="url(#clip0)">
<path d="M292.972 168.443V168.2C302.443 163.1 308.271 152.901 308.271 141.244C308.271 120.36 292.001 108.703 269.173 108.703H231.532C226.675 108.703 224.247 111.374 224.247 116.231V128.373H268.93C279.616 128.373 284.958 134.93 284.958 143.916C284.958 152.901 279.373 159.943 269.416 159.943H224.247V226.969C224.247 232.069 226.675 234.497 231.532 234.497H269.659C293.215 234.497 313.128 223.083 313.128 197.827C313.371 185.199 306.572 172.571 292.972 168.443ZM271.602 214.827H247.074V178.4H271.602C283.258 178.4 289.815 186.171 289.815 196.613C289.815 207.298 283.258 214.827 271.602 214.827Z" fill="#231F20"/>
<path d="M411.238 214.827H363.155V180.828H398.367C403.224 180.828 405.896 178.4 405.896 173.3V168.2C405.896 163.343 403.224 160.915 398.367 160.915H363.155V128.131H408.324C413.181 128.131 415.852 125.702 415.852 120.845V115.745C415.852 110.889 413.181 108.217 408.324 108.217H347.613C342.756 108.217 340.327 110.889 340.327 115.745V226.969C340.327 232.069 342.756 234.497 347.613 234.497H411.238C416.095 234.497 418.766 232.069 418.766 226.969V222.112C418.766 217.498 416.095 214.827 411.238 214.827Z" fill="#231F20"/>
<path d="M514.448 214.827H467.336V115.988C467.336 111.131 464.907 108.46 460.05 108.46H451.793C446.936 108.46 444.508 111.131 444.508 115.988V227.212C444.508 232.311 446.936 234.74 451.793 234.74H514.448C519.305 234.74 521.976 232.311 521.976 227.212V222.355C521.976 217.498 519.547 214.827 514.448 214.827Z" fill="#231F20"/>
<path d="M612.315 214.827H565.202V115.988C565.202 111.131 562.774 108.46 557.917 108.46H549.66C544.803 108.46 542.375 111.131 542.375 115.988V227.212C542.375 232.311 544.803 234.74 549.66 234.74H612.315C617.171 234.74 619.843 232.311 619.843 227.212V222.355C619.843 217.498 617.414 214.827 612.315 214.827Z" fill="#231F20"/>
<path d="M709.21 168.443V168.2C718.924 163.1 724.509 152.901 724.509 141.244C724.509 120.36 708.239 108.703 685.411 108.703H647.77C642.913 108.703 640.485 111.374 640.485 116.231V128.373H685.168C695.854 128.373 701.196 134.93 701.196 143.916C701.196 152.901 695.611 159.943 685.654 159.943H640.485V226.969C640.485 232.069 642.913 234.497 647.77 234.497H685.897C709.453 234.497 729.366 223.083 729.366 197.827C729.366 185.199 722.809 172.571 709.21 168.443ZM687.597 214.827H663.069V178.4H687.597C699.253 178.4 705.81 186.171 705.81 196.613C706.053 207.298 699.496 214.827 687.597 214.827Z" fill="#231F20"/>
<path d="M772.107 108.46H763.85C758.993 108.46 756.565 111.131 756.565 115.988V227.212C756.565 232.311 758.993 234.74 763.85 234.74H772.107C776.964 234.74 779.392 232.311 779.392 227.212V115.988C779.392 111.131 776.964 108.46 772.107 108.46Z" fill="#231F20"/>
<path d="M892.316 214.827H843.018C837.19 214.827 833.547 215.069 833.547 215.069V214.827C833.547 214.827 837.918 210.698 842.775 203.413L895.959 127.159C898.144 124.245 898.873 121.574 898.873 117.688V115.503C898.873 110.889 896.444 108.217 891.587 108.217H815.334C810.477 108.217 807.805 110.889 807.805 115.745V120.845C807.805 125.702 810.477 128.131 815.334 128.131H860.746C866.574 128.131 870.217 127.888 870.217 127.888V128.131C870.217 128.131 865.846 132.259 860.989 139.544L808.048 215.555C805.863 218.469 805.134 221.141 805.134 225.026V227.212C805.134 232.311 807.805 234.74 812.662 234.74H892.559C897.416 234.74 900.087 232.311 900.087 227.212V222.355C899.601 217.498 896.93 214.827 892.316 214.827Z" fill="#231F20"/>
<path d="M1004.27 214.827H954.97C949.142 214.827 945.499 215.069 945.499 215.069V214.827C945.499 214.827 949.87 210.698 954.727 203.413L1007.91 127.402C1010.1 124.488 1010.82 121.817 1010.82 117.931V115.745C1010.82 111.131 1008.4 108.46 1003.54 108.46H927.043C922.186 108.46 919.515 111.131 919.515 115.988V121.088C919.515 125.945 922.186 128.373 927.043 128.373H972.455C978.283 128.373 981.926 128.131 981.926 128.131V128.373C981.926 128.373 977.555 132.502 972.698 139.787L919.757 215.798C917.572 218.712 916.843 221.383 916.843 225.269V227.455C916.843 232.554 919.515 234.983 924.371 234.983H1004.27C1009.12 234.983 1011.8 232.554 1011.8 227.455V222.598C1011.8 217.498 1009.12 214.827 1004.27 214.827Z" fill="#231F20"/>
<path d="M1108.93 214.827H1060.85V180.828H1096.06C1100.92 180.828 1103.59 178.4 1103.59 173.3V168.2C1103.59 163.343 1100.92 160.915 1096.06 160.915H1060.85V128.131H1106.02C1110.88 128.131 1113.55 125.702 1113.55 120.845V115.745C1113.55 110.889 1110.88 108.217 1106.02 108.217H1045.31C1040.45 108.217 1038.02 110.889 1038.02 115.745V226.969C1038.02 232.069 1040.45 234.497 1045.31 234.497H1108.93C1113.79 234.497 1116.46 232.069 1116.46 226.969V222.112C1116.46 217.498 1113.79 214.827 1108.93 214.827Z" fill="#231F20"/>
<path d="M1232.79 225.755L1211.9 187.871C1209.47 183.257 1207.77 181.314 1207.77 181.314V181.071C1220.89 175.728 1228.66 161.643 1228.66 146.587C1228.66 129.588 1220.4 117.445 1207.53 112.103C1202.19 109.674 1196.12 108.703 1183.49 108.703H1149.49C1144.63 108.703 1142.2 111.374 1142.2 116.231V227.455C1142.2 232.554 1144.63 234.983 1149.49 234.983H1157.75C1162.6 234.983 1165.03 232.554 1165.03 227.455V187.628H1187.13L1209.47 229.64C1211.42 233.283 1214.09 234.74 1218.22 234.74H1227.93C1233.51 234.74 1235.7 230.854 1232.79 225.755ZM1185.67 167.714H1165.03V128.131H1182.03C1188.83 128.131 1192.72 128.859 1195.63 130.316C1202.43 133.23 1205.59 139.544 1205.59 147.558C1205.59 159.943 1197.82 167.714 1185.67 167.714Z" fill="#231F20"/>
<path d="M123.223 52.8489L37.7411 3.55119C29.97 -1.06288 20.4991 -1.06288 12.728 3.55119C4.95692 8.16526 0.100006 16.1792 0.100006 25.4073V78.5906V85.1474V108.461L26.0845 123.031V99.7182V93.1613V26.6216L110.352 75.1907C127.837 85.3903 138.522 103.604 138.522 123.76C138.522 129.103 137.794 134.445 136.337 139.545C134.879 144.159 132.937 148.773 130.508 152.901C126.866 158.973 122.251 164.072 116.423 168.444C114.966 169.658 113.509 170.629 111.809 171.601C111.323 171.843 110.838 172.086 110.352 172.572L98.2097 179.615L78.5392 191.028H78.2964L26.0845 220.413L0.100006 235.226V264.853L26.0845 250.283L76.3536 221.87V222.113L90.9244 213.613L117.395 198.799L117.152 198.556L122.98 195.157C125.166 193.942 127.108 192.728 129.051 191.271C129.537 191.028 129.78 190.785 130.265 190.543C137.551 185.2 143.865 178.886 148.965 171.843C158.678 158.244 164.021 141.731 164.021 124.246C164.264 94.1327 148.722 67.6625 123.223 52.8489Z" fill="#951BB9"/>
<path d="M148.965 171.6C145.079 166.015 140.222 160.915 134.879 156.544C133.422 155.329 131.722 154.115 130.265 152.901C128.08 151.444 125.894 149.987 123.709 148.53L113.266 142.701L76.5965 121.574H76.3536L26.0845 93.1608L0.100006 78.59V108.46L26.0845 123.031L98.2097 163.829L99.6668 164.557L99.9097 164.8H100.153L110.109 170.629C110.595 170.871 111.081 171.114 111.566 171.6C115.452 174.028 118.852 176.7 121.766 179.614C122.251 180.1 122.98 180.828 123.466 181.557C125.894 184.228 128.08 187.142 130.023 190.299C132.451 194.428 134.394 198.556 135.608 203.17C135.608 203.413 135.851 203.656 135.851 203.899C137.308 208.755 138.036 214.098 138.036 219.441C138.036 239.84 127.594 257.81 109.866 268.01L25.5988 316.579V250.282V244.454V220.412L0.100006 235.226V259.267V265.096V318.036C0.100006 327.021 4.71408 335.278 12.728 339.649C16.6135 341.835 20.9848 343.049 25.356 343.049C29.7272 343.049 34.0984 341.835 37.984 339.649L123.466 290.352C149.207 275.538 164.507 249.068 164.507 219.198C164.264 201.713 158.678 185.199 148.965 171.6Z" fill="#951BB9"/>
</g>
<defs>
<clipPath id="clip0">
<rect width="1233.9" height="342.898" fill="white" transform="translate(0.100006 0.150787)"/>
</clipPath>
</defs>
</svg>
